<?xml version="1.0" standalone="no"?>
<!DOCTYPE svg PUBLIC "-//W3C//DTD SVG 20010904//EN"
 "http://www.w3.org/TR/2001/REC-SVG-20010904/DTD/svg10.dtd">
<svg version="1.0" xmlns="http://www.w3.org/2000/svg"
 width="3780.000000pt" height="1890.000000pt" viewBox="0 0 3780.000000 1890.000000"
 preserveAspectRatio="xMidYMid meet">

<g transform="translate(0.000000,1890.000000) scale(0.100000,-0.100000)"
fill="#000000" stroke="none">
<path d="M8143 17469 c15 -9 17 -26 17 -134 0 -102 -3 -125 -14 -125 -8 0 -18
-4 -21 -10 -4 -6 24 -10 76 -10 50 0 79 4 74 9 -6 5 -19 11 -30 13 -17 3 -20
12 -23 62 l-3 58 28 -6 c15 -4 36 -16 46 -28 16 -20 17 -18 17 43 0 58 -1 62
-13 39 -9 -17 -22 -26 -45 -28 l-32 -3 0 55 0 56 49 0 c52 0 81 -17 81 -48 0
-10 3 -12 9 -6 5 5 7 24 4 42 l-5 32 -117 0 c-84 -1 -111 -3 -98 -11z"/>
<path d="M8388 17463 c10 -10 38 -51 61 -91 48 -85 56 -150 21 -159 -43 -11
-16 -23 53 -22 68 0 71 1 50 16 -47 32 -26 116 59 236 26 37 36 34 40 -10 l3
-38 15 30 c15 29 50 45 83 37 15 -4 17 -18 17 -123 0 -118 0 -120 -25 -129
-14 -5 -25 -12 -25 -15 0 -3 36 -5 80 -5 44 0 80 4 80 9 0 5 -10 11 -22 13
-22 3 -23 7 -26 124 -3 120 -2 122 20 125 45 8 70 -2 81 -32 20 -51 36 -28 21
29 -6 22 -7 22 -203 21 -108 0 -190 -3 -183 -6 19 -8 14 -28 -22 -89 l-34 -57
-31 61 c-36 71 -37 79 -13 85 9 3 -14 5 -52 6 -66 1 -68 0 -48 -16z"/>
<path d="M28538 14415 c-24 -18 -55 -54 -70 -82 -27 -49 -64 -180 -54 -190 3
-3 8 8 12 23 15 60 39 89 72 89 18 0 32 2 32 5 0 3 29 6 64 6 60 1 63 0 58
-20 -4 -20 -4 -20 10 -3 14 18 48 15 48 -5 0 -5 5 -6 10 -3 6 3 10 -1 10 -9 0
-9 5 -15 11 -13 6 1 14 -4 16 -10 3 -10 -11 -13 -52 -13 -53 0 -61 -3 -90 -34
-20 -22 -38 -56 -50 -97 -16 -59 -17 -114 -13 -734 3 -368 2 -733 -1 -810 l-6
-140 -9 140 c-5 77 -9 152 -9 167 0 18 -4 25 -13 21 -15 -5 -19 9 -7 21 4 3 8
16 10 29 3 17 1 19 -9 9 -19 -19 -31 -14 -26 12 3 17 1 23 -8 19 -7 -2 -17 5
-24 16 -6 12 -7 21 -2 21 4 0 8 9 8 19 0 11 -4 17 -8 15 -4 -3 -8 -2 -8 3 -3
72 -13 214 -19 268 -5 45 -9 -105 -10 -421 l-1 -491 133 -46 c72 -25 274 -93
447 -151 526 -174 584 -200 690 -306 98 -97 153 -221 149 -334 l-1 -31 -7 31
c-4 17 -10 35 -14 40 -9 15 -56 15 -142 -1 -44 -9 -89 -17 -100 -18 -13 -1
-21 -11 -23 -27 -3 -22 -38 -160 -157 -610 -121 -461 -463 -1847 -511 -2070
-13 -63 -60 -261 -104 -440 -44 -179 -94 -383 -111 -455 -68 -280 -132 -419
-236 -515 -67 -62 -124 -88 -209 -99 -66 -8 -74 -7 -169 29 -100 38 -311 112
-351 124 -18 6 -20 3 -16 -23 4 -27 2 -28 -25 -24 -29 4 44 -38 157 -91 88
-42 104 -50 104 -60 1 -6 -27 -28 -62 -49 l-63 -40 -112 43 c-62 24 -118 48
-124 53 -8 6 -13 6 -13 0 0 -5 66 -35 148 -68 81 -32 197 -80 257 -106 113
-49 210 -88 395 -158 184 -70 270 -108 262 -116 -4 -5 -1 -5 6 -1 7 5 10 11 7
14 -4 4 46 32 111 63 l118 55 -119 48 c-238 94 -246 99 -277 165 l-28 59 -77
20 c-43 12 -98 26 -122 32 -23 6 -41 13 -38 16 2 2 33 -3 68 -12 219 -55 286
-54 399 2 84 43 143 105 197 211 34 65 56 141 132 448 50 204 111 447 135 540
24 94 87 350 140 570 131 543 129 537 143 542 10 4 353 -134 528 -213 33 -14
173 -73 310 -129 535 -219 522 -213 527 -249 3 -17 2 -130 -3 -251 -33 -938
-39 -1367 -21 -1527 4 -43 5 -78 2 -78 -4 0 -157 61 -341 136 -184 74 -460
186 -613 247 -210 84 -288 120 -314 145 -19 18 -37 30 -39 28 -14 -14 13 -102
40 -133 38 -43 80 -65 299 -152 191 -76 441 -179 678 -278 85 -36 235 -99 333
-140 209 -87 291 -110 443 -123 245 -22 467 28 700 158 91 50 483 261 758 408
82 43 170 98 195 120 l46 42 0 96 c-1 53 -5 100 -11 106 -7 7 -11 2 -11 -19 0
-36 -22 -72 -65 -104 -47 -36 -659 -371 -938 -513 -139 -72 -139 -71 -117 -50
15 15 17 41 17 214 0 108 -5 278 -11 377 -6 99 -12 339 -13 533 -3 291 -1 352
10 352 8 0 80 -28 161 -61 680 -282 1802 -729 1873 -745 109 -26 187 -2 249
76 20 25 42 45 48 43 18 -6 191 66 248 102 69 44 99 79 135 156 69 147 64 62
110 2209 5 267 15 699 20 960 14 671 13 890 -5 970 -37 159 -114 299 -217 396
-64 61 -117 92 -128 74 -8 -14 -103 -62 -190 -97 -67 -26 -150 -73 -150 -84 0
-4 -29 9 -64 27 -65 35 -162 72 -616 239 -140 51 -291 108 -335 125 -44 18
-164 61 -266 96 -103 34 -341 122 -529 194 -188 72 -458 174 -599 226 -141 52
-386 145 -546 206 -481 184 -907 344 -1150 433 -126 45 -306 113 -400 150
-386 152 -686 253 -781 263 -71 8 -74 7 -116 -23z m265 -276 c34 -11 112 -40
172 -64 61 -24 175 -69 255 -100 80 -31 210 -81 290 -110 80 -29 253 -95 385
-148 132 -52 290 -114 350 -137 61 -23 166 -64 235 -90 69 -27 215 -82 325
-123 110 -41 261 -100 335 -130 74 -30 180 -71 235 -90 177 -63 215 -77 303
-114 48 -20 137 -55 197 -78 61 -23 175 -67 255 -98 228 -88 557 -212 775
-293 523 -195 860 -330 922 -370 66 -42 108 -99 133 -182 18 -58 20 -89 18
-326 l-2 -261 -6 265 c-5 248 -7 269 -29 325 -29 73 -65 129 -96 149 -54 36
-97 56 -106 51 -5 -4 -9 -2 -9 3 0 5 -26 19 -57 32 -135 52 -216 79 -223 75
-5 -3 -10 1 -13 7 -4 10 -7 10 -18 0 -11 -11 -12 -14 -1 -21 11 -6 10 -10 -3
-15 -10 -3 -15 -12 -11 -21 3 -8 3 -15 0 -15 -2 0 -9 10 -14 23 -8 21 -9 21
-9 1 -1 -11 -7 -26 -13 -33 -11 -10 -10 -12 2 -9 10 2 14 -3 12 -14 -2 -13 4
-18 23 -18 27 0 34 -17 10 -26 -11 -5 -12 -11 -5 -25 8 -15 7 -17 -5 -13 -11
5 -14 2 -8 -11 5 -15 2 -17 -15 -13 -13 4 -20 2 -19 -6 1 -6 -6 -10 -16 -8
-11 2 -21 -6 -27 -23 -11 -29 -31 -32 -54 -9 -9 8 -16 11 -16 6 0 -5 -9 -12
-21 -15 -15 -4 -19 -11 -14 -25 7 -26 -25 -38 -55 -22 -20 11 -21 10 -10 -9 7
-13 7 -21 1 -21 -6 0 -8 -8 -5 -17 5 -15 3 -15 -10 1 -9 11 -17 17 -17 13 -1
-4 -2 -11 -3 -16 0 -5 -12 -19 -26 -31 -20 -18 -22 -23 -10 -30 9 -6 10 -10 3
-10 -6 0 -15 4 -18 10 -4 6 -15 2 -27 -10 -24 -22 -38 -26 -38 -9 0 5 5 7 10
4 6 -3 10 1 10 9 0 18 -16 21 -25 6 -4 -6 -12 -5 -21 4 -10 10 -28 13 -59 10
-35 -4 -45 -2 -45 9 0 23 -23 38 -40 26 -12 -8 -11 -9 5 -7 13 2 21 -4 23 -17
3 -11 12 -25 21 -32 10 -8 12 -12 4 -13 -20 0 -15 -20 4 -20 9 0 14 -3 10 -6
-3 -4 -12 -4 -19 -2 -7 3 -17 6 -21 6 -5 0 -15 9 -23 19 -11 14 -13 15 -14 3
0 -13 -1 -13 -10 0 -5 8 -10 10 -10 4 0 -6 10 -19 23 -28 l22 -17 -23 11 c-13
7 -31 8 -40 4 -38 -16 -85 10 -93 51 -2 10 -11 20 -19 22 -11 3 -12 2 -3 -4 7
-5 14 -21 15 -35 1 -15 6 -24 10 -22 14 9 9 -7 -7 -22 -13 -14 -15 -13 -16 3
0 16 -1 16 -8 -2 -5 -11 -6 -24 -3 -29 2 -4 -2 -12 -9 -17 -10 -6 -11 -9 -1
-9 6 0 12 -12 12 -27 0 -21 -3 -24 -10 -13 -5 8 -12 11 -16 8 -9 -9 -33 15
-27 27 2 6 -2 2 -10 -7 -23 -29 -44 -20 -38 15 1 5 -3 6 -8 2 -11 -6 -3 -36
13 -48 6 -5 0 -5 -13 -2 -18 6 -22 4 -16 -6 6 -10 5 -11 -3 -4 -5 6 -12 19
-15 30 -4 15 -5 13 -6 -7 -1 -21 -6 -28 -21 -28 -12 0 -17 5 -14 13 2 7 -1 19
-8 27 -7 9 -12 13 -10 11 1 -3 -10 -12 -24 -22 -21 -13 -30 -14 -39 -6 -7 7
-11 15 -8 20 2 4 -2 7 -10 7 -10 0 -13 -7 -10 -20 3 -11 9 -17 14 -14 5 3 9
-1 9 -8 0 -8 -9 -14 -20 -14 -11 0 -20 6 -20 12 0 9 -9 10 -36 2 -40 -10 -69
-4 -58 13 3 6 19 9 35 5 15 -3 31 -1 34 4 4 6 -1 7 -11 3 -10 -3 -15 -2 -12 3
3 5 -13 9 -36 10 -22 0 -33 -1 -23 -3 9 -3 15 -8 12 -13 -3 -4 -14 -6 -25 -3
-11 3 -20 0 -20 -6 0 -5 6 -8 14 -5 7 3 16 -2 19 -10 8 -19 3 -20 -26 -4 -12
6 -40 10 -61 9 -35 -2 -38 -1 -27 12 9 11 9 17 1 22 -6 4 -14 4 -17 1 -3 -3
-13 0 -22 7 -14 10 -14 10 -3 -5 8 -9 21 -14 30 -11 14 4 14 3 3 -5 -10 -7
-21 -6 -36 4 -12 8 -30 12 -39 8 -9 -3 -16 -1 -16 5 0 6 -7 8 -17 4 -11 -4
-14 -3 -9 5 5 8 2 10 -10 5 -14 -5 -13 -8 7 -19 13 -7 20 -13 16 -14 -12 0
-70 33 -79 45 -5 6 -8 5 -8 -2 0 -7 -7 -13 -15 -13 -8 0 -15 3 -15 8 0 6 -55
8 -70 2 -16 -6 -41 -7 -35 -2 4 4 11 7 16 7 5 0 9 3 9 8 0 30 -1 31 -8 21 -13
-19 -40 -23 -52 -8 -9 10 -9 14 -1 14 6 0 11 -5 11 -12 0 -6 3 -8 6 -5 11 11
-18 38 -33 33 -8 -3 -11 -1 -8 4 3 6 1 10 -4 10 -6 0 -11 -7 -11 -15 0 -8 -5
-15 -11 -15 -5 0 -7 5 -4 10 3 6 -3 10 -15 10 -13 0 -19 -4 -14 -12 5 -7 3 -8
-5 -4 -7 5 -10 13 -8 20 3 6 -3 12 -12 12 -82 4 -108 10 -103 22 3 10 -4 13
-29 11 -23 -2 -33 1 -32 9 3 12 -18 13 -27 0 -3 -3 -14 1 -25 9 -20 16 -20 16
0 9 14 -5 17 -4 9 4 -6 6 -27 11 -47 12 -20 1 -37 6 -37 11 0 5 -11 7 -25 5
-14 -3 -25 -1 -25 5 0 5 -6 4 -14 -2 -10 -8 -16 -9 -21 -1 -3 5 -15 10 -26 10
-11 0 -19 7 -19 16 0 9 5 12 12 8 7 -5 8 -3 3 5 -4 7 -18 11 -31 8 -17 -3 -24
0 -24 11 0 9 -7 13 -20 9 -11 -3 -18 -1 -14 4 3 5 -4 9 -15 9 -25 0 -101 50
-101 67 0 7 -9 13 -20 13 -11 0 -20 3 -20 8 0 12 -50 31 -66 25 -8 -3 -14 0
-14 6 0 6 -12 11 -26 11 -16 0 -23 4 -18 12 4 6 3 8 -4 4 -6 -3 -26 3 -46 15
-19 11 -41 17 -47 13 -8 -5 -9 -3 -4 6 5 9 2 10 -14 5 -13 -4 -21 -2 -21 5 0
6 -6 10 -12 9 -7 -1 -20 0 -28 4 -75 28 -114 36 -132 26 -15 -8 -19 -8 -14 0
7 11 -5 15 -31 12 -8 -1 -10 5 -7 14 7 18 -12 21 -20 3 -3 -9 -10 -7 -23 8
-13 14 -29 20 -51 19 -18 -1 -32 2 -32 6 0 4 -10 5 -22 1 -16 -4 -18 -7 -8
-10 8 -3 23 -11 33 -20 15 -14 17 -13 18 4 0 11 3 13 6 6 2 -6 9 -10 14 -6 5
3 9 0 9 -5 0 -6 9 -11 21 -11 11 0 17 -4 14 -10 -3 -5 3 -10 14 -10 11 0 36
-9 55 -21 20 -12 36 -18 36 -14 0 3 15 -5 33 -19 19 -14 37 -23 40 -19 4 3 7
1 7 -5 0 -7 9 -12 19 -12 11 0 23 -4 26 -10 3 -5 15 -10 26 -10 10 0 19 -4 19
-10 0 -5 6 -10 13 -10 14 0 121 -111 123 -127 0 -4 4 -16 9 -26 5 -12 1 -25
-11 -39 -17 -18 -26 -19 -79 -13 -33 3 -98 9 -145 11 -53 3 -99 12 -122 23
-21 10 -35 14 -32 9 3 -5 -11 1 -30 12 -20 11 -37 19 -39 18 -1 -1 -18 6 -37
14 -35 16 -59 24 -73 27 -4 0 -34 14 -67 31 -33 17 -62 30 -65 31 -2 0 -20 6
-39 14 -20 8 -42 15 -50 15 -8 0 -18 5 -21 10 -3 6 -15 10 -26 10 -10 0 -19 5
-19 10 0 6 -7 10 -15 10 -15 0 -139 50 -295 120 -119 53 -185 81 -188 80 -1 0
-8 4 -15 10 -11 10 -43 31 -87 59 -20 12 -86 41 -95 41 -3 0 -4 -4 -1 -8 3 -5
-5 -8 -17 -7 -12 1 -26 -1 -32 -5 -5 -4 -21 -11 -34 -15 -14 -4 -49 -32 -78
-62 -29 -30 -58 -51 -63 -48 -6 3 -10 -2 -10 -11 0 -10 -3 -15 -6 -12 -3 3
-16 -4 -28 -16 -13 -11 -38 -33 -55 -48 -17 -16 -28 -28 -24 -28 8 0 -22 -19
-67 -42 -14 -7 -29 -18 -33 -25 -5 -8 -13 -11 -18 -7 -6 3 -18 -1 -27 -10 -11
-10 -22 -12 -32 -6 -8 5 -21 5 -32 -1 -10 -5 -18 -6 -18 -2 0 4 -5 1 -10 -7
-8 -13 -10 -12 -11 5 -1 11 -1 24 0 28 1 5 -3 6 -7 3 -15 -9 -53 30 -56 56 -1
13 -5 29 -9 35 -12 19 -25 146 -27 252 0 57 -2 107 -4 110 -5 7 -13 387 -22
931 -6 396 -2 473 33 553 19 45 42 48 136 16z m4887 -1940 c0 -14 -17 -10 -23
5 -4 10 -1 13 9 9 7 -3 14 -9 14 -14z m-89 -10 c13 -11 19 -18 12 -15 -6 4
-14 0 -16 -6 -4 -10 -8 -10 -14 -2 -4 7 -17 14 -28 17 -17 4 -16 5 5 6 20 1
22 3 10 11 -8 5 -10 10 -4 10 7 0 22 -9 35 -21z m-91 -20 c0 -6 -8 -3 -17 7
-16 15 -17 15 -23 -2 -5 -13 -8 -15 -15 -5 -4 8 -2 17 6 21 15 10 49 -5 49
-21z m-253 -115 c-3 -3 -12 -4 -19 -1 -8 3 -5 6 6 6 11 1 17 -2 13 -5z m153
-14 c0 -5 -2 -10 -4 -10 -3 0 -8 5 -11 10 -3 6 -1 10 4 10 6 0 11 -4 11 -10z
m-433 -143 c0 -9 -9 -12 -24 -9 -12 2 -23 8 -23 13 0 5 11 9 23 9 13 0 24 -6
24 -13z m-133 -115 c2 -4 0 -14 -6 -22 -8 -12 -9 -12 -5 2 3 9 1 19 -6 22 -9
3 -9 5 0 5 6 1 14 -3 17 -7z m-229 -22 c-3 -5 -12 -10 -18 -10 -7 0 -6 4 3 10
19 12 23 12 15 0z m-159 -12 c4 -7 3 -8 -4 -4 -7 4 -12 2 -12 -3 0 -6 -8 -11
-17 -11 -16 1 -16 2 1 15 24 18 23 18 32 3z m1521 -725 c-1 -60 -3 -11 -3 107
0 118 2 167 3 108 2 -60 2 -156 0 -215z m-10 -605 c-1 -62 -3 -14 -3 107 0
121 2 172 3 113 2 -59 2 -158 0 -220z m-10 -835 c-1 -59 -3 -13 -3 102 0 116
2 164 3 108 2 -56 2 -151 0 -210z m-10 -700 c-2 -27 -3 -5 -3 47 0 52 1 74 3
48 2 -27 2 -69 0 -95z m-5974 -1765 c12 -6 62 -28 112 -49 49 -20 90 -40 92
-45 4 -13 -93 -74 -116 -74 -11 0 -64 20 -118 44 -54 24 -107 46 -118 50 -16
6 -7 14 50 46 83 46 72 43 98 28z m412 -141 c46 -14 70 -27 70 -37 0 -9 -32
-31 -76 -53 l-75 -38 -113 43 -112 44 71 45 72 46 46 -14 c26 -7 79 -24 117
-36z m154 -85 c20 -11 62 -32 94 -48 85 -42 87 -49 28 -78 -28 -15 -59 -26
-70 -26 -11 0 -55 15 -98 34 -43 19 -96 42 -118 51 l-40 16 75 34 c41 19 79
34 84 34 4 1 25 -7 45 -17z"/>
<path d="M33100 12466 c0 -2 7 -7 16 -10 8 -3 12 -2 9 4 -6 10 -25 14 -25 6z"/>
<path d="M33260 12406 c0 -2 7 -7 16 -10 8 -3 12 -2 9 4 -6 10 -25 14 -25 6z"/>
<path d="M33320 12380 c8 -5 20 -10 25 -10 6 0 3 5 -5 10 -8 5 -19 10 -25 10
-5 0 -3 -5 5 -10z"/>
<path d="M33389 12349 c14 -13 26 -18 32 -12 5 5 -4 14 -23 21 l-31 11 22 -20z"/>
<path d="M33357 12189 c7 -7 15 -10 18 -7 3 3 -2 9 -12 12 -14 6 -15 5 -6 -5z"/>
<path d="M33303 12124 c0 -41 1 -44 8 -21 4 16 4 38 0 50 -6 15 -8 6 -8 -29z"/>
<path d="M33124 12056 c-10 -8 -17 -16 -14 -19 3 -2 14 4 24 14 23 22 18 25
-10 5z"/>
<path d="M33020 12034 c0 -8 -4 -12 -10 -9 -7 4 -7 -3 0 -19 7 -19 6 -26 -2
-26 -6 0 -9 -2 -6 -5 3 -3 16 -1 29 4 17 7 19 10 7 10 -22 1 -23 24 -2 45 14
15 14 16 0 16 -9 0 -16 -7 -16 -16z"/>
<path d="M33196 12035 c4 -8 8 -15 10 -15 2 0 4 7 4 15 0 8 -4 15 -10 15 -5 0
-7 -7 -4 -15z"/>
<path d="M32891 12014 c0 -11 3 -14 6 -6 3 7 2 16 -1 19 -3 4 -6 -2 -5 -13z"/>
<path d="M31282 11996 c7 -8 15 -12 17 -11 5 6 -10 25 -20 25 -5 0 -4 -6 3
-14z"/>
<path d="M32858 12003 c7 -3 16 -2 19 1 4 3 -2 6 -13 5 -11 0 -14 -3 -6 -6z"/>
<path d="M33038 12003 c7 -3 16 -2 19 1 4 3 -2 6 -13 5 -11 0 -14 -3 -6 -6z"/>
<path d="M32920 11991 c0 -8 -7 -11 -17 -6 -15 5 -16 4 -5 -6 9 -10 15 -10 24
-1 6 6 9 15 5 19 -4 3 -7 1 -7 -6z"/>
<path d="M32960 11972 c0 -19 12 -42 22 -42 14 0 5 43 -9 48 -7 2 -13 -1 -13
-6z"/>
<path d="M33060 11966 c0 -2 8 -10 18 -17 15 -13 16 -12 3 4 -13 16 -21 21
-21 13z"/>
<path d="M32896 11943 c-6 -14 -5 -15 5 -6 7 7 10 15 7 18 -3 3 -9 -2 -12 -12z"/>
<path d="M32768 11943 c7 -3 16 -2 19 1 4 3 -2 6 -13 5 -11 0 -14 -3 -6 -6z"/>
<path d="M33000 11939 c0 -5 5 -7 10 -4 6 3 10 8 10 11 0 2 -4 4 -10 4 -5 0
-10 -5 -10 -11z"/>
<path d="M33036 11927 c3 -10 9 -15 12 -12 3 3 0 11 -7 18 -10 9 -11 8 -5 -6z"/>
<path d="M32850 11900 c0 -5 5 -10 11 -10 5 0 7 5 4 10 -3 6 -8 10 -11 10 -2
0 -4 -4 -4 -10z"/>
<path d="M31850 11840 c0 -5 5 -10 10 -10 6 0 10 5 10 10 0 6 -4 10 -10 10 -5
0 -10 -4 -10 -10z"/>
<path d="M32630 11800 c0 -11 4 -20 9 -20 5 0 7 9 4 20 -3 11 -7 20 -9 20 -2
0 -4 -9 -4 -20z"/>
<path d="M32165 11770 c-3 -5 -1 -10 4 -10 6 0 11 5 11 10 0 6 -2 10 -4 10 -3
0 -8 -4 -11 -10z"/>
<path d="M28590 14245 c0 -19 9 -19 34 0 19 14 19 15 -7 15 -17 0 -27 -5 -27
-15z"/>
<path d="M28670 14240 c0 -5 5 -10 10 -10 6 0 10 5 10 10 0 6 -4 10 -10 10 -5
0 -10 -4 -10 -10z"/>
<path d="M28620 14225 c0 -8 5 -15 10 -15 6 0 10 7 10 15 0 8 -4 15 -10 15 -5
0 -10 -7 -10 -15z"/>
<path d="M28413 13725 c0 -22 2 -30 4 -17 2 12 2 30 0 40 -3 9 -5 -1 -4 -23z"/>
<path d="M28412 13655 c0 -16 2 -22 5 -12 2 9 2 23 0 30 -3 6 -5 -1 -5 -18z"/>
<path d="M28412 13595 c0 -16 2 -22 5 -12 2 9 2 23 0 30 -3 6 -5 -1 -5 -18z"/>
<path d="M28412 13525 c0 -16 2 -22 5 -12 2 9 2 23 0 30 -3 6 -5 -1 -5 -18z"/>
<path d="M28411 13294 c0 -11 3 -14 6 -6 3 7 2 16 -1 19 -3 4 -6 -2 -5 -13z"/>
<path d="M28470 12822 c0 -5 7 -9 15 -9 8 0 12 4 9 9 -3 4 -9 8 -15 8 -5 0 -9
-4 -9 -8z"/>
<path d="M27722 12183 c-43 -21 -94 -81 -126 -149 -30 -62 -37 -90 -196 -744
-118 -482 -155 -633 -396 -1620 -64 -261 -168 -680 -232 -930 -105 -415 -115
-463 -116 -550 -2 -152 47 -256 141 -304 27 -13 215 -85 418 -160 322 -119
553 -207 885 -338 66 -26 100 -33 152 -33 59 0 70 3 105 31 89 71 132 168 197
439 20 83 72 296 116 475 44 179 113 467 155 640 87 360 291 1198 435 1785
162 658 180 737 180 806 0 141 -33 187 -158 225 -48 14 -278 88 -512 164 -880
288 -959 307 -1048 263z m271 -100 l158 -47 -6 -27 c-11 -50 -8 -109 8 -132
12 -19 80 -45 354 -135 187 -62 353 -112 371 -112 37 0 93 45 112 90 10 25 17
29 34 24 182 -56 306 -100 328 -115 65 -47 62 -123 -17 -444 -206 -840 -275
-1122 -375 -1535 -183 -759 -362 -1484 -369 -1492 -3 -4 -6 19 -6 50 -1 61 -7
97 -19 109 -10 11 -46 94 -46 108 0 7 -6 18 -14 24 -8 7 -14 25 -14 40 1 15
-6 41 -15 57 -29 56 -48 104 -43 113 3 5 -1 14 -9 21 -8 7 -15 18 -15 24 0 6
-15 43 -34 81 -19 39 -44 93 -56 120 -39 88 -65 140 -72 143 -5 2 -8 10 -8 18
0 19 -60 138 -71 142 -5 2 -9 8 -9 14 0 19 -53 117 -61 113 -4 -3 -10 7 -14
22 -3 16 -10 30 -14 33 -5 3 -22 32 -38 65 -17 33 -37 74 -46 90 -38 72 -55
113 -50 119 4 3 2 6 -3 6 -6 0 -16 17 -23 37 -8 20 -26 58 -42 85 -16 27 -29
54 -29 59 0 14 -33 73 -42 77 -5 2 -8 11 -8 19 0 9 -13 44 -30 79 -16 34 -38
89 -49 121 -11 32 -29 76 -40 97 -11 21 -18 43 -15 47 3 5 1 9 -3 9 -5 0 -15
20 -22 45 -7 25 -22 56 -33 70 -11 14 -16 29 -13 35 3 5 2 10 -3 10 -5 0 -13
10 -17 23 -4 12 -8 24 -10 27 -1 3 -6 20 -10 38 -4 18 -12 35 -16 38 -5 3 -9
16 -9 29 0 13 -4 26 -9 29 -5 4 -17 40 -27 81 -10 41 -21 75 -26 75 -4 0 -8
10 -8 23 0 37 -31 118 -44 114 -6 -2 -19 -19 -28 -38 -10 -19 -18 -32 -18 -29
0 3 24 105 54 225 30 121 84 348 121 505 36 157 75 312 86 345 37 112 107 185
178 185 20 0 107 -21 194 -47z"/>
<path d="M11865 12005 c-71 -13 -131 -24 -133 -24 -2 -1 -2 -11 0 -23 2 -18
10 -24 40 -26 20 -2 42 -10 50 -19 10 -13 14 -104 16 -426 3 -461 5 -450 -68
-462 -34 -6 -40 -10 -40 -31 l0 -24 200 0 200 0 0 24 c0 19 -7 25 -42 32 -65
14 -69 29 -66 239 3 171 4 182 28 224 30 54 75 83 133 83 59 1 85 -16 110 -70
19 -43 21 -65 22 -238 0 -217 -4 -229 -77 -240 -32 -6 -38 -11 -38 -30 l0 -24
200 0 200 0 0 23 c0 19 -8 25 -44 35 -24 6 -47 19 -51 29 -4 10 -11 108 -14
218 -7 215 -13 240 -66 303 -48 57 -98 77 -195 77 -94 0 -125 -12 -179 -65
l-31 -32 0 236 c0 183 -3 236 -12 235 -7 -1 -71 -12 -143 -24z"/>
<path d="M19618 12017 c-135 -38 -218 -156 -218 -309 l0 -58 -70 0 -70 0 0
-35 0 -35 70 0 70 0 0 -239 c0 -143 -4 -250 -11 -269 -10 -30 -48 -52 -90 -52
-14 0 -19 -7 -19 -25 l0 -25 220 0 220 0 0 25 c0 17 -6 25 -17 25 -10 0 -35 5
-55 11 -64 17 -68 34 -68 309 l0 240 105 0 105 0 0 35 0 35 -106 0 -106 0 4
103 c3 80 9 111 26 144 41 80 83 82 158 11 40 -38 62 -51 84 -51 56 0 87 53
60 104 -29 54 -190 85 -292 56z"/>
<path d="M22730 12004 c-69 -13 -126 -23 -127 -23 -2 -1 -3 -12 -3 -26 0 -22
5 -25 33 -25 44 0 57 -11 67 -56 14 -58 13 -764 -1 -803 -9 -26 -19 -34 -55
-43 -36 -10 -44 -16 -44 -35 l0 -23 200 0 200 0 0 24 c0 20 -6 25 -40 31 -66
11 -70 25 -70 220 0 93 5 187 11 208 30 108 164 160 233 91 37 -37 46 -97 46
-291 0 -204 -4 -219 -71 -229 -33 -6 -39 -10 -39 -30 l0 -24 200 0 200 0 0 24
c0 20 -6 25 -39 31 -22 4 -46 14 -53 22 -9 12 -14 72 -18 217 -5 196 -6 202
-34 259 -47 97 -143 146 -261 134 -60 -6 -100 -24 -150 -68 l-35 -31 0 236 c0
183 -3 236 -12 235 -7 -1 -69 -12 -138 -25z"/>
<path d="M10696 11898 c-3 -29 -6 -93 -6 -141 0 -86 1 -88 23 -85 19 3 23 11
28 55 15 118 70 157 224 157 55 1 108 -2 118 -6 16 -7 17 -35 17 -388 0 -411
-2 -424 -53 -447 -13 -6 -45 -15 -71 -18 -40 -6 -46 -10 -46 -31 l0 -24 265 0
265 0 0 24 c0 21 -6 25 -47 31 -66 10 -99 29 -112 66 -7 21 -11 158 -11 405
l0 374 28 7 c15 5 68 8 117 8 148 -1 189 -36 220 -187 4 -22 11 -28 32 -28
l26 0 -6 98 c-4 53 -7 116 -7 140 l0 42 -499 0 -498 0 -7 -52z"/>
<path d="M13710 11926 c0 -20 6 -24 40 -30 74 -12 75 -14 78 -391 2 -181 1
-354 -3 -383 -8 -66 -29 -88 -89 -97 -40 -6 -46 -10 -46 -31 l0 -24 255 0 255
0 0 24 c0 21 -6 24 -56 30 -64 7 -108 27 -119 53 -5 10 -10 91 -13 181 l-4
162 63 0 c124 0 179 -32 200 -114 10 -39 15 -46 35 -46 l24 0 -2 198 c-3 192
-3 197 -24 200 -18 3 -23 -4 -29 -35 -17 -92 -57 -120 -185 -130 l-80 -6 2
194 3 194 133 3 c75 1 150 -2 174 -9 58 -15 94 -55 114 -128 15 -52 21 -61 41
-61 26 0 28 16 17 178 l-7 92 -388 0 -389 0 0 -24z"/>
<path d="M20135 11938 c-2 -7 -5 -70 -8 -140 -4 -127 -4 -128 18 -128 20 0 24
8 33 60 12 68 40 113 82 135 40 21 185 30 238 16 l43 -12 -3 -390 -3 -391 -32
-28 c-23 -21 -46 -30 -87 -35 -50 -7 -56 -10 -56 -31 l0 -24 270 0 270 0 0 24
c0 20 -6 24 -45 29 -60 9 -98 30 -113 62 -9 19 -12 133 -12 406 0 352 1 380
18 387 9 4 62 7 117 7 82 0 106 -4 134 -20 48 -28 73 -66 86 -132 10 -53 14
-58 40 -61 l28 -4 -6 63 c-4 34 -7 97 -7 140 l0 79 -500 0 c-392 0 -501 -3
-505 -12z"/>
<path d="M15616 11772 c-22 -42 -85 -96 -139 -118 -40 -16 -47 -23 -47 -46 0
-26 3 -28 45 -28 l45 0 0 -252 c0 -293 3 -307 80 -345 108 -55 290 -2 265 77
-8 25 -17 25 -40 0 -24 -27 -76 -26 -101 1 -17 19 -19 42 -22 270 l-3 249 71
0 70 0 0 35 0 35 -70 0 -70 0 0 75 0 75 -35 0 c-28 0 -37 -5 -49 -28z"/>
<path d="M12917 11649 c-168 -40 -276 -192 -265 -374 9 -130 75 -231 187 -284
49 -23 69 -26 161 -26 94 0 111 3 160 27 30 15 72 43 93 61 l39 32 -20 25 -20
25 -24 -21 c-38 -35 -107 -65 -163 -71 -131 -14 -217 86 -219 252 l-1 50 225
5 225 5 -1 61 c-2 115 -64 195 -177 229 -55 16 -140 18 -200 4z m171 -105 c27
-29 33 -41 30 -72 -4 -45 -17 -50 -155 -51 -116 -1 -118 1 -84 67 35 69 94
106 151 95 14 -3 40 -20 58 -39z"/>
<path d="M16900 11634 c-63 -12 -116 -23 -117 -23 -2 -1 -3 -9 -3 -18 0 -13
15 -23 48 -33 66 -21 71 -40 71 -285 1 -228 -2 -239 -69 -250 -34 -6 -40 -11
-40 -31 l0 -24 210 0 210 0 0 25 c0 20 -5 25 -24 25 -41 0 -83 20 -95 46 -16
35 -14 226 4 307 16 78 50 144 77 153 12 4 33 -4 57 -20 73 -51 151 -19 151
62 0 108 -159 123 -254 24 -20 -20 -42 -46 -50 -56 -13 -20 -14 -20 -19 0 -3
10 -9 43 -12 72 -4 30 -12 52 -18 51 -7 -1 -64 -12 -127 -25z"/>
<path d="M17687 11649 c-99 -23 -198 -104 -238 -194 -48 -108 -34 -273 30
-362 67 -92 175 -138 310 -131 100 6 159 28 220 83 45 41 46 44 28 69 -12 16
-16 15 -65 -18 -87 -59 -164 -70 -238 -37 -73 33 -112 103 -121 219 l-6 72
216 0 c118 0 222 3 231 6 21 8 21 55 0 125 -41 136 -197 208 -367 168z m163
-94 c24 -22 42 -68 38 -96 -4 -30 -31 -36 -160 -38 -108 -1 -110 0 -84 62 39
92 143 129 206 72z"/>
<path d="M18732 11645 c-73 -20 -108 -40 -162 -91 -67 -63 -101 -143 -101
-236 0 -84 10 -122 45 -182 108 -184 378 -233 558 -101 164 120 187 363 47
506 -96 99 -254 141 -387 104z m185 -87 c53 -32 86 -114 91 -223 6 -125 -14
-194 -73 -252 -40 -40 -46 -43 -99 -43 -52 0 -59 3 -95 39 -51 51 -71 117 -71
231 0 114 20 180 70 230 53 53 109 59 177 18z"/>
<path d="M21460 11647 c-148 -43 -237 -142 -261 -289 -25 -152 48 -301 179
-365 51 -25 67 -28 162 -28 92 0 112 3 160 26 53 24 130 83 130 98 0 3 -7 14
-15 24 -13 18 -16 18 -59 -12 -85 -59 -171 -76 -239 -47 -74 30 -127 132 -127
243 l0 53 219 0 c177 0 221 3 230 14 15 18 1 108 -25 161 -20 42 -75 92 -123
112 -49 21 -176 26 -231 10z m158 -84 c27 -17 55 -75 50 -106 -2 -15 -13 -24
-33 -28 -45 -10 -223 -10 -229 -1 -3 5 6 31 18 59 43 92 121 122 194 76z"/>
<path d="M22193 11650 c-102 -22 -195 -96 -239 -193 -24 -53 -28 -75 -28 -153
-1 -82 2 -96 33 -158 59 -120 164 -180 316 -179 88 1 159 22 226 69 42 29 46
40 26 67 -11 16 -16 15 -69 -13 -95 -52 -199 -53 -259 -2 -47 39 -71 102 -77
202 -9 160 35 268 118 290 55 15 84 -1 133 -70 21 -30 48 -60 60 -67 82 -46
158 38 105 117 -37 56 -119 91 -220 96 -46 2 -102 -1 -125 -6z"/>
<path d="M14530 11625 c0 -26 4 -29 52 -39 15 -4 33 -16 39 -28 7 -13 14 -102
18 -222 6 -177 10 -206 28 -242 28 -53 92 -110 140 -123 101 -28 221 -3 284
60 35 35 37 36 43 16 3 -12 6 -37 6 -54 0 -33 1 -33 48 -33 26 0 84 3 130 7
78 6 82 7 82 29 0 20 -5 24 -33 24 -45 0 -66 18 -77 65 -5 22 -10 158 -10 303
l0 263 -142 -3 -143 -3 0 -25 c0 -21 6 -26 39 -31 65 -11 68 -20 64 -229 -3
-169 -5 -189 -26 -232 -56 -113 -186 -118 -235 -10 -20 43 -22 68 -25 290 l-4
242 -139 0 -139 0 0 -25z"/>
<path d="M15882 11623 c2 -23 8 -29 35 -31 20 -2 40 -13 53 -29 18 -23 20 -40
20 -189 0 -90 5 -186 11 -214 16 -76 64 -140 129 -173 50 -26 63 -28 135 -25
90 5 130 21 188 76 l37 36 0 -26 c0 -14 3 -40 6 -57 6 -29 9 -31 54 -31 26 0
81 3 123 6 72 7 77 8 77 30 0 18 -6 24 -22 24 -38 0 -66 11 -75 28 -4 10 -10
148 -13 307 l-5 290 -143 3 -143 3 3 -28 c2 -22 9 -29 37 -34 61 -13 66 -25
69 -177 6 -214 -18 -307 -90 -353 -40 -24 -108 -21 -139 7 -51 46 -54 63 -57
332 l-4 252 -144 0 -145 0 3 -27z"/>
<path d="M15055 10605 c-71 -13 -131 -24 -132 -24 -2 -1 -3 -9 -3 -20 0 -14
10 -20 40 -25 76 -12 75 -6 75 -456 0 -305 -3 -400 -13 -418 -8 -14 -30 -27
-57 -34 -37 -10 -45 -16 -45 -35 l0 -23 200 0 200 0 0 24 c0 19 -7 25 -34 30
-18 4 -42 16 -52 27 -18 20 -19 47 -22 500 -2 366 -6 479 -15 478 -7 -1 -70
-12 -142 -24z"/>
<path d="M15991 10616 c-56 -31 -66 -99 -22 -148 37 -42 96 -46 135 -9 85 80
-11 213 -113 157z"/>
<path d="M11172 10559 c-281 -36 -462 -266 -439 -559 23 -284 227 -451 537
-437 115 5 191 27 267 78 46 30 44 32 58 -38 6 -28 11 -33 36 -33 l29 0 0 176
0 175 -27 -3 c-23 -3 -31 -12 -51 -65 -30 -80 -88 -145 -160 -180 -50 -24 -69
-28 -147 -28 -79 0 -97 4 -148 29 -102 49 -158 155 -172 322 -24 283 103 484
306 484 138 0 233 -67 284 -202 14 -38 23 -48 40 -48 26 0 30 19 41 208 l7
112 -32 0 c-27 0 -32 -4 -38 -30 -3 -17 -9 -33 -13 -35 -5 -3 -41 11 -82 30
-40 19 -102 39 -138 45 -72 11 -69 11 -158 -1z"/>
<path d="M15547 10361 c-31 -47 -77 -83 -140 -111 -38 -17 -47 -26 -47 -45 0
-23 4 -25 50 -25 l50 0 0 -257 c0 -241 1 -260 20 -291 42 -68 177 -95 265 -52
50 24 74 62 55 85 -11 13 -15 12 -37 -5 -36 -28 -77 -26 -102 6 -20 25 -21 39
-21 270 l0 244 70 0 70 0 0 35 0 35 -70 0 -70 0 0 75 0 75 -34 0 c-28 0 -38
-6 -59 -39z"/>
<path d="M12027 10250 c-52 -13 -130 -54 -170 -90 -19 -16 -49 -58 -68 -92
-31 -58 -34 -70 -34 -153 0 -82 3 -96 33 -157 37 -77 90 -128 172 -167 49 -23
67 -26 160 -26 93 0 112 3 161 26 108 51 178 133 205 241 42 163 -51 337 -214
398 -64 25 -187 34 -245 20z m181 -97 c94 -70 119 -283 50 -422 -30 -61 -77
-91 -139 -91 -93 0 -153 84 -166 232 -6 70 9 174 32 218 48 93 145 121 223 63z"/>
<path d="M12695 10239 c-137 -28 -135 -28 -135 -48 0 -14 10 -20 40 -25 70
-11 74 -26 74 -270 1 -244 -3 -259 -74 -271 -34 -6 -40 -10 -40 -31 l0 -24
200 0 200 0 0 23 c0 19 -8 25 -44 35 -24 6 -47 19 -51 29 -14 33 -18 284 -5
355 22 127 96 187 191 157 84 -27 98 -74 99 -314 0 -199 -5 -216 -68 -229 -35
-7 -42 -13 -42 -32 l0 -24 200 0 200 0 0 24 c0 20 -6 25 -39 31 -22 4 -46 14
-53 22 -9 12 -15 74 -19 217 -7 226 -12 247 -81 322 -93 101 -283 97 -395 -8
l-32 -31 -6 39 c-3 22 -7 45 -8 53 -3 21 -13 21 -112 0z"/>
<path d="M13625 10242 c-99 -48 -141 -159 -96 -257 23 -51 41 -66 158 -140 53
-33 105 -72 116 -87 28 -37 26 -86 -2 -110 -32 -25 -113 -24 -157 2 -31 19
-84 106 -84 137 0 8 -12 13 -30 13 l-30 0 0 -115 c0 -113 0 -115 23 -115 12 0
28 9 35 20 12 20 12 20 54 -1 23 -12 67 -24 99 -26 163 -15 269 58 269 187 0
94 -47 153 -180 228 -36 20 -82 52 -102 70 -31 28 -38 41 -38 73 0 28 6 42 22
53 54 38 128 5 169 -75 15 -30 25 -39 44 -39 25 0 25 1 25 95 0 99 -6 111 -41
79 -16 -14 -20 -14 -51 2 -50 26 -154 29 -203 6z"/>
<path d="M16000 10239 c-58 -10 -120 -21 -137 -24 -23 -4 -33 -11 -33 -24 0
-14 10 -20 44 -25 24 -4 50 -14 58 -23 10 -12 13 -69 13 -243 0 -209 -2 -230
-19 -249 -10 -11 -34 -23 -52 -27 -27 -5 -34 -11 -34 -30 l0 -24 200 0 200 0
0 24 c0 19 -7 25 -42 32 -67 14 -68 19 -68 347 0 223 -3 287 -12 286 -7 -1
-60 -9 -118 -20z"/>
<path d="M16390 10234 c-63 -12 -116 -23 -117 -23 -2 -1 -3 -9 -3 -20 0 -14
10 -20 41 -24 74 -10 74 -10 77 -263 4 -258 1 -267 -68 -279 -34 -6 -40 -10
-40 -31 l0 -24 200 0 200 0 0 24 c0 20 -6 25 -39 31 -64 11 -66 16 -66 224 0
179 1 188 25 235 34 67 69 91 130 90 28 0 59 -8 75 -18 48 -31 58 -74 63 -261
5 -204 -3 -248 -50 -264 -17 -6 -39 -11 -49 -11 -14 0 -19 -7 -19 -25 l0 -25
200 0 200 0 0 25 c0 20 -6 25 -36 31 -57 11 -61 27 -66 239 -6 222 -18 267
-94 334 -97 85 -264 81 -366 -9 -48 -42 -58 -42 -58 -1 0 33 -10 71 -19 70 -3
-1 -58 -12 -121 -25z"/>
<path d="M17420 10251 c-45 -15 -105 -49 -127 -73 -53 -56 -68 -159 -34 -233
18 -41 81 -105 104 -105 7 -1 -11 -12 -38 -25 -78 -38 -106 -106 -70 -175 23
-45 59 -58 237 -84 156 -23 164 -26 190 -55 30 -34 38 -94 17 -133 -30 -55
-207 -79 -295 -39 -54 24 -74 73 -50 120 9 16 25 33 36 36 28 9 21 26 -21 47
-92 48 -189 -10 -189 -112 0 -123 140 -189 377 -178 127 7 203 31 250 80 45
48 53 70 53 138 0 73 -23 125 -75 167 -46 39 -84 50 -230 68 -159 20 -165 22
-165 44 0 29 20 39 95 51 107 16 164 39 211 82 24 22 48 56 55 76 15 45 15
142 0 169 -8 16 -7 24 8 37 26 23 64 20 91 -9 30 -32 73 -33 94 -3 38 53 -1
108 -81 115 -40 4 -58 -1 -107 -26 l-59 -31 -54 26 c-58 29 -173 42 -223 25z
m143 -93 c16 -21 22 -48 25 -110 5 -95 -10 -146 -52 -173 -22 -15 -31 -16 -57
-5 -38 16 -60 58 -66 131 -7 76 2 122 34 159 34 40 85 39 116 -2z"/>
<path d="M14030 10225 c0 -26 4 -29 52 -39 15 -4 33 -16 39 -28 7 -13 14 -102
18 -222 6 -177 10 -206 28 -242 28 -53 92 -110 140 -123 101 -28 221 -3 284
60 35 35 37 36 43 16 3 -12 6 -37 6 -54 0 -33 1 -33 48 -33 26 0 84 3 130 7
78 6 82 7 82 29 0 20 -5 24 -33 24 -45 0 -66 18 -77 65 -5 22 -10 158 -10 303
l0 263 -142 -3 -143 -3 0 -25 c0 -21 6 -26 39 -31 65 -11 68 -20 64 -229 -3
-169 -5 -189 -26 -232 -56 -113 -186 -118 -235 -10 -20 43 -22 68 -25 290 l-4
242 -139 0 -139 0 0 -25z"/>
<path d="M18029 9735 c-14 -8 -32 -28 -39 -44 -27 -66 19 -131 92 -131 87 0
123 102 57 163 -33 30 -69 34 -110 12z"/>
<path d="M12874 8665 c-4 -9 -2 -21 4 -27 15 -15 44 -1 40 19 -4 23 -36 29
-44 8z"/>
<path d="M16714 8665 c-4 -9 -2 -21 4 -27 15 -15 44 -1 40 19 -4 23 -36 29
-44 8z"/>
<path d="M17442 8664 c-12 -8 -22 -26 -22 -40 0 -15 -6 -24 -15 -24 -8 0 -15
-9 -15 -20 0 -11 7 -20 15 -20 12 0 15 -16 15 -85 0 -84 0 -85 25 -85 25 0 25
1 25 85 0 78 2 85 20 85 13 0 20 7 20 20 0 13 -7 20 -20 20 -25 0 -27 28 -2
37 20 8 33 24 26 35 -8 13 -48 9 -72 -8z"/>
<path d="M17554 8665 c-8 -19 3 -35 26 -35 19 0 34 25 24 41 -8 14 -44 10 -50
-6z"/>
<path d="M10700 8598 c10 -35 28 -96 40 -136 20 -69 23 -73 47 -70 24 3 29 11
51 91 14 48 28 87 31 87 4 0 18 -40 31 -90 23 -84 26 -90 50 -90 27 0 31 9 98
253 4 15 0 18 -24 15 -27 -3 -30 -7 -49 -90 -11 -48 -23 -89 -26 -92 -3 -4
-16 37 -30 89 -22 90 -25 95 -50 95 -25 0 -28 -5 -49 -87 -13 -49 -26 -92 -30
-96 -4 -4 -12 18 -19 50 -28 131 -29 133 -60 133 l-29 0 18 -62z"/>
<path d="M14540 8525 l0 -135 24 0 c22 0 24 4 28 71 3 55 8 74 23 85 24 18 30
18 49 -2 12 -11 16 -35 16 -85 0 -67 1 -69 25 -69 25 0 25 1 25 84 0 79 -2 86
-26 105 -15 12 -34 21 -44 21 -10 0 -29 -9 -44 -21 l-26 -20 0 50 c0 48 -2 51
-25 51 l-25 0 0 -135z"/>
<path d="M16450 8525 l0 -135 25 0 25 0 0 135 0 135 -25 0 -25 0 0 -135z"/>
<path d="M12640 8625 c0 -16 -6 -25 -15 -25 -8 0 -15 -9 -15 -20 0 -11 7 -20
15 -20 12 0 15 -14 15 -69 0 -79 13 -101 61 -101 22 0 29 5 29 19 0 10 -9 21
-20 24 -17 4 -20 14 -20 66 0 54 2 61 20 61 13 0 20 7 20 20 0 13 -7 20 -20
20 -15 0 -20 7 -20 25 0 20 -5 25 -25 25 -20 0 -25 -5 -25 -25z"/>
<path d="M13450 8626 c0 -13 -7 -26 -15 -30 -8 -3 -15 -12 -15 -21 0 -8 7 -15
15 -15 12 0 15 -14 15 -65 0 -75 20 -105 69 -105 24 0 28 3 24 20 -3 11 -11
20 -18 20 -18 0 -25 23 -25 81 0 42 3 49 20 49 13 0 20 7 20 20 0 13 -7 20
-20 20 -15 0 -20 7 -20 25 0 20 -5 25 -25 25 -20 0 -25 -5 -25 -24z"/>
<path d="M14410 8625 c0 -16 -6 -25 -15 -25 -8 0 -15 -9 -15 -19 0 -10 7 -21
15 -25 11 -4 15 -22 15 -75 0 -77 10 -91 65 -91 21 0 26 4 21 16 -3 9 -6 18
-6 20 0 2 -7 4 -15 4 -12 0 -15 14 -15 65 0 58 2 65 20 65 12 0 20 7 20 16 0
9 -9 18 -20 21 -13 3 -20 14 -20 29 0 19 -5 24 -25 24 -20 0 -25 -5 -25 -25z"/>
<path d="M16570 8626 c0 -13 -7 -26 -15 -30 -8 -3 -15 -12 -15 -21 0 -8 7 -15
15 -15 12 0 15 -14 15 -65 0 -75 20 -105 69 -105 24 0 28 3 24 20 -3 11 -11
20 -18 20 -18 0 -25 23 -25 81 0 42 3 49 20 49 13 0 20 7 20 20 0 13 -7 20
-20 20 -15 0 -20 7 -20 25 0 20 -5 25 -25 25 -20 0 -25 -5 -25 -24z"/>
<path d="M11144 8591 c-34 -15 -54 -52 -54 -99 0 -91 105 -138 168 -74 l27 27
-24 3 c-13 2 -28 -1 -34 -7 -25 -25 -87 -6 -87 26 0 9 19 13 70 13 l70 0 0 29
c0 61 -77 107 -136 82z m74 -43 c25 -25 13 -38 -33 -38 -30 0 -45 4 -45 13 0
19 21 37 45 37 12 0 26 -5 33 -12z"/>
<path d="M11470 8593 c-21 -8 -50 -34 -50 -45 0 -12 44 -10 57 3 6 6 21 9 34
7 34 -4 33 -42 -1 -46 -48 -5 -69 -12 -84 -28 -52 -52 41 -127 96 -77 17 15
18 15 18 0 0 -11 8 -17 25 -17 25 0 25 1 25 83 0 69 -3 87 -19 101 -20 18 -77
29 -101 19z m70 -128 c0 -35 -43 -56 -67 -32 -13 13 -14 19 -4 31 11 13 22 17
64 25 4 0 7 -10 7 -24z"/>
<path d="M11650 8495 l0 -105 25 0 c24 0 25 2 25 68 0 70 10 92 42 92 9 0 22
8 27 19 19 35 -17 43 -49 11 l-20 -20 0 20 c0 15 -7 20 -25 20 l-25 0 0 -105z"/>
<path d="M11864 8591 c-34 -15 -54 -52 -54 -99 0 -91 105 -138 168 -74 l27 27
-24 3 c-13 2 -28 -1 -34 -7 -25 -25 -87 -6 -87 26 0 9 19 13 70 13 l70 0 0 29
c0 61 -77 107 -136 82z m74 -43 c25 -25 13 -38 -33 -38 -30 0 -45 4 -45 13 0
19 21 37 45 37 12 0 26 -5 33 -12z"/>
<path d="M12140 8495 l0 -105 25 0 c24 0 25 2 25 68 0 54 4 72 18 85 44 40 72
7 72 -84 0 -67 1 -69 25 -69 24 0 25 2 25 73 0 83 -14 118 -53 131 -22 8 -33
6 -57 -12 -30 -22 -30 -22 -30 -2 0 15 -7 20 -25 20 l-25 0 0 -105z"/>
<path d="M12434 8591 c-34 -15 -54 -52 -54 -99 0 -58 41 -102 95 -102 117 0
131 190 15 205 -19 3 -45 1 -56 -4z m76 -50 c25 -47 5 -111 -35 -111 -27 0
-45 25 -45 65 0 40 18 65 45 65 14 0 29 -8 35 -19z"/>
<path d="M12870 8486 c0 -89 -3 -116 -15 -126 -23 -19 -18 -40 8 -40 48 0 57
26 57 158 l0 122 -25 0 -25 0 0 -114z"/>
<path d="M12980 8515 c0 -94 16 -125 65 -125 14 0 34 9 45 20 l20 20 0 -20 c0
-15 7 -20 25 -20 l25 0 0 105 0 105 -25 0 c-24 0 -25 -2 -25 -75 0 -70 -2 -76
-25 -87 -42 -19 -55 3 -55 88 0 72 -1 74 -25 74 -25 0 -25 -1 -25 -85z"/>
<path d="M13250 8588 c-17 -9 -26 -23 -28 -44 -4 -37 10 -50 69 -67 49 -14 59
-31 29 -47 -17 -9 -26 -8 -45 4 -27 18 -65 21 -65 7 0 -21 54 -51 90 -51 45 0
90 32 90 65 0 29 -15 41 -73 55 -35 9 -47 17 -47 31 0 14 7 19 29 19 17 0 33
-4 36 -10 9 -15 45 -12 45 4 0 35 -85 57 -130 34z"/>
<path d="M13723 8590 c-12 -5 -27 -18 -33 -29 -9 -18 -8 -21 13 -21 12 0 28 5
34 11 18 18 58 7 58 -16 0 -15 -9 -21 -45 -27 -72 -12 -100 -68 -52 -105 22
-18 67 -16 86 2 8 8 17 15 20 15 3 0 6 -7 6 -15 0 -8 9 -15 20 -15 19 0 20 7
20 90 0 89 0 90 -30 105 -32 17 -64 18 -97 5z m77 -125 c0 -35 -43 -56 -67
-32 -13 13 -14 19 -4 31 11 13 22 17 64 25 4 0 7 -10 7 -24z"/>
<path d="M13910 8495 l0 -105 25 0 c24 0 25 2 25 69 0 70 14 101 44 101 26 0
36 -26 36 -97 0 -71 1 -73 25 -73 25 0 25 1 25 89 0 82 -2 91 -22 105 -30 22
-60 20 -86 -4 l-22 -21 0 21 c0 15 -7 20 -25 20 l-25 0 0 -105z"/>
<path d="M14205 8591 c-73 -32 -83 -151 -15 -186 75 -39 150 5 150 89 0 32 -6
52 -22 71 -25 28 -79 41 -113 26z m69 -47 c33 -32 13 -114 -27 -114 -34 0 -47
19 -47 65 0 61 38 86 74 49z"/>
<path d="M14834 8591 c-34 -15 -54 -52 -54 -99 0 -91 105 -138 168 -74 l27 27
-24 3 c-13 2 -28 -1 -34 -7 -25 -25 -87 -6 -87 26 0 9 19 13 70 13 l70 0 0 29
c0 61 -77 107 -136 82z m74 -43 c25 -25 13 -38 -33 -38 -30 0 -45 4 -45 13 0
19 21 37 45 37 12 0 26 -5 33 -12z"/>
<path d="M15020 8495 l0 -105 25 0 c24 0 25 2 25 68 0 70 10 92 42 92 9 0 22
8 27 19 19 35 -17 43 -49 11 l-20 -20 0 20 c0 15 -7 20 -25 20 l-25 0 0 -105z"/>
<path d="M15321 8586 c-48 -27 -64 -91 -36 -146 19 -36 43 -50 90 -50 35 0 85
35 85 60 0 15 -46 12 -60 -5 -27 -33 -80 0 -80 50 0 50 53 83 80 50 13 -15 60
-21 60 -7 -1 13 -24 38 -47 50 -28 15 -62 15 -92 -2z"/>
<path d="M15549 8585 c-85 -46 -49 -195 47 -195 46 0 70 14 89 50 50 98 -42
196 -136 145z m85 -47 c9 -12 16 -32 16 -43 0 -29 -28 -65 -50 -65 -22 0 -50
36 -50 65 0 29 28 65 50 65 10 0 26 -10 34 -22z"/>
<path d="M15750 8495 l0 -105 25 0 c24 0 25 2 25 75 0 64 3 76 20 85 14 8 26
8 40 0 17 -9 20 -21 20 -85 0 -73 1 -75 25 -75 25 0 25 1 25 85 0 72 -3 88
-20 105 -26 26 -64 26 -91 -1 l-20 -20 -6 20 c-3 12 -14 21 -24 21 -17 0 -19
-9 -19 -105z"/>
<path d="M16020 8588 c-17 -9 -26 -23 -28 -44 -4 -37 10 -50 69 -67 49 -14 59
-31 29 -47 -17 -9 -26 -8 -45 4 -27 18 -65 21 -65 7 0 -21 54 -51 90 -51 45 0
90 32 90 65 0 29 -15 41 -73 55 -35 9 -47 17 -47 31 0 14 7 19 29 19 17 0 33
-4 36 -10 9 -15 45 -12 45 4 0 35 -85 57 -130 34z"/>
<path d="M16210 8515 c0 -94 16 -125 65 -125 14 0 34 9 45 20 11 11 22 20 25
20 3 0 5 -9 5 -20 0 -13 7 -20 20 -20 19 0 20 7 20 105 l0 105 -25 0 c-24 0
-25 -2 -25 -75 0 -64 -3 -76 -20 -85 -14 -8 -26 -8 -40 0 -17 9 -20 21 -20 85
0 73 -1 75 -25 75 -25 0 -25 -1 -25 -85z"/>
<path d="M16710 8495 l0 -105 25 0 25 0 0 105 0 105 -25 0 -25 0 0 -105z"/>
<path d="M16820 8495 l0 -105 25 0 c24 0 25 2 25 69 0 70 14 101 44 101 26 0
36 -26 36 -97 0 -71 1 -73 25 -73 25 0 25 1 25 89 0 82 -2 91 -22 105 -30 22
-60 20 -86 -4 l-22 -21 0 21 c0 15 -7 20 -25 20 l-25 0 0 -105z"/>
<path d="M17093 8585 c-47 -33 -49 -150 -3 -175 28 -15 71 -12 92 7 17 15 18
15 18 -13 0 -17 -5 -35 -12 -42 -15 -15 -60 -16 -75 -1 -6 6 -21 8 -33 4 -20
-6 -21 -8 -4 -26 35 -39 141 -32 164 11 6 10 10 71 10 134 l0 116 -25 0 c-19
0 -25 -5 -25 -22 l0 -21 -23 21 c-27 26 -54 28 -84 7z m91 -41 c32 -31 10
-114 -30 -114 -24 0 -44 31 -44 69 0 57 39 81 74 45z"/>
<path d="M17557 8593 c-4 -3 -7 -51 -7 -105 0 -98 0 -98 25 -98 l25 0 0 105
c0 95 -2 105 -18 105 -10 0 -22 -3 -25 -7z"/>
<path d="M17660 8495 l0 -105 25 0 c24 0 25 3 25 61 0 72 12 99 44 99 15 0 26
7 29 19 9 37 -21 43 -53 9 l-20 -22 0 22 c0 17 -6 22 -25 22 l-25 0 0 -105z"/>
<path d="M17830 8495 l0 -105 25 0 c24 0 25 2 25 69 0 50 4 74 16 85 18 18 23
19 44 6 10 -6 16 -32 18 -84 4 -65 7 -76 22 -76 15 0 18 11 22 76 2 52 8 78
18 84 21 13 26 12 44 -6 12 -11 16 -35 16 -85 0 -68 1 -69 26 -69 l26 0 -4 91
c-2 76 -6 93 -22 105 -27 19 -62 18 -84 -4 -18 -18 -19 -18 -42 0 -29 24 -49
23 -77 -4 l-23 -21 0 21 c0 17 -6 22 -25 22 l-25 0 0 -105z"/>
<path d="M18380 8598 c0 -2 13 -48 29 -103 27 -97 29 -100 56 -100 26 0 30 5
44 57 9 31 19 59 22 63 4 3 15 -24 24 -60 17 -60 20 -65 45 -65 26 0 29 5 54
95 32 115 32 115 2 115 -21 0 -25 -7 -36 -62 -7 -35 -16 -67 -20 -71 -4 -5
-15 24 -25 63 -16 67 -19 71 -44 68 -24 -3 -27 -9 -40 -70 -8 -38 -17 -68 -21
-68 -4 0 -14 30 -22 68 -13 61 -16 67 -41 70 -15 2 -27 2 -27 0z"/>
<path d="M18774 8591 c-34 -15 -54 -52 -54 -99 0 -91 105 -138 168 -74 l27 27
-24 3 c-13 2 -28 -1 -34 -7 -25 -25 -87 -6 -87 26 0 9 19 13 70 13 l70 0 0 29
c0 61 -77 107 -136 82z m74 -43 c25 -25 13 -38 -33 -38 -30 0 -45 4 -45 13 0
19 21 37 45 37 12 0 26 -5 33 -12z"/>
<path d="M19100 8593 c-21 -8 -50 -34 -50 -45 0 -12 44 -10 57 3 6 6 21 9 34
7 34 -4 33 -42 -1 -46 -48 -5 -69 -12 -84 -28 -52 -52 41 -127 96 -77 17 15
18 15 18 0 0 -11 8 -17 25 -17 25 0 25 1 25 83 0 69 -3 87 -19 101 -20 18 -77
29 -101 19z m70 -128 c0 -35 -43 -56 -67 -32 -13 13 -14 19 -4 31 11 13 22 17
64 25 4 0 7 -10 7 -24z"/>
<path d="M19280 8495 l0 -105 25 0 c24 0 25 2 25 68 0 77 5 89 40 93 32 5 43
49 11 49 -11 0 -26 -9 -34 -20 l-14 -21 -6 21 c-3 12 -13 20 -26 20 -20 0 -21
-5 -21 -105z"/>
<path d="M19494 8591 c-34 -15 -54 -52 -54 -99 0 -91 105 -138 168 -74 l27 27
-24 3 c-13 2 -28 -1 -34 -7 -25 -25 -87 -6 -87 26 0 9 19 13 70 13 l70 0 0 29
c0 61 -77 107 -136 82z m74 -43 c25 -25 13 -38 -33 -38 -30 0 -45 4 -45 13 0
19 21 37 45 37 12 0 26 -5 33 -12z"/>
<path d="M18194 8575 c-4 -9 -2 -21 4 -27 16 -16 47 -5 47 17 0 26 -42 34 -51
10z"/>
<path d="M18196 8389 c-9 -47 -7 -59 7 -59 8 0 19 17 25 39 15 50 15 51 -7 51
-13 0 -20 -10 -25 -31z"/>
<path d="M14104 8135 c-4 -9 -2 -21 4 -27 15 -15 44 -1 40 19 -4 23 -36 29
-44 8z"/>
<path d="M19404 8135 c-4 -9 -2 -21 4 -27 15 -15 44 -1 40 19 -4 23 -36 29
-44 8z"/>
<path d="M20624 8124 c-16 -8 -38 -28 -47 -43 -21 -36 -22 -122 -2 -161 44
-85 183 -75 221 15 52 126 -56 246 -172 189z m111 -54 c26 -29 26 -114 -1
-140 -31 -30 -74 -30 -104 0 -32 32 -24 127 14 152 22 15 73 8 91 -12z"/>
<path d="M11350 7995 l0 -135 25 0 c16 0 25 6 25 15 0 8 3 15 6 15 3 0 12 -7
20 -15 39 -39 110 2 119 70 7 51 -19 106 -57 119 -23 8 -34 6 -58 -12 l-30
-23 0 51 c0 47 -2 50 -25 50 l-25 0 0 -135z m128 23 c7 -7 12 -30 12 -53 0
-44 -13 -65 -41 -65 -27 0 -49 28 -49 62 0 53 47 87 78 56z"/>
<path d="M11600 7995 l0 -135 25 0 25 0 0 135 0 135 -25 0 -25 0 0 -135z"/>
<path d="M12930 7995 l0 -135 25 0 25 0 0 135 0 135 -25 0 -25 0 0 -135z"/>
<path d="M16980 8084 c0 -45 0 -45 -22 -30 -33 23 -56 20 -89 -13 -33 -34 -39
-92 -14 -140 21 -42 80 -57 105 -26 7 8 16 15 21 15 5 0 9 -7 9 -15 0 -9 9
-15 25 -15 l25 0 0 135 0 135 -30 0 c-29 0 -30 -2 -30 -46z m-9 -70 c7 -9 13
-31 13 -49 0 -38 -18 -65 -45 -65 -21 0 -49 36 -49 65 0 51 53 83 81 49z"/>
<path d="M18490 8080 l0 -50 -21 21 c-16 16 -29 20 -53 15 -47 -9 -66 -39 -66
-103 0 -44 5 -58 25 -78 28 -29 61 -32 93 -9 20 14 22 14 22 0 0 -10 9 -16 25
-16 l25 0 0 135 0 135 -25 0 c-23 0 -25 -3 -25 -50z m-16 -66 c19 -18 21 -85
4 -102 -18 -18 -56 -14 -68 7 -23 45 -3 111 35 111 7 0 21 -7 29 -16z"/>
<path d="M19060 8078 l0 -51 -23 21 c-43 41 -99 19 -117 -46 -25 -96 49 -175
118 -126 20 14 22 14 22 0 0 -10 9 -16 25 -16 l25 0 0 135 0 135 -25 0 c-23 0
-25 -3 -25 -52z m-16 -64 c33 -32 13 -114 -27 -114 -34 0 -47 19 -47 65 0 61
38 86 74 49z"/>
<path d="M15400 8095 c0 -16 -6 -25 -15 -25 -8 0 -15 -9 -15 -20 0 -11 7 -20
15 -20 12 0 15 -14 15 -68 0 -77 16 -102 63 -102 33 0 38 35 7 43 -17 4 -20
14 -20 66 0 54 2 61 20 61 13 0 20 7 20 20 0 13 -7 20 -20 20 -15 0 -20 7 -20
25 0 20 -5 25 -25 25 -20 0 -25 -5 -25 -25z"/>
<path d="M17200 8095 c0 -16 -6 -25 -15 -25 -8 0 -15 -9 -15 -20 0 -11 7 -20
15 -20 12 0 15 -14 15 -68 0 -77 16 -102 63 -102 33 0 38 35 7 43 -17 4 -20
14 -20 66 0 54 2 61 20 61 13 0 20 7 20 20 0 13 -7 20 -20 20 -15 0 -20 7 -20
25 0 20 -5 25 -25 25 -20 0 -25 -5 -25 -25z"/>
<path d="M17980 8096 c0 -13 -7 -26 -15 -30 -8 -3 -15 -12 -15 -21 0 -8 7 -15
15 -15 12 0 15 -14 15 -65 0 -75 20 -105 69 -105 24 0 28 3 24 20 -3 11 -11
20 -18 20 -18 0 -25 23 -25 81 0 42 3 49 20 49 13 0 20 7 20 20 0 13 -7 20
-20 20 -15 0 -20 7 -20 25 0 20 -5 25 -25 25 -20 0 -25 -5 -25 -24z"/>
<path d="M10700 7930 l0 -140 25 0 c23 0 25 3 25 51 0 50 0 50 22 35 32 -23
65 -20 93 9 20 20 25 34 25 77 0 63 -21 95 -66 104 -25 5 -37 1 -53 -15 -21
-21 -21 -21 -21 -1 0 15 -7 20 -25 20 l-25 0 0 -140z m124 84 c33 -32 13 -114
-27 -114 -33 0 -47 19 -47 61 0 38 20 69 45 69 7 0 21 -7 29 -16z"/>
<path d="M10940 7965 l0 -105 25 0 c24 0 25 3 25 61 0 72 12 99 44 99 15 0 26
7 29 19 9 37 -21 43 -53 9 l-20 -22 0 22 c0 17 -6 22 -25 22 l-25 0 0 -105z"/>
<path d="M11149 8055 c-85 -46 -49 -195 47 -195 46 0 70 14 89 50 50 98 -42
196 -136 145z m85 -47 c9 -12 16 -32 16 -43 0 -29 -28 -65 -50 -65 -22 0 -50
36 -50 65 0 29 28 65 50 65 10 0 26 -10 34 -22z"/>
<path d="M11754 8060 c-54 -22 -75 -124 -34 -168 39 -41 126 -41 155 1 15 21
14 22 -6 25 -12 2 -26 -1 -32 -7 -25 -25 -87 -6 -87 26 0 9 19 13 70 13 63 0
70 2 70 20 0 69 -71 117 -136 90z m74 -42 c25 -25 13 -38 -33 -38 -30 0 -45 4
-45 13 0 19 21 37 45 37 12 0 26 -5 33 -12z"/>
<path d="M11940 7965 l0 -105 25 0 c24 0 25 2 25 74 0 81 16 110 48 89 13 -8
18 -28 20 -87 3 -73 4 -76 27 -76 24 0 25 2 25 74 0 81 16 110 48 89 13 -8 18
-28 20 -87 3 -73 4 -76 27 -76 25 0 25 1 25 89 0 82 -2 91 -22 105 -29 21 -51
20 -78 -2 -23 -18 -24 -18 -42 0 -24 24 -53 23 -79 -3 l-20 -20 -6 20 c-3 12
-14 21 -24 21 -17 0 -19 -9 -19 -105z"/>
<path d="M12515 8061 c-30 -13 -47 -37 -43 -63 3 -22 27 -39 83 -55 16 -5 31
-16 33 -24 4 -24 -27 -32 -54 -14 -32 21 -66 20 -62 -2 7 -37 89 -55 137 -30
39 20 45 54 16 83 -13 13 -35 24 -48 24 -30 0 -62 23 -53 38 9 15 53 16 61 2
7 -12 55 -13 55 -2 0 32 -84 61 -125 43z"/>
<path d="M12744 8061 c-34 -15 -54 -52 -54 -99 0 -58 41 -102 95 -102 117 0
131 190 15 205 -19 3 -45 1 -56 -4z m76 -50 c25 -47 5 -111 -35 -111 -27 0
-45 25 -45 65 0 40 18 65 45 65 14 0 29 -8 35 -19z"/>
<path d="M13030 8063 c0 -5 14 -52 32 -105 32 -95 34 -98 63 -98 30 0 32 2 63
98 18 54 32 101 32 105 0 4 -11 7 -23 7 -21 0 -27 -9 -46 -75 -12 -41 -24 -75
-26 -75 -2 0 -14 34 -26 75 -19 66 -25 75 -46 75 -12 0 -23 -3 -23 -7z"/>
<path d="M13309 8055 c-56 -31 -64 -129 -14 -172 34 -30 93 -31 129 -2 14 11
26 25 26 30 0 12 -47 12 -55 -1 -11 -18 -64 -11 -75 9 -5 11 -10 22 -10 25 0
3 32 6 70 6 l70 0 0 29 c0 65 -83 109 -141 76z m75 -31 c9 -3 16 -15 16 -25 0
-16 -8 -19 -45 -19 -49 0 -50 1 -35 31 11 19 35 24 64 13z"/>
<path d="M13500 7965 l0 -105 25 0 c24 0 25 3 25 61 0 72 12 99 44 99 15 0 26
7 29 19 9 37 -21 43 -53 9 l-20 -22 0 22 c0 17 -6 22 -25 22 l-25 0 0 -105z"/>
<path d="M13700 8058 c-17 -9 -26 -23 -28 -44 -4 -37 10 -50 69 -67 49 -14 59
-31 29 -47 -17 -9 -26 -8 -45 4 -27 18 -65 21 -65 7 0 -21 54 -51 90 -51 45 0
90 32 90 65 0 29 -15 41 -73 55 -35 9 -47 17 -47 31 0 14 7 19 29 19 17 0 33
-4 36 -10 9 -15 45 -12 45 4 0 35 -85 57 -130 34z"/>
<path d="M14100 7965 l0 -105 25 0 25 0 0 105 0 105 -25 0 -25 0 0 -105z"/>
<path d="M14210 7965 l0 -105 25 0 c24 0 25 2 25 69 0 70 14 101 44 101 26 0
36 -26 36 -97 0 -71 1 -73 25 -73 25 0 25 1 25 89 0 82 -2 91 -22 105 -30 22
-60 20 -86 -4 l-22 -21 0 21 c0 15 -7 20 -25 20 l-25 0 0 -105z"/>
<path d="M14450 7965 l0 -105 25 0 c24 0 25 2 25 68 0 54 4 72 18 85 44 40 72
7 72 -84 0 -67 1 -69 25 -69 24 0 25 2 25 73 0 83 -14 118 -53 131 -22 8 -33
6 -57 -12 -30 -22 -30 -22 -30 -2 0 15 -7 20 -25 20 l-25 0 0 -105z"/>
<path d="M14744 8061 c-34 -15 -54 -52 -54 -99 0 -58 41 -102 95 -102 117 0
131 190 15 205 -19 3 -45 1 -56 -4z m76 -50 c25 -47 5 -111 -35 -111 -27 0
-45 25 -45 65 0 40 18 65 45 65 14 0 29 -8 35 -19z"/>
<path d="M14920 8061 c0 -5 15 -51 34 -102 31 -88 36 -94 63 -97 29 -3 30 -1
66 103 l37 106 -27 -3 c-24 -3 -30 -11 -48 -70 -11 -37 -23 -69 -26 -72 -3 -4
-16 27 -28 69 -20 67 -25 75 -47 75 -13 0 -24 -4 -24 -9z"/>
<path d="M15210 8063 c-21 -8 -50 -34 -50 -45 0 -12 44 -10 57 3 6 6 21 9 34
7 34 -4 33 -42 -1 -46 -48 -5 -69 -12 -84 -28 -52 -52 41 -127 96 -77 17 15
18 15 18 0 0 -11 8 -17 25 -17 25 0 25 1 25 83 0 69 -3 87 -19 101 -20 18 -77
29 -101 19z m70 -128 c0 -35 -43 -56 -67 -32 -13 13 -14 19 -4 31 11 13 22 17
64 25 4 0 7 -10 7 -24z"/>
<path d="M15579 8055 c-85 -46 -49 -195 47 -195 46 0 70 14 89 50 50 98 -42
196 -136 145z m85 -47 c9 -12 16 -32 16 -43 0 -29 -28 -65 -50 -65 -22 0 -50
36 -50 65 0 29 28 65 50 65 10 0 26 -10 34 -22z"/>
<path d="M15780 7965 l0 -105 25 0 c24 0 25 2 25 68 0 70 10 92 42 92 9 0 22
8 27 19 19 35 -17 43 -49 11 l-20 -20 0 20 c0 15 -7 20 -25 20 l-25 0 0 -105z"/>
<path d="M15983 8060 c-44 -18 -53 -79 -15 -99 9 -4 33 -11 54 -15 42 -8 56
-31 27 -47 -16 -8 -26 -7 -44 5 -40 26 -77 20 -57 -10 27 -40 111 -46 147 -9
44 43 29 73 -47 95 -61 18 -72 43 -20 48 18 2 32 -1 32 -7 0 -6 11 -11 25 -11
37 0 30 26 -12 49 -25 13 -59 13 -90 1z"/>
<path d="M16430 8063 c-21 -8 -50 -34 -50 -45 0 -11 48 -10 55 2 10 16 55 12
62 -5 8 -22 1 -26 -53 -36 -58 -11 -74 -24 -74 -59 0 -52 61 -78 108 -44 20
14 22 14 22 0 0 -10 9 -16 25 -16 25 0 25 1 25 83 0 69 -3 87 -19 101 -20 18
-77 29 -101 19z m70 -122 c0 -20 -24 -51 -40 -51 -48 0 -54 45 -7 59 46 13 47
13 47 -8z"/>
<path d="M16607 8063 c-4 -3 -7 -51 -7 -105 0 -98 0 -98 25 -98 24 0 25 3 25
58 0 90 35 136 74 97 12 -12 16 -35 16 -86 0 -67 1 -69 25 -69 25 0 25 1 25
80 0 73 -3 83 -25 105 -30 30 -54 31 -89 4 l-26 -20 0 20 c0 20 -28 30 -43 14z"/>
<path d="M17340 7965 l0 -105 25 0 c24 0 25 2 25 68 0 70 10 92 42 92 9 0 22
8 27 19 19 35 -17 43 -49 11 l-20 -20 0 20 c0 15 -7 20 -25 20 l-25 0 0 -105z"/>
<path d="M17510 7985 c0 -94 16 -125 65 -125 14 0 34 9 45 20 l20 20 0 -20 c0
-15 7 -20 25 -20 l25 0 0 105 0 105 -25 0 c-24 0 -25 -2 -25 -75 0 -70 -2 -76
-25 -87 -42 -19 -55 3 -55 88 0 72 -1 74 -25 74 -25 0 -25 -1 -25 -85z"/>
<path d="M17780 8058 c-17 -9 -26 -23 -28 -44 -4 -37 10 -50 69 -67 49 -14 59
-31 29 -47 -17 -9 -26 -8 -45 4 -27 18 -65 21 -65 7 0 -21 54 -51 90 -51 45 0
90 32 90 65 0 29 -15 41 -73 55 -35 9 -47 17 -47 31 0 14 7 19 29 19 17 0 33
-4 36 -10 9 -15 45 -12 45 4 0 35 -85 57 -130 34z"/>
<path d="M18152 8045 c-75 -63 -33 -185 63 -185 40 0 84 28 85 53 0 11 -48 9
-55 -3 -11 -18 -64 -11 -75 9 -5 11 -10 22 -10 25 0 3 34 6 75 6 41 0 75 3 75
8 0 4 -5 24 -11 44 -18 66 -94 88 -147 43z m98 -34 c15 -29 14 -31 -33 -31
-53 0 -62 8 -40 32 21 24 60 23 73 -1z"/>
<path d="M18733 8060 c-12 -5 -27 -18 -33 -29 -9 -18 -8 -21 13 -21 12 0 28 5
34 11 18 18 58 7 58 -16 0 -15 -9 -21 -45 -27 -72 -12 -100 -68 -52 -105 22
-18 67 -16 86 2 8 8 17 15 20 15 3 0 6 -7 6 -15 0 -8 9 -15 20 -15 19 0 20 7
20 90 0 89 0 90 -30 105 -32 17 -64 18 -97 5z m77 -125 c0 -35 -43 -56 -67
-32 -13 13 -14 19 -4 31 11 13 22 17 64 25 4 0 7 -10 7 -24z"/>
<path d="M19187 7965 c35 -105 35 -106 65 -103 28 3 32 9 64 98 19 52 34 98
34 103 0 4 -11 7 -25 7 -22 0 -27 -8 -46 -75 -12 -41 -25 -73 -28 -69 -3 3
-15 35 -26 72 -18 59 -24 67 -47 70 l-27 3 36 -106z"/>
<path d="M19400 7965 l0 -105 25 0 25 0 0 105 0 105 -25 0 -25 0 0 -105z"/>
<path d="M19545 8061 c-30 -13 -47 -37 -43 -63 3 -22 27 -39 83 -55 16 -5 31
-16 33 -24 4 -24 -27 -32 -54 -14 -32 21 -66 20 -62 -2 7 -37 89 -55 137 -30
39 20 45 54 16 83 -13 13 -35 24 -48 24 -30 0 -62 23 -53 38 9 15 53 16 61 2
7 -12 55 -13 55 -2 0 32 -84 61 -125 43z"/>
<path d="M19774 8061 c-34 -15 -54 -52 -54 -99 0 -58 41 -102 95 -102 117 0
131 190 15 205 -19 3 -45 1 -56 -4z m76 -50 c25 -47 5 -111 -35 -111 -27 0
-45 25 -45 65 0 40 18 65 45 65 14 0 29 -8 35 -19z"/>
<path d="M19960 7965 l0 -105 25 0 c24 0 25 3 25 61 0 72 12 99 44 99 15 0 26
7 29 19 9 37 -21 43 -53 9 l-20 -22 0 22 c0 17 -6 22 -25 22 l-25 0 0 -105z"/>
<path d="M20162 8058 c-26 -13 -39 -54 -25 -77 5 -9 30 -23 56 -31 58 -19 67
-28 44 -45 -19 -14 -46 -10 -58 8 -3 5 -19 7 -35 5 l-29 -3 27 -27 c59 -61
182 -15 154 57 -5 15 -24 24 -81 42 -33 9 -40 36 -11 41 10 2 29 -1 41 -8 12
-7 30 -10 40 -8 16 3 16 4 -1 26 -22 27 -87 38 -122 20z"/>
<path d="M20863 8054 c-3 -8 -3 -47 0 -87 4 -58 9 -74 27 -89 30 -24 59 -23
87 4 l23 21 0 -21 c0 -17 6 -22 25 -22 l25 0 0 105 0 105 -25 0 c-24 0 -25 -2
-25 -69 0 -51 -4 -74 -16 -86 -39 -39 -74 7 -74 98 0 51 -2 57 -20 57 -11 0
-23 -7 -27 -16z"/>
<path d="M21110 7965 l0 -105 25 0 c24 0 25 2 25 68 0 77 5 89 40 93 32 5 43
49 11 49 -11 0 -26 -9 -34 -20 l-14 -21 -6 21 c-3 12 -13 20 -26 20 -20 0 -21
-5 -21 -105z"/>
<path d="M12290 7975 c0 -12 13 -15 60 -15 47 0 60 3 60 15 0 12 -13 15 -60
15 -47 0 -60 -3 -60 -15z"/>
<path d="M20360 7905 c-15 -18 -6 -45 13 -45 8 0 20 7 27 15 10 12 10 18 0 30
-16 19 -24 19 -40 0z"/>
<path d="M13900 7861 c0 -16 -3 -36 -6 -45 -4 -11 -1 -16 10 -16 17 0 36 37
36 71 0 12 -7 19 -20 19 -15 0 -20 -7 -20 -29z"/>
<path d="M16180 7868 c0 -13 -3 -33 -6 -45 -10 -37 22 -28 35 8 16 46 14 59
-9 59 -14 0 -20 -7 -20 -22z"/>
<path d="M11054 7605 c-4 -9 -2 -21 4 -27 15 -15 44 -1 40 19 -4 23 -36 29
-44 8z"/>
<path d="M11604 7605 c-4 -9 -2 -21 4 -27 15 -15 44 -1 40 19 -4 23 -36 29
-44 8z"/>
<path d="M12284 7605 c-4 -9 -2 -21 4 -27 15 -15 44 -1 40 19 -4 23 -36 29
-44 8z"/>
<path d="M14225 7595 c-14 -13 -25 -31 -25 -38 0 -8 -7 -17 -15 -21 -8 -3 -15
-12 -15 -21 0 -8 7 -15 15 -15 12 0 15 -16 15 -85 0 -84 0 -85 25 -85 24 0 24
2 27 83 3 76 5 82 26 85 33 5 30 42 -3 42 -23 0 -24 2 -15 20 6 11 17 20 25
20 8 0 15 9 15 20 0 29 -45 26 -75 -5z"/>
<path d="M17504 7605 c-8 -19 3 -35 26 -35 19 0 34 25 24 41 -8 14 -44 10 -50
-6z"/>
<path d="M15350 7465 l0 -135 25 0 c24 0 25 2 25 69 0 70 14 101 44 101 26 0
36 -26 36 -97 l0 -73 31 0 32 0 -5 87 c-4 74 -8 89 -27 105 -31 24 -60 23 -88
-4 l-23 -21 0 51 c0 49 -2 52 -25 52 l-25 0 0 -135z"/>
<path d="M16800 7465 l0 -135 25 0 c17 0 25 6 25 17 0 15 1 15 18 0 34 -31 85
-20 107 24 30 57 14 137 -32 158 -34 16 -50 14 -73 -9 l-20 -20 0 50 c0 47 -2
50 -25 50 l-25 0 0 -135z m122 18 c37 -33 15 -113 -31 -113 -27 0 -43 25 -43
65 0 60 36 83 74 48z"/>
<path d="M20650 7465 l0 -135 25 0 c24 0 25 2 25 69 0 70 14 101 44 101 26 0
36 -26 36 -97 l0 -73 31 0 32 0 -5 87 c-4 74 -8 89 -27 105 -31 24 -60 23 -88
-4 l-23 -21 0 51 c0 49 -2 52 -25 52 l-25 0 0 -135z"/>
<path d="M12710 7565 c0 -16 -6 -25 -15 -25 -8 0 -15 -9 -15 -20 0 -11 7 -20
15 -20 12 0 15 -14 15 -68 0 -77 16 -102 63 -102 33 0 38 35 7 43 -17 4 -20
14 -20 66 0 54 2 61 20 61 13 0 20 7 20 20 0 13 -7 20 -20 20 -15 0 -20 7 -20
25 0 20 -5 25 -25 25 -20 0 -25 -5 -25 -25z"/>
<path d="M13200 7565 c0 -16 -6 -25 -15 -25 -8 0 -15 -9 -15 -19 0 -10 7 -21
15 -25 11 -4 15 -22 15 -75 0 -77 10 -91 65 -91 21 0 26 4 21 16 -3 9 -6 18
-6 20 0 2 -7 4 -15 4 -12 0 -15 14 -15 65 0 58 2 65 20 65 12 0 20 7 20 16 0
9 -9 18 -20 21 -13 3 -20 14 -20 29 0 19 -5 24 -25 24 -20 0 -25 -5 -25 -25z"/>
<path d="M15210 7565 c0 -16 -6 -25 -15 -25 -8 0 -15 -9 -15 -20 0 -11 7 -20
15 -20 12 0 15 -14 15 -68 0 -77 16 -102 63 -102 33 0 38 35 7 43 -17 4 -20
14 -20 66 0 54 2 61 20 61 13 0 20 7 20 20 0 13 -7 20 -20 20 -15 0 -20 7 -20
25 0 20 -5 25 -25 25 -20 0 -25 -5 -25 -25z"/>
<path d="M10700 7435 l0 -105 25 0 c24 0 25 2 25 74 0 81 16 110 48 89 13 -8
18 -28 20 -87 3 -73 4 -76 27 -76 24 0 25 2 25 74 0 81 16 110 48 89 13 -8 18
-28 20 -87 3 -73 4 -76 27 -76 25 0 25 1 25 89 0 82 -2 91 -22 105 -29 21 -51
20 -78 -2 -23 -18 -24 -18 -42 0 -24 24 -53 23 -79 -3 l-20 -20 -6 20 c-3 12
-14 21 -24 21 -17 0 -19 -9 -19 -105z"/>
<path d="M11050 7435 l0 -105 25 0 25 0 0 105 0 105 -25 0 -25 0 0 -105z"/>
<path d="M11193 7530 c-44 -18 -53 -79 -15 -99 9 -4 33 -11 54 -15 42 -8 56
-31 27 -47 -16 -8 -26 -7 -44 5 -40 26 -77 20 -57 -10 27 -40 111 -46 147 -9
44 43 29 73 -47 95 -61 18 -72 43 -20 48 18 2 32 -1 32 -7 0 -6 11 -11 25 -11
37 0 30 26 -12 49 -25 13 -59 13 -90 1z"/>
<path d="M11413 7530 c-44 -18 -53 -79 -15 -99 9 -4 33 -11 54 -15 42 -8 56
-31 27 -47 -16 -8 -26 -7 -44 5 -40 26 -77 20 -57 -10 27 -40 111 -46 147 -9
44 43 29 73 -47 95 -61 18 -72 43 -20 48 18 2 32 -1 32 -7 0 -6 11 -11 25 -11
37 0 30 26 -12 49 -25 13 -59 13 -90 1z"/>
<path d="M11600 7435 l0 -105 25 0 25 0 0 105 0 105 -25 0 -25 0 0 -105z"/>
<path d="M11754 7531 c-34 -15 -54 -52 -54 -99 0 -58 41 -102 95 -102 117 0
131 190 15 205 -19 3 -45 1 -56 -4z m76 -50 c25 -47 5 -111 -35 -111 -27 0
-45 25 -45 65 0 40 18 65 45 65 14 0 29 -8 35 -19z"/>
<path d="M11940 7435 l0 -105 25 0 c24 0 25 2 25 68 0 54 4 72 18 85 44 40 72
7 72 -84 0 -67 1 -69 25 -69 24 0 25 2 25 73 0 83 -14 118 -53 131 -22 8 -33
6 -57 -12 -30 -22 -30 -22 -30 -2 0 15 -7 20 -25 20 l-25 0 0 -105z"/>
<path d="M12280 7435 l0 -105 25 0 25 0 0 105 0 105 -25 0 -25 0 0 -105z"/>
<path d="M12423 7530 c-44 -18 -53 -79 -15 -99 9 -4 33 -11 54 -15 42 -8 56
-31 27 -47 -16 -8 -26 -7 -44 5 -40 26 -77 20 -57 -10 27 -40 111 -46 147 -9
44 43 29 73 -47 95 -61 18 -72 43 -20 48 18 2 32 -1 32 -7 0 -6 11 -11 25 -11
37 0 30 26 -12 49 -25 13 -59 13 -90 1z"/>
<path d="M12889 7525 c-85 -46 -49 -195 47 -195 46 0 70 14 89 50 50 98 -42
196 -136 145z m85 -47 c9 -12 16 -32 16 -43 0 -29 -28 -65 -50 -65 -22 0 -50
36 -50 65 0 29 28 65 50 65 10 0 26 -10 34 -22z"/>
<path d="M13337 7533 c-4 -3 -7 -51 -7 -105 0 -98 0 -98 25 -98 24 0 25 3 25
54 0 74 13 106 44 106 22 0 36 16 36 41 0 17 -33 9 -57 -13 l-23 -21 0 21 c0
21 -28 31 -43 15z"/>
<path d="M13550 7533 c-21 -8 -50 -34 -50 -45 0 -12 44 -10 57 3 6 6 21 9 34
7 34 -4 33 -42 -1 -46 -48 -5 -69 -12 -84 -28 -52 -52 41 -127 96 -77 17 15
18 15 18 0 0 -11 8 -17 25 -17 25 0 25 1 25 83 0 69 -3 87 -19 101 -20 18 -77
29 -101 19z m70 -128 c0 -35 -43 -56 -67 -32 -13 13 -14 19 -4 31 11 13 22 17
64 25 4 0 7 -10 7 -24z"/>
<path d="M13730 7435 l0 -105 25 0 c24 0 25 2 25 69 0 70 14 101 44 101 26 0
36 -26 36 -97 0 -71 1 -73 25 -73 25 0 25 1 25 89 0 82 -2 91 -22 105 -30 22
-60 20 -86 -4 l-22 -21 0 21 c0 15 -7 20 -25 20 l-25 0 0 -105z"/>
<path d="M14002 7528 c-26 -13 -39 -54 -25 -77 5 -9 30 -23 56 -31 58 -19 67
-28 44 -45 -19 -14 -46 -10 -58 8 -3 5 -19 7 -35 5 l-29 -3 27 -27 c59 -61
182 -15 154 57 -5 15 -24 24 -81 42 -33 9 -40 36 -11 41 10 2 29 -1 41 -8 12
-7 30 -10 40 -8 16 3 16 4 -1 26 -22 27 -87 38 -122 20z"/>
<path d="M14394 7531 c-34 -15 -54 -52 -54 -99 0 -58 41 -102 95 -102 117 0
131 190 15 205 -19 3 -45 1 -56 -4z m76 -50 c25 -47 5 -111 -35 -111 -27 0
-45 25 -45 65 0 40 18 65 45 65 14 0 29 -8 35 -19z"/>
<path d="M14580 7435 l0 -105 25 0 c24 0 25 3 25 61 0 72 12 99 44 99 15 0 26
7 29 19 9 37 -21 43 -53 9 l-20 -22 0 22 c0 17 -6 22 -25 22 l-25 0 0 -105z"/>
<path d="M14750 7435 l0 -105 25 0 c24 0 25 2 25 69 0 50 4 74 16 85 18 18 23
19 44 6 10 -6 16 -32 18 -84 4 -65 7 -76 22 -76 15 0 18 11 22 76 2 52 8 78
18 84 21 13 26 12 44 -6 12 -11 16 -35 16 -85 0 -68 1 -69 26 -69 l26 0 -4 91
c-2 76 -6 93 -22 105 -27 19 -62 18 -84 -4 -18 -18 -19 -18 -42 0 -29 24 -49
23 -77 -4 l-23 -21 0 21 c0 17 -6 22 -25 22 l-25 0 0 -105z"/>
<path d="M15622 7515 c-75 -63 -33 -185 63 -185 40 0 84 28 85 53 0 11 -48 9
-55 -3 -11 -18 -64 -11 -75 9 -5 11 -10 22 -10 25 0 3 34 6 75 6 41 0 75 3 75
8 0 4 -5 24 -11 44 -18 66 -94 88 -147 43z m98 -34 c15 -29 14 -31 -33 -31
-53 0 -62 8 -40 32 21 24 60 23 73 -1z"/>
<path d="M15900 7538 c0 -2 13 -48 29 -103 27 -97 29 -100 56 -100 26 0 30 5
44 57 9 31 19 59 22 63 4 3 15 -24 24 -60 17 -60 20 -65 45 -65 26 0 29 5 54
95 32 115 32 115 2 115 -21 0 -25 -7 -36 -62 -7 -35 -16 -67 -20 -71 -4 -5
-15 24 -25 63 -16 67 -19 71 -44 68 -24 -3 -27 -9 -40 -70 -8 -38 -17 -68 -21
-68 -4 0 -14 30 -22 68 -13 61 -16 67 -41 70 -15 2 -27 2 -27 0z"/>
<path d="M16285 7529 c-41 -25 -46 -49 -10 -49 14 0 25 5 25 10 0 16 57 12 63
-4 8 -20 -10 -32 -56 -39 -50 -8 -67 -23 -67 -58 0 -54 59 -78 108 -43 20 14
22 14 22 0 0 -10 9 -16 25 -16 25 0 25 1 25 79 0 60 -4 84 -18 101 -20 25 -87
36 -117 19z m85 -117 c0 -25 -34 -55 -57 -50 -12 2 -18 12 -18 28 0 24 11 30
68 39 4 0 7 -7 7 -17z"/>
<path d="M16462 7528 c59 -166 70 -208 58 -223 -7 -8 -19 -15 -26 -15 -8 0
-14 -9 -14 -20 0 -15 7 -20 24 -20 43 0 71 39 111 155 21 61 40 116 43 123 3
10 -3 13 -24 10 -25 -3 -29 -9 -47 -75 -11 -40 -23 -73 -27 -73 -5 0 -17 33
-27 73 -18 66 -22 72 -48 75 -20 3 -26 0 -23 -10z"/>
<path d="M17040 7461 c0 -64 4 -83 21 -105 25 -31 57 -33 93 -5 l26 20 0 -20
c0 -16 6 -21 25 -21 l25 0 0 105 0 105 -25 0 c-24 0 -25 -2 -25 -63 0 -90 -34
-132 -74 -91 -12 11 -16 35 -16 85 0 67 -1 69 -25 69 -25 0 -25 -1 -25 -79z"/>
<path d="M17325 7531 c-30 -13 -47 -37 -43 -63 3 -22 27 -39 83 -55 16 -5 31
-16 33 -24 4 -24 -27 -32 -54 -14 -32 21 -66 20 -62 -2 7 -37 89 -55 137 -30
39 20 45 54 16 83 -13 13 -35 24 -48 24 -30 0 -62 23 -53 38 9 15 53 16 61 2
7 -12 55 -13 55 -2 0 32 -84 61 -125 43z"/>
<path d="M17507 7533 c-4 -3 -7 -51 -7 -105 0 -98 0 -98 25 -98 l25 0 0 105
c0 95 -2 105 -18 105 -10 0 -22 -3 -25 -7z"/>
<path d="M17610 7435 l0 -105 25 0 c24 0 25 2 25 68 0 54 4 72 18 85 44 40 72
7 72 -84 0 -67 1 -69 25 -69 24 0 25 2 25 73 0 83 -14 118 -53 131 -22 8 -33
6 -57 -12 -30 -22 -30 -22 -30 -2 0 15 -7 20 -25 20 l-25 0 0 -105z"/>
<path d="M17904 7530 c-54 -22 -75 -124 -34 -168 39 -41 126 -41 155 1 15 21
14 22 -6 25 -12 2 -26 -1 -32 -7 -25 -25 -87 -6 -87 26 0 9 19 13 70 13 63 0
70 2 70 20 0 69 -71 117 -136 90z m74 -42 c25 -25 13 -38 -33 -38 -30 0 -45 4
-45 13 0 19 21 37 45 37 12 0 26 -5 33 -12z"/>
<path d="M18123 7530 c-44 -18 -53 -79 -15 -99 9 -4 33 -11 54 -15 42 -8 56
-31 27 -47 -16 -8 -26 -7 -44 5 -40 26 -77 20 -57 -10 27 -40 111 -46 147 -9
44 43 29 73 -47 95 -61 18 -72 43 -20 48 18 2 32 -1 32 -7 0 -6 11 -11 25 -11
37 0 30 26 -12 49 -25 13 -59 13 -90 1z"/>
<path d="M18345 7531 c-30 -13 -47 -37 -43 -63 3 -22 27 -39 83 -55 16 -5 31
-16 33 -24 4 -24 -27 -32 -54 -14 -32 21 -66 20 -62 -2 7 -37 89 -55 137 -30
39 20 45 54 16 83 -13 13 -35 24 -48 24 -30 0 -62 23 -53 38 9 15 53 16 61 2
7 -12 55 -13 55 -2 0 32 -84 61 -125 43z"/>
<path d="M18574 7530 c-54 -22 -75 -124 -34 -168 39 -41 126 -41 155 1 15 21
14 22 -6 25 -12 2 -26 -1 -32 -7 -25 -25 -87 -6 -87 26 0 9 19 13 70 13 63 0
70 2 70 20 0 69 -71 117 -136 90z m74 -42 c25 -25 13 -38 -33 -38 -30 0 -45 4
-45 13 0 19 21 37 45 37 12 0 26 -5 33 -12z"/>
<path d="M18793 7530 c-44 -18 -53 -79 -15 -99 9 -4 33 -11 54 -15 42 -8 56
-31 27 -47 -16 -8 -26 -7 -44 5 -40 26 -77 20 -57 -10 27 -40 111 -46 147 -9
44 43 29 73 -47 95 -61 18 -72 43 -20 48 18 2 32 -1 32 -7 0 -6 11 -11 25 -11
37 0 30 26 -12 49 -25 13 -59 13 -90 1z"/>
<path d="M19120 7533 c-21 -8 -50 -34 -50 -45 0 -11 48 -10 55 2 10 16 55 12
62 -5 8 -22 1 -26 -53 -36 -58 -11 -74 -24 -74 -59 0 -52 61 -78 108 -44 20
14 22 14 22 0 0 -10 9 -16 25 -16 25 0 25 1 25 83 0 69 -3 87 -19 101 -20 18
-77 29 -101 19z m70 -122 c0 -20 -24 -51 -40 -51 -48 0 -54 45 -7 59 46 13 47
13 47 -8z"/>
<path d="M19297 7533 c-4 -3 -7 -66 -7 -140 l0 -133 25 0 c23 0 25 3 25 50 0
51 8 61 30 35 25 -31 84 -16 105 26 25 48 19 106 -14 140 -35 34 -59 36 -95 8
l-26 -20 0 20 c0 20 -28 30 -43 14z m127 -55 c9 -12 16 -32 16 -43 0 -29 -28
-65 -49 -65 -27 0 -45 27 -45 65 0 61 48 87 78 43z"/>
<path d="M19540 7400 l0 -140 25 0 c23 0 25 3 25 50 0 51 8 61 30 35 18 -22
55 -18 87 9 25 21 28 31 28 81 0 50 -3 60 -28 81 -34 29 -56 30 -91 3 l-26
-20 0 20 c0 16 -6 21 -25 21 l-25 0 0 -140z m131 84 c7 -9 13 -31 13 -49 0
-38 -18 -65 -45 -65 -21 0 -49 36 -49 65 0 51 53 83 81 49z"/>
<path d="M19790 7435 l0 -105 25 0 c24 0 25 2 25 68 0 77 5 89 40 93 32 5 43
49 11 49 -11 0 -26 -9 -34 -20 l-14 -21 -6 21 c-3 12 -13 20 -26 20 -20 0 -21
-5 -21 -105z"/>
<path d="M20004 7531 c-34 -15 -54 -52 -54 -99 0 -35 6 -49 29 -73 72 -71 188
-1 166 100 -12 57 -87 95 -141 72z m76 -46 c6 -8 12 -30 12 -50 0 -43 -16 -65
-48 -65 -27 0 -44 26 -44 69 0 51 51 81 80 46z"/>
<path d="M20233 7530 c-12 -5 -27 -18 -33 -29 -9 -18 -8 -21 13 -21 12 0 28 5
34 11 18 18 58 7 58 -16 0 -15 -9 -21 -45 -27 -72 -12 -100 -68 -52 -105 22
-18 67 -16 86 2 8 8 17 15 20 15 3 0 6 -7 6 -15 0 -8 9 -15 20 -15 19 0 20 7
20 90 0 89 0 90 -30 105 -32 17 -64 18 -97 5z m77 -125 c0 -35 -43 -56 -67
-32 -13 13 -14 19 -4 31 11 13 22 17 64 25 4 0 7 -10 7 -24z"/>
<path d="M20475 7531 c-49 -20 -73 -81 -55 -137 21 -63 110 -85 155 -39 14 13
25 29 25 35 0 16 -47 12 -54 -5 -7 -18 -47 -20 -64 -3 -7 7 -12 30 -12 53 0
59 39 87 70 50 17 -21 64 -20 56 1 -3 9 -6 17 -6 20 0 2 -13 10 -30 19 -32 16
-55 18 -85 6z"/>
<path d="M27375 7319 c-70 -38 -97 -48 -122 -45 -18 3 -33 3 -33 1 0 -2 15 -8
33 -13 17 -6 41 -13 52 -17 12 -4 15 -3 8 2 -7 5 21 25 83 57 51 27 91 53 88
57 -7 12 -9 12 -109 -42z"/>
<path d="M27180 7290 c8 -5 20 -10 25 -10 6 0 3 5 -5 10 -8 5 -19 10 -25 10
-5 0 -3 -5 5 -10z"/>
<path d="M27145 7195 c-44 -25 -89 -45 -100 -46 -19 0 -19 -1 -1 -8 14 -5 43
5 100 37 45 24 85 48 91 53 20 20 -13 6 -90 -36z"/>
<path d="M27423 7192 c57 -27 95 -51 90 -56 -5 -5 -3 -6 5 -2 6 4 12 9 12 12
0 6 -188 94 -198 93 -4 0 37 -22 91 -47z"/>
<path d="M26960 7172 c8 -5 26 -13 40 -16 17 -5 20 -4 10 2 -8 5 -26 13 -40
16 -17 5 -20 4 -10 -2z"/>
<path d="M26975 7120 c-3 -6 1 -7 9 -4 18 7 21 14 7 14 -6 0 -13 -4 -16 -10z"/>
<path d="M27388 7085 l-87 -45 -78 31 c-104 40 -113 43 -79 24 24 -15 126 -58
225 -96 24 -10 22 -11 -34 -45 -102 -62 -155 -85 -178 -79 -16 4 -14 1 7 -11
17 -9 31 -12 35 -7 3 6 51 36 106 67 l100 57 85 -32 c47 -18 97 -37 112 -43
26 -10 24 -11 -65 -63 -51 -29 -101 -56 -112 -59 -12 -3 -58 9 -104 26 -46 17
-85 29 -87 27 -2 -2 62 -29 144 -59 186 -70 198 -74 137 -43 -27 13 -56 25
-62 25 -28 0 -10 17 53 49 36 19 82 45 101 58 l35 24 114 -47 c63 -26 114 -48
114 -50 0 -1 -45 -28 -100 -59 -55 -32 -100 -61 -100 -65 0 -10 31 -22 38 -15
3 3 0 5 -7 5 -24 0 0 19 74 60 80 44 108 67 100 80 -3 4 10 13 28 21 50 20
157 82 157 92 0 5 -45 -15 -99 -44 l-100 -53 -126 51 -127 51 74 37 c82 41
114 62 106 70 -2 3 -51 -17 -107 -45 l-102 -50 -107 41 c-158 62 -153 54 -65
100 83 42 107 59 83 58 -8 0 -54 -20 -102 -44z"/>
<path d="M13484 7085 c-8 -19 3 -35 26 -35 19 0 34 25 24 41 -8 14 -44 10 -50
-6z"/>
<path d="M13824 7085 c-4 -9 -2 -21 4 -27 15 -15 44 -1 40 19 -4 23 -36 29
-44 8z"/>
<path d="M14783 7085 c-13 -9 -23 -27 -23 -41 0 -15 -6 -24 -15 -24 -8 0 -15
-9 -15 -20 0 -11 7 -20 15 -20 12 0 15 -16 15 -85 0 -84 0 -85 25 -85 25 0 25
1 25 85 0 78 2 85 20 85 13 0 20 7 20 20 0 13 -7 20 -20 20 -29 0 -25 29 6 40
14 6 24 16 22 23 -7 18 -50 20 -75 2z"/>
<path d="M14930 7080 c-11 -11 -20 -29 -20 -40 0 -11 -7 -20 -15 -20 -8 0 -15
-9 -15 -20 0 -11 7 -20 15 -20 12 0 15 -16 15 -85 0 -84 0 -85 25 -85 25 0 25
1 25 85 0 78 2 85 20 85 13 0 20 7 20 20 0 14 -7 20 -21 20 -28 0 -21 34 9 38
14 2 22 10 22 23 0 26 -53 26 -80 -1z"/>
<path d="M15054 7085 c-4 -9 -2 -21 4 -27 15 -15 44 -1 40 19 -4 23 -36 29
-44 8z"/>
<path d="M15394 7085 c-4 -9 -2 -21 4 -27 15 -15 44 -1 40 19 -4 23 -36 29
-44 8z"/>
<path d="M17734 7085 c-4 -9 -2 -21 4 -27 15 -15 44 -1 40 19 -4 23 -36 29
-44 8z"/>
<path d="M26870 7065 c-25 -13 -41 -24 -37 -25 11 0 87 39 87 45 0 7 0 7 -50
-20z"/>
<path d="M11310 6945 l0 -135 25 0 c24 0 25 2 25 68 0 54 4 72 18 85 44 40 72
7 72 -84 0 -67 1 -69 25 -69 25 0 25 1 25 80 0 73 -3 83 -25 105 -30 30 -54
31 -89 4 l-26 -20 0 50 c0 48 -2 51 -25 51 l-25 0 0 -135z"/>
<path d="M12030 6945 l0 -135 25 0 25 0 0 135 0 135 -25 0 -25 0 0 -135z"/>
<path d="M13210 7029 l0 -50 -26 20 c-35 27 -57 26 -91 -3 -25 -21 -28 -31
-28 -81 0 -50 3 -60 28 -81 32 -27 69 -31 87 -9 7 8 16 15 21 15 5 0 9 -7 9
-15 0 -9 9 -15 25 -15 l25 0 0 135 0 135 -25 0 c-23 0 -25 -3 -25 -51z m-16
-71 c9 -12 16 -32 16 -43 0 -29 -28 -65 -49 -65 -27 0 -45 27 -45 65 0 61 48
87 78 43z"/>
<path d="M19040 7028 l0 -51 -23 21 c-43 41 -99 19 -117 -46 -25 -96 49 -175
118 -126 20 14 22 14 22 0 0 -10 9 -16 25 -16 l25 0 0 135 0 135 -25 0 c-23 0
-25 -3 -25 -52z m-16 -64 c33 -32 13 -114 -27 -114 -34 0 -47 19 -47 65 0 61
38 86 74 49z"/>
<path d="M20380 6945 l0 -135 25 0 c24 0 25 2 25 75 0 70 2 76 25 87 42 19 55
-3 55 -88 0 -72 1 -74 25 -74 25 0 25 1 25 85 0 94 -16 125 -65 125 -14 0 -34
-9 -45 -20 l-20 -20 0 50 c0 47 -2 50 -25 50 l-25 0 0 -135z"/>
<path d="M10710 7045 c0 -16 -6 -25 -15 -25 -8 0 -15 -9 -15 -20 0 -11 7 -20
15 -20 12 0 15 -14 15 -68 0 -77 16 -102 63 -102 33 0 38 35 7 43 -17 4 -20
14 -20 66 0 54 2 61 20 61 13 0 20 7 20 20 0 13 -7 20 -20 20 -15 0 -20 7 -20
25 0 20 -5 25 -25 25 -20 0 -25 -5 -25 -25z"/>
<path d="M17850 7046 c0 -13 -7 -26 -15 -30 -8 -3 -15 -12 -15 -21 0 -8 7 -15
15 -15 12 0 15 -14 15 -65 0 -75 20 -105 69 -105 24 0 28 3 24 20 -3 11 -11
20 -18 20 -18 0 -25 23 -25 81 0 42 3 49 20 49 13 0 20 7 20 20 0 13 -7 20
-20 20 -15 0 -20 7 -20 25 0 20 -5 25 -25 25 -20 0 -25 -5 -25 -24z"/>
<path d="M20240 7045 c0 -16 -6 -25 -15 -25 -8 0 -15 -9 -15 -20 0 -11 7 -20
15 -20 12 0 15 -14 15 -69 0 -79 13 -101 61 -101 22 0 29 5 29 19 0 10 -9 21
-20 24 -17 4 -20 14 -20 66 0 54 2 61 20 61 13 0 20 7 20 20 0 13 -7 20 -20
20 -15 0 -20 7 -20 25 0 20 -5 25 -25 25 -20 0 -25 -5 -25 -25z"/>
<path d="M27069 7008 l-96 -51 -48 17 c-27 9 -50 14 -52 12 -10 -9 98 -37 119
-31 25 8 178 94 178 101 0 6 5 8 -101 -48z"/>
<path d="M26785 7030 c-11 -5 -17 -9 -13 -9 3 -1 14 -4 24 -8 11 -4 15 -3 11
4 -4 6 -1 14 5 16 7 3 9 5 3 6 -5 0 -19 -4 -30 -9z"/>
<path d="M10889 7005 c-56 -31 -64 -129 -14 -172 34 -30 93 -31 129 -2 14 11
26 25 26 30 0 12 -47 12 -55 -1 -11 -18 -64 -11 -75 9 -5 11 -10 22 -10 25 0
3 32 6 70 6 l70 0 0 29 c0 65 -83 109 -141 76z m75 -31 c9 -3 16 -15 16 -25 0
-16 -8 -19 -45 -19 -49 0 -50 1 -35 31 11 19 35 24 64 13z"/>
<path d="M11135 7011 c-49 -20 -73 -81 -55 -137 21 -63 110 -85 155 -39 14 13
25 29 25 35 0 16 -47 12 -54 -5 -7 -18 -47 -20 -64 -3 -7 7 -12 30 -12 53 0
59 39 87 70 50 17 -21 64 -20 56 1 -3 9 -6 17 -6 20 0 2 -13 10 -30 19 -32 16
-55 18 -85 6z"/>
<path d="M11557 7013 c-4 -3 -7 -51 -7 -105 0 -98 0 -98 25 -98 24 0 25 3 25
58 0 90 35 136 74 97 12 -12 16 -35 16 -86 0 -67 1 -69 25 -69 25 0 25 1 25
80 0 73 -3 83 -25 105 -30 30 -54 31 -89 4 l-26 -20 0 20 c0 20 -28 30 -43 14z"/>
<path d="M11844 7011 c-34 -15 -54 -52 -54 -99 0 -35 6 -49 29 -73 72 -71 188
-1 166 100 -12 57 -87 95 -141 72z m76 -46 c6 -8 12 -30 12 -50 0 -43 -16 -65
-48 -65 -27 0 -44 26 -44 69 0 51 51 81 80 46z"/>
<path d="M12195 7011 c-73 -32 -83 -151 -15 -186 75 -39 150 5 150 89 0 32 -6
52 -22 71 -25 28 -79 41 -113 26z m69 -47 c33 -32 13 -114 -27 -114 -34 0 -47
19 -47 65 0 61 38 86 74 49z"/>
<path d="M12413 7005 c-47 -33 -49 -150 -3 -175 28 -15 71 -12 92 7 17 15 18
15 18 -13 0 -17 -5 -35 -12 -42 -15 -15 -60 -16 -75 -1 -6 6 -21 8 -33 4 -20
-6 -21 -8 -4 -26 35 -39 141 -32 164 11 6 10 10 71 10 134 l0 116 -25 0 c-19
0 -25 -5 -25 -22 l0 -21 -23 21 c-27 26 -54 28 -84 7z m91 -41 c32 -31 10
-114 -30 -114 -24 0 -44 31 -44 69 0 57 39 81 74 45z"/>
<path d="M12620 7010 c0 -6 15 -55 34 -108 18 -53 31 -103 29 -110 -3 -7 -16
-17 -29 -22 -27 -11 -31 -28 -9 -36 24 -10 71 15 85 44 15 32 80 222 80 234 0
4 -11 8 -24 8 -21 0 -26 -9 -46 -81 -25 -89 -28 -88 -55 14 -16 59 -21 67 -41
67 -13 0 -24 -5 -24 -10z"/>
<path d="M13320 6915 l0 -105 25 0 c24 0 25 2 25 68 0 77 5 89 40 93 32 5 43
49 11 49 -11 0 -26 -9 -34 -20 l-14 -21 -6 21 c-3 12 -13 20 -26 20 -20 0 -21
-5 -21 -105z"/>
<path d="M13487 7013 c-4 -3 -7 -51 -7 -105 0 -98 0 -98 25 -98 l25 0 0 105
c0 95 -2 105 -18 105 -10 0 -22 -3 -25 -7z"/>
<path d="M13580 7011 c0 -5 15 -51 34 -102 31 -88 36 -94 63 -97 29 -3 30 -1
66 103 l37 106 -27 -3 c-24 -3 -30 -11 -48 -70 -11 -37 -23 -69 -26 -72 -3 -4
-16 27 -28 69 -20 67 -25 75 -47 75 -13 0 -24 -4 -24 -9z"/>
<path d="M13820 6915 l0 -105 25 0 25 0 0 105 0 105 -25 0 -25 0 0 -105z"/>
<path d="M13930 6915 l0 -105 25 0 c24 0 25 2 25 69 0 70 14 101 44 101 26 0
36 -26 36 -97 0 -71 1 -73 25 -73 25 0 25 1 25 89 0 82 -2 91 -22 105 -30 22
-60 20 -86 -4 l-22 -21 0 21 c0 15 -7 20 -25 20 l-25 0 0 -105z"/>
<path d="M14203 7005 c-47 -33 -49 -150 -3 -175 28 -15 71 -12 92 7 17 15 18
15 18 -13 0 -17 -5 -35 -12 -42 -15 -15 -60 -16 -75 -1 -6 6 -21 8 -33 4 -20
-6 -21 -8 -4 -26 35 -39 141 -32 164 11 6 10 10 71 10 134 l0 116 -25 0 c-19
0 -25 -5 -25 -22 l0 -21 -23 21 c-27 26 -54 28 -84 7z m91 -41 c32 -31 10
-114 -30 -114 -24 0 -44 31 -44 69 0 57 39 81 74 45z"/>
<path d="M14549 7005 c-56 -31 -64 -129 -14 -172 34 -30 93 -31 129 -2 14 11
26 25 26 30 0 12 -47 12 -55 -1 -11 -18 -64 -11 -75 9 -5 11 -10 22 -10 25 0
3 32 6 70 6 l70 0 0 29 c0 65 -83 109 -141 76z m75 -31 c9 -3 16 -15 16 -25 0
-16 -8 -19 -45 -19 -49 0 -50 1 -35 31 11 19 35 24 64 13z"/>
<path d="M15050 6915 l0 -105 25 0 25 0 0 105 0 105 -25 0 -25 0 0 -105z"/>
<path d="M15201 7006 c-48 -27 -64 -91 -36 -146 19 -36 43 -50 90 -50 35 0 85
35 85 60 0 15 -46 12 -60 -5 -27 -33 -80 0 -80 50 0 50 53 83 80 50 13 -15 60
-21 60 -7 -1 13 -24 38 -47 50 -28 15 -62 15 -92 -2z"/>
<path d="M15390 6915 l0 -105 25 0 25 0 0 105 0 105 -25 0 -25 0 0 -105z"/>
<path d="M15544 7010 c-54 -22 -75 -124 -34 -168 39 -41 126 -41 155 1 15 21
14 22 -6 25 -12 2 -26 -1 -32 -7 -25 -25 -87 -6 -87 26 0 9 19 13 70 13 63 0
70 2 70 20 0 69 -71 117 -136 90z m74 -42 c25 -25 13 -38 -33 -38 -30 0 -45 4
-45 13 0 19 21 37 45 37 12 0 26 -5 33 -12z"/>
<path d="M15730 6915 l0 -105 25 0 c24 0 25 2 25 69 0 70 14 101 44 101 26 0
36 -26 36 -97 0 -71 1 -73 25 -73 25 0 25 1 25 89 0 82 -2 91 -22 105 -30 22
-60 20 -86 -4 l-22 -21 0 21 c0 15 -7 20 -25 20 l-25 0 0 -105z"/>
<path d="M16011 7006 c-48 -27 -64 -91 -36 -146 19 -36 43 -50 90 -50 35 0 85
35 85 60 0 15 -46 12 -60 -5 -27 -33 -80 0 -80 50 0 50 53 83 80 50 13 -15 60
-21 60 -7 -1 13 -24 38 -47 50 -28 15 -62 15 -92 -2z"/>
<path d="M16190 7010 c0 -6 15 -55 34 -108 18 -53 31 -103 29 -110 -3 -7 -16
-17 -29 -22 -27 -11 -31 -28 -9 -36 24 -10 71 15 85 44 15 32 80 222 80 234 0
4 -11 8 -24 8 -21 0 -26 -9 -46 -81 -25 -89 -28 -88 -55 14 -16 59 -21 67 -41
67 -13 0 -24 -5 -24 -10z"/>
<path d="M16670 7008 c-17 -9 -26 -23 -28 -44 -4 -37 10 -50 69 -67 49 -14 59
-31 29 -47 -17 -9 -26 -8 -45 4 -27 18 -65 21 -65 7 0 -21 54 -51 90 -51 45 0
90 32 90 65 0 29 -15 41 -73 55 -35 9 -47 17 -47 31 0 14 7 19 29 19 17 0 33
-4 36 -10 9 -15 45 -12 45 4 0 35 -85 57 -130 34z"/>
<path d="M16899 7005 c-56 -31 -64 -129 -14 -172 34 -30 93 -31 129 -2 14 11
26 25 26 30 0 12 -47 12 -55 -1 -11 -18 -64 -11 -75 9 -5 11 -10 22 -10 25 0
3 32 6 70 6 l70 0 0 29 c0 65 -83 109 -141 76z m75 -31 c9 -3 16 -15 16 -25 0
-16 -8 -19 -45 -19 -49 0 -50 1 -35 31 11 19 35 24 64 13z"/>
<path d="M17145 7011 c-49 -20 -73 -81 -55 -137 21 -63 110 -85 155 -39 14 13
25 29 25 35 0 16 -47 12 -54 -5 -7 -18 -47 -20 -64 -3 -7 7 -12 30 -12 53 0
59 39 87 70 50 17 -21 64 -20 56 1 -3 9 -6 17 -6 20 0 2 -13 10 -30 19 -32 16
-55 18 -85 6z"/>
<path d="M17320 6941 c0 -64 4 -83 21 -105 25 -31 57 -33 93 -5 l26 20 0 -20
c0 -16 6 -21 25 -21 l25 0 0 105 0 105 -25 0 c-24 0 -25 -2 -25 -63 0 -90 -34
-132 -74 -91 -12 11 -16 35 -16 85 0 67 -1 69 -25 69 -25 0 -25 -1 -25 -79z"/>
<path d="M17567 7013 c-4 -3 -7 -51 -7 -105 0 -98 0 -98 25 -98 24 0 25 3 25
54 0 74 13 106 44 106 22 0 36 16 36 41 0 17 -33 9 -57 -13 l-23 -21 0 21 c0
21 -28 31 -43 15z"/>
<path d="M17730 6915 l0 -105 25 0 25 0 0 105 0 105 -25 0 -25 0 0 -105z"/>
<path d="M17980 7013 c0 -5 16 -54 36 -110 31 -86 34 -105 24 -118 -7 -9 -19
-14 -26 -11 -14 5 -26 -31 -13 -40 14 -8 66 5 79 21 6 7 31 70 55 140 l45 126
-27 -3 c-25 -3 -30 -10 -52 -83 -26 -88 -23 -90 -56 28 -14 49 -20 57 -41 57
-13 0 -24 -3 -24 -7z"/>
<path d="M18480 7013 c-21 -8 -50 -34 -50 -45 0 -12 44 -10 57 3 6 6 21 9 34
7 34 -4 33 -42 -1 -46 -48 -5 -69 -12 -84 -28 -52 -52 41 -127 96 -77 17 15
18 15 18 0 0 -11 8 -17 25 -17 25 0 25 1 25 83 0 69 -3 87 -19 101 -20 18 -77
29 -101 19z m70 -128 c0 -35 -43 -56 -67 -32 -13 13 -14 19 -4 31 11 13 22 17
64 25 4 0 7 -10 7 -24z"/>
<path d="M18660 6915 l0 -105 25 0 c24 0 25 2 25 69 0 70 14 101 44 101 26 0
36 -26 36 -97 0 -71 1 -73 25 -73 25 0 25 1 25 89 0 82 -2 91 -22 105 -30 22
-60 20 -86 -4 l-22 -21 0 21 c0 15 -7 20 -25 20 l-25 0 0 -105z"/>
<path d="M19273 7005 c-47 -33 -49 -150 -3 -175 28 -15 71 -12 92 7 17 15 18
15 18 -13 0 -17 -5 -35 -12 -42 -15 -15 -60 -16 -75 -1 -6 6 -21 8 -33 4 -20
-6 -21 -8 -4 -26 35 -39 141 -32 164 11 6 10 10 71 10 134 l0 116 -25 0 c-19
0 -25 -5 -25 -22 l0 -21 -23 21 c-27 26 -54 28 -84 7z m91 -41 c32 -31 10
-114 -30 -114 -24 0 -44 31 -44 69 0 57 39 81 74 45z"/>
<path d="M19490 6915 l0 -105 25 0 c24 0 25 2 25 68 0 77 5 89 40 93 32 5 43
49 11 49 -11 0 -26 -9 -34 -20 l-14 -21 -6 21 c-3 12 -13 20 -26 20 -20 0 -21
-5 -21 -105z"/>
<path d="M19704 7011 c-34 -15 -54 -52 -54 -99 0 -35 6 -49 29 -73 72 -71 188
-1 166 100 -12 57 -87 95 -141 72z m76 -46 c6 -8 12 -30 12 -50 0 -43 -16 -65
-48 -65 -27 0 -44 26 -44 69 0 51 51 81 80 46z"/>
<path d="M19882 7008 c3 -7 16 -55 29 -105 22 -88 25 -93 51 -93 24 0 28 6 42
54 9 30 16 59 16 65 0 22 18 10 24 -16 25 -101 26 -103 54 -103 27 0 29 4 51
88 13 48 26 95 28 105 4 13 -1 17 -20 17 -23 0 -26 -6 -42 -71 -20 -79 -26
-77 -46 14 -11 54 -14 58 -38 55 -23 -3 -28 -10 -41 -65 -8 -34 -18 -64 -21
-68 -4 -3 -12 18 -19 47 -20 88 -20 88 -47 88 -16 0 -23 -5 -21 -12z"/>
<path d="M26675 6944 c-44 -24 -77 -43 -72 -44 11 0 167 79 167 85 0 9 -14 3
-95 -41z"/>
<path d="M26390 6950 c8 -5 20 -10 25 -10 6 0 3 5 -5 10 -8 5 -19 10 -25 10
-5 0 -3 -5 5 -10z"/>
<path d="M25565 6939 c-4 -6 -5 -12 -2 -15 2 -3 7 2 10 11 7 17 1 20 -8 4z"/>
<path d="M26432 6935 c3 -3 40 -18 82 -33 l77 -29 -81 -53 c-44 -29 -83 -57
-86 -61 -3 -5 36 18 87 50 l92 60 61 -23 c33 -13 181 -72 328 -130 l266 -106
93 54 c51 29 95 58 97 64 2 6 -34 -12 -80 -39 -45 -27 -92 -52 -104 -55 -13
-3 -67 12 -135 39 l-113 44 92 48 c51 27 90 50 89 52 -2 2 -46 -19 -98 -46
l-94 -49 -150 59 c-181 72 -413 159 -422 159 -3 0 -4 -2 -1 -5z"/>
<path d="M27040 6915 c14 -8 30 -14 35 -14 6 0 -1 6 -15 14 -14 8 -29 14 -35
14 -5 0 1 -6 15 -14z"/>
<path d="M26890 6859 c-98 -57 -99 -67 -1 -12 78 43 109 63 96 62 -6 0 -48
-22 -95 -50z"/>
<path d="M25551 6884 c0 -11 3 -14 6 -6 3 7 2 16 -1 19 -3 4 -6 -2 -5 -13z"/>
<path d="M27100 6890 c8 -5 20 -10 25 -10 6 0 3 5 -5 10 -8 5 -19 10 -25 10
-5 0 -3 -5 5 -10z"/>
<path d="M20630 6855 c-15 -18 -6 -45 13 -45 8 0 20 7 27 15 10 12 10 18 0 30
-16 19 -24 19 -40 0z"/>
<path d="M12870 6818 c0 -13 -3 -33 -6 -45 -10 -37 22 -28 35 8 16 46 14 59
-9 59 -14 0 -20 -7 -20 -22z"/>
<path d="M16440 6818 c0 -13 -3 -33 -6 -45 -10 -37 22 -28 35 8 16 46 14 59
-9 59 -14 0 -20 -7 -20 -22z"/>
<path d="M18230 6811 c0 -16 -3 -36 -6 -45 -4 -11 -1 -16 10 -16 17 0 36 37
36 71 0 12 -7 19 -20 19 -15 0 -20 -7 -20 -29z"/>
<path d="M28222 6758 c-52 -28 -90 -54 -85 -58 12 -12 242 -100 260 -100 15 0
132 61 160 83 7 5 10 13 7 18 -3 5 -24 -4 -47 -20 -23 -15 -62 -38 -85 -50
l-44 -22 -101 40 c-56 23 -108 41 -114 41 -27 0 -10 16 50 48 69 36 103 60 96
66 -2 3 -46 -18 -97 -46z"/>
<path d="M27891 6796 c9 -9 222 -97 225 -93 3 2 -45 25 -105 51 -98 42 -132
53 -120 42z"/>
<path d="M26070 6747 c0 -8 10 -23 23 -35 32 -30 247 -130 477 -222 107 -43
265 -110 350 -148 145 -65 238 -103 580 -237 74 -29 221 -87 325 -130 246
-100 389 -155 555 -214 74 -27 187 -73 250 -102 181 -83 216 -80 460 41 52 26
140 67 195 90 55 23 132 57 170 75 39 18 90 40 115 48 25 9 83 30 130 47 47
18 94 34 105 37 71 17 123 63 131 115 4 22 16 44 30 55 36 27 33 71 -6 86 -28
11 -30 15 -30 63 0 89 0 89 -103 37 -51 -25 -144 -74 -207 -108 -63 -35 -182
-97 -264 -139 -138 -70 -150 -74 -169 -61 -12 8 -26 15 -32 15 -5 -1 3 -8 19
-16 l28 -16 -29 -17 c-44 -27 -313 -162 -353 -176 -28 -11 -30 -14 -12 -14 17
-1 27 -12 41 -43 18 -43 18 -43 -3 -51 -12 -5 -48 -9 -81 -8 -72 0 -153 27
-425 138 -107 44 -240 97 -295 118 -55 20 -210 81 -345 135 -135 55 -373 149
-530 210 -157 62 -366 146 -465 187 -99 41 -259 105 -355 143 -96 37 -199 77
-227 89 -40 15 -53 17 -53 8z"/>
<path d="M30630 6731 c0 -5 -18 -31 -40 -57 -22 -27 -40 -57 -40 -67 0 -10 -4
-16 -9 -13 -5 4 -19 -10 -31 -29 -12 -19 -26 -35 -31 -35 -4 0 -5 -7 -2 -17 4
-10 2 -14 -5 -9 -14 8 -36 -30 -26 -46 4 -6 3 -8 -3 -5 -11 7 -27 -20 -24 -40
1 -6 -4 -15 -10 -19 -8 -5 -9 -3 -4 6 5 9 4 11 -4 6 -9 -6 -9 -11 1 -24 9 -11
9 -14 1 -9 -8 5 -15 -1 -19 -18 -3 -14 -13 -25 -20 -25 -11 0 -12 -5 -5 -19 7
-13 6 -24 -4 -37 -10 -14 -14 -15 -15 -5 0 8 -3 12 -6 8 -3 -3 -2 -12 2 -19 5
-7 9 -28 11 -45 1 -24 -2 -33 -14 -33 -12 0 -13 -3 -4 -13 8 -11 5 -19 -14
-35 -14 -12 -25 -28 -25 -36 0 -7 -30 -47 -66 -87 -65 -73 -143 -170 -159
-199 -11 -20 2 -6 47 50 79 100 177 189 278 252 316 199 622 259 884 171 186
-61 475 -232 598 -354 40 -40 64 -65 53 -56 -11 9 -51 30 -88 48 -151 70 -309
44 -499 -84 -107 -71 -201 -162 -359 -347 -64 -74 -137 -152 -162 -173 -39
-32 -45 -41 -37 -57 9 -17 5 -20 -36 -26 -202 -30 -626 78 -732 187 l-32 33 0
-27 c0 -42 24 -90 58 -119 77 -64 293 -144 489 -179 96 -17 140 -20 233 -15
200 10 288 33 452 117 55 28 102 48 104 46 3 -3 -23 -19 -58 -37 -35 -18 -150
-82 -256 -142 -106 -61 -226 -125 -266 -143 -77 -36 -239 -74 -328 -77 l-53
-1 65 -8 c47 -5 27 -6 -70 -4 -124 2 -144 5 -240 38 -58 19 -107 31 -108 26
-2 -5 -9 -6 -14 -3 -7 4 -8 2 -4 -4 4 -7 13 -12 19 -12 7 0 13 -8 13 -19 0
-11 -5 -17 -13 -14 -7 3 -13 8 -13 12 0 3 -9 12 -21 19 -17 11 -20 11 -14 0 3
-7 0 -5 -8 5 -8 9 -22 17 -31 17 -9 0 -16 7 -16 16 0 13 3 14 13 5 8 -6 17 -8
20 -4 4 3 7 1 7 -5 0 -6 7 -9 15 -6 27 11 16 22 -52 49 -110 43 -454 189 -558
235 -22 10 -74 32 -115 48 -74 30 -266 111 -325 137 -81 37 -327 140 -465 195
-139 55 -290 119 -405 170 -22 10 -130 54 -240 98 -110 44 -348 140 -530 215
-181 74 -366 149 -410 167 -44 18 -101 40 -126 51 -45 18 -95 16 -83 -3 4 -6
-2 -8 -12 -6 -11 2 -20 9 -20 16 -1 6 -2 18 -3 26 0 8 -8 17 -17 20 -12 5 -15
2 -10 -10 5 -12 2 -15 -9 -10 -9 3 -13 2 -10 -4 3 -6 -3 -10 -13 -10 -11 0
-23 -7 -26 -16 -5 -13 -3 -14 6 -7 7 6 24 13 38 16 24 6 24 5 6 -8 -11 -8 -25
-15 -30 -16 -6 0 -2 -4 9 -9 16 -7 14 -8 -12 -7 -17 1 -29 5 -26 10 2 4 -1 7
-8 7 -9 0 -9 3 0 14 10 12 8 13 -8 9 -12 -3 -18 -10 -14 -16 3 -6 1 -7 -6 -3
-7 4 -15 -2 -20 -16 -10 -22 -10 -22 -8 4 1 15 4 25 8 22 4 -2 9 5 12 17 5 17
3 18 -10 8 -12 -10 -16 -10 -24 2 -8 12 -10 12 -8 -1 4 -44 -25 -59 -53 -26
-18 19 -18 19 -18 -2 0 -15 -6 -22 -19 -22 -15 0 -19 6 -16 25 1 14 -2 28 -6
31 -5 3 -10 -3 -10 -13 -1 -10 -5 -4 -9 12 -6 22 -8 25 -9 9 0 -12 -12 -29
-26 -38 -22 -15 -25 -15 -34 2 -10 16 -10 15 -11 -3 0 -17 -2 -17 -10 -5 -5 8
-10 11 -10 5 0 -5 -5 -3 -11 5 -8 11 -12 12 -16 3 -7 -19 -27 -16 -41 7 -9 15
-17 18 -30 12 -9 -5 -23 -7 -29 -5 -7 3 -13 -1 -13 -7 0 -9 -4 -9 -12 -3 -7 6
-27 10 -44 10 -16 0 -35 3 -41 6 -7 4 -15 3 -18 -3 -5 -8 -11 -7 -21 1 -8 6
-21 8 -31 4 -10 -5 -21 -7 -25 -7 -5 1 -8 -2 -8 -6 0 -5 -10 -8 -22 -7 -15 1
-22 8 -22 19 2 14 -1 14 -13 4 -16 -13 -53 -19 -53 -7 0 4 -6 9 -13 12 -15 6
-16 -20 -2 -42 6 -10 4 -12 -6 -6 -11 6 -11 5 -2 -5 6 -7 35 -23 65 -35 133
-57 296 -127 323 -140 40 -18 256 -107 380 -157 55 -22 101 -43 103 -48 2 -5
9 -7 16 -4 8 3 21 -2 30 -11 9 -9 20 -13 26 -10 5 3 10 2 10 -4 0 -5 10 -12
23 -16 23 -7 42 -14 92 -36 17 -7 33 -12 37 -11 10 2 285 -113 341 -143 26
-15 53 -23 60 -19 6 4 9 3 4 -1 -4 -5 25 -21 65 -36 40 -15 84 -31 98 -37 14
-5 27 -9 30 -9 3 0 16 -6 30 -13 14 -8 33 -14 43 -15 11 -1 22 -8 27 -15 4 -7
13 -9 20 -5 9 5 11 4 6 -3 -4 -7 -1 -12 8 -12 24 0 270 -100 278 -113 4 -6 10
-8 14 -4 4 4 17 1 28 -6 12 -7 77 -35 146 -61 69 -27 139 -57 155 -66 17 -10
59 -30 95 -45 36 -15 89 -38 118 -51 29 -13 95 -38 145 -55 124 -42 223 -81
350 -138 27 -12 83 -36 125 -52 42 -17 97 -40 121 -51 25 -11 97 -40 160 -65
64 -24 119 -50 123 -56 4 -7 8 -9 8 -4 0 4 15 0 33 -9 17 -10 100 -43 182 -75
83 -32 193 -75 246 -97 53 -22 127 -50 165 -62 38 -12 74 -26 79 -30 6 -4 42
-17 80 -30 92 -31 227 -31 373 0 154 32 199 51 404 165 103 58 297 162 430
232 134 69 286 149 338 178 52 29 194 103 315 165 121 62 247 130 280 152 101
67 99 61 108 308 10 249 7 265 -59 339 -58 65 -95 86 -269 156 -137 56 -179
73 -595 250 -359 152 -871 355 -897 355 -7 0 -13 -4 -13 -9z m1670 -945 c0
-12 -919 -490 -927 -482 -2 2 76 45 174 94 245 124 360 190 431 250 34 28 71
53 84 57 13 4 37 13 53 20 17 7 50 18 75 25 25 6 59 18 75 25 36 16 35 16 35
11z m-945 -496 c-3 -5 -11 -10 -16 -10 -6 0 -7 5 -4 10 3 6 11 10 16 10 6 0 7
-4 4 -10z m-1279 -417 c-6 -6 -36 9 -36 18 0 5 9 4 20 -3 10 -7 18 -14 16 -15z"/>
<path d="M29035 6721 c-6 -5 -48 -29 -95 -54 l-85 -46 -110 49 c-60 27 -112
47 -114 44 -7 -7 -2 -9 116 -59 l113 -47 105 57 c58 31 105 58 105 61 0 8 -26
4 -35 -5z"/>
<path d="M27580 6700 c8 -5 20 -10 25 -10 6 0 3 5 -5 10 -8 5 -19 10 -25 10
-5 0 -3 -5 5 -10z"/>
<path d="M25760 6690 c8 -5 20 -10 25 -10 6 0 3 5 -5 10 -8 5 -19 10 -25 10
-5 0 -3 -5 5 -10z"/>
<path d="M27630 6680 c8 -5 20 -10 25 -10 6 0 3 5 -5 10 -8 5 -19 10 -25 10
-5 0 -3 -5 5 -10z"/>
<path d="M28010 6633 l-105 -54 -64 25 c-36 14 -66 24 -68 22 -2 -2 15 -11 39
-21 55 -22 133 -47 125 -39 -3 3 29 23 71 44 83 42 120 66 112 73 -3 2 -52
-21 -110 -50z"/>
<path d="M27730 6640 c8 -5 20 -10 25 -10 6 0 3 5 -5 10 -8 5 -19 10 -25 10
-5 0 -3 -5 5 -10z"/>
<path d="M27582 6580 c-46 -26 -84 -51 -84 -56 0 -10 103 -55 322 -139 91 -35
191 -75 224 -90 32 -14 60 -24 63 -22 2 3 -26 17 -61 32 l-66 28 90 51 c49 27
87 52 85 54 -2 2 -45 -19 -97 -47 l-93 -50 -104 40 c-57 21 -107 41 -109 44
-7 7 -5 9 73 48 39 19 79 43 90 52 11 8 -26 -7 -82 -35 -57 -27 -108 -50 -114
-50 -15 0 -191 70 -203 81 -5 5 -1 11 10 16 26 10 154 84 154 89 0 9 -18 0
-98 -46z"/>
<path d="M25957 6609 c7 -7 15 -10 18 -7 3 3 -2 9 -12 12 -14 6 -15 5 -6 -5z"/>
<path d="M29241 6563 c-76 -39 -111 -53 -130 -49 -26 5 -26 5 -3 -6 20 -10 35
-6 111 32 72 35 151 83 131 79 -3 -1 -52 -26 -109 -56z"/>
<path d="M27295 6602 c15 -14 175 -75 181 -69 3 2 -8 9 -23 15 -15 6 -59 22
-98 37 -38 14 -65 22 -60 17z"/>
<path d="M28869 6599 c-10 -6 -9 -8 6 -7 11 1 30 -2 43 -6 33 -11 27 0 -7 12
-16 6 -34 6 -42 1z"/>
<path d="M26000 6590 c8 -5 20 -10 25 -10 6 0 3 5 -5 10 -8 5 -19 10 -25 10
-5 0 -3 -5 5 -10z"/>
<path d="M28733 6552 c-51 -26 -93 -49 -93 -53 0 -7 172 -80 178 -75 2 2 -34
19 -79 37 l-81 34 91 42 c50 23 91 47 91 53 0 15 -7 13 -107 -38z"/>
<path d="M28264 6534 l-102 -55 -77 31 c-43 17 -79 29 -82 27 -2 -3 32 -19 77
-37 l80 -32 83 39 c69 34 145 83 127 82 -3 0 -51 -25 -106 -55z"/>
<path d="M28421 6586 c10 -10 193 -86 200 -84 5 2 -35 22 -89 46 -88 38 -123
50 -111 38z"/>
<path d="M26050 6570 c8 -5 20 -10 25 -10 6 0 3 5 -5 10 -8 5 -19 10 -25 10
-5 0 -3 -5 5 -10z"/>
<path d="M27960 6550 c8 -5 20 -10 25 -10 6 0 3 5 -5 10 -8 5 -19 10 -25 10
-5 0 -3 -5 5 -10z"/>
<path d="M29050 6530 c8 -5 20 -10 25 -10 6 0 3 5 -5 10 -8 5 -19 10 -25 10
-5 0 -3 -5 5 -10z"/>
<path d="M29599 6479 c-23 -19 -23 -20 -2 -10 12 6 25 16 28 21 10 16 -1 12
-26 -11z"/>
<path d="M28498 6437 c-54 -28 -98 -55 -98 -58 0 -8 51 -31 57 -25 2 2 -5 7
-17 11 -19 6 -9 15 68 56 83 45 117 69 95 69 -4 0 -52 -24 -105 -53z"/>
<path d="M29011 6444 c-52 -24 -91 -47 -87 -51 6 -6 160 69 181 88 14 14 6 11
-94 -37z"/>
<path d="M28191 6455 c9 -8 191 -76 195 -72 2 2 -38 20 -89 40 -85 34 -117 44
-106 32z"/>
<path d="M26372 6436 c7 -8 17 -12 22 -9 4 3 2 9 -5 14 -22 13 -31 11 -17 -5z"/>
<path d="M26416 6415 c4 -8 10 -13 14 -10 5 3 11 1 15 -5 4 -6 11 -8 16 -5 5
4 9 2 9 -4 0 -6 7 -8 16 -4 15 5 15 7 0 15 -9 5 -20 7 -25 4 -5 -3 -14 1 -21
9 -16 19 -31 19 -24 0z"/>
<path d="M28848 6408 c21 -11 19 -13 -35 -46 -32 -19 -81 -46 -110 -59 l-51
-24 -88 36 c-48 19 -89 33 -91 31 -2 -2 40 -21 93 -43 l96 -40 57 27 c31 15
80 44 110 64 30 20 60 35 68 32 30 -12 10 5 -23 19 -41 17 -61 19 -26 3z"/>
<path d="M25722 6375 c-11 -12 -10 -15 3 -15 8 0 15 7 15 15 0 18 -2 18 -18 0z"/>
<path d="M26325 6380 c3 -5 8 -10 11 -10 2 0 4 5 4 10 0 6 -5 10 -11 10 -5 0
-7 -4 -4 -10z"/>
<path d="M26532 6368 c5 -13 38 -20 38 -8 0 4 -9 10 -21 13 -12 3 -19 1 -17
-5z"/>
<path d="M28969 6355 c29 -14 55 -24 58 -22 2 3 -15 12 -39 22 -69 28 -78 27
-19 0z"/>
<path d="M26460 6360 c0 -5 5 -10 10 -10 6 0 10 5 10 10 0 6 -4 10 -10 10 -5
0 -10 -4 -10 -10z"/>
<path d="M29235 6324 c-44 -24 -76 -44 -72 -44 9 0 95 43 140 70 59 36 13 19
-68 -26z"/>
<path d="M28355 6321 c-6 -5 -40 -26 -78 -46 -57 -31 -71 -35 -95 -27 -60 22
-66 22 -32 3 19 -11 46 -20 59 -21 23 0 155 72 167 91 7 12 -9 12 -21 0z"/>
<path d="M29050 6320 c8 -5 20 -10 25 -10 6 0 3 5 -5 10 -8 5 -19 10 -25 10
-5 0 -3 -5 5 -10z"/>
<path d="M25688 6303 c7 -3 16 -2 19 1 4 3 -2 6 -13 5 -11 0 -14 -3 -6 -6z"/>
<path d="M29100 6300 c8 -5 20 -10 25 -10 6 0 3 5 -5 10 -8 5 -19 10 -25 10
-5 0 -3 -5 5 -10z"/>
<path d="M29095 6254 c-30 -23 -152 -84 -169 -84 -8 0 -61 20 -119 45 -58 25
-112 45 -119 45 -7 0 50 -27 126 -60 77 -33 141 -58 144 -55 3 3 -1 5 -9 5 -8
0 27 23 78 50 51 28 95 55 98 60 9 15 -7 11 -30 -6z"/>
<path d="M29200 6260 c8 -5 20 -10 25 -10 6 0 3 5 -5 10 -8 5 -19 10 -25 10
-5 0 -3 -5 5 -10z"/>
<path d="M28555 6209 c-119 -66 -127 -67 -229 -25 -49 20 -90 35 -92 33 -3 -2
42 -23 98 -45 57 -23 132 -53 166 -68 35 -14 66 -24 68 -21 3 2 -22 14 -56 27
-33 12 -60 24 -60 26 0 3 37 22 83 45 45 22 89 46 97 54 23 23 0 16 -75 -26z"/>
<path d="M28088 6175 c-67 -39 -100 -65 -84 -65 13 0 176 94 176 102 0 14 -14
9 -92 -37z"/>
<path d="M28753 6098 c-91 -47 -92 -47 -129 -32 -20 8 -38 13 -40 11 -2 -2 33
-18 77 -36 45 -17 84 -30 86 -27 2 2 -12 9 -32 16 l-36 12 68 33 c72 35 111
61 103 67 -3 3 -46 -17 -97 -44z"/>
<path d="M29000 6120 c19 -11 40 -19 45 -19 6 0 -6 8 -25 19 -19 11 -39 19
-45 19 -5 0 6 -8 25 -19z"/>
<path d="M28320 6070 c-47 -27 -78 -50 -70 -50 16 0 170 86 170 95 0 11 -19 2
-100 -45z"/>
<path d="M29090 6080 c19 -11 40 -19 45 -19 6 0 -6 8 -25 19 -19 11 -39 19
-45 19 -5 0 6 -8 25 -19z"/>
<path d="M28570 5959 c-92 -53 -93 -68 -1 -19 63 35 97 58 90 64 -2 2 -42 -18
-89 -45z"/>
</g>
</svg>
