<?xml version="1.0" standalone="no"?>
<!DOCTYPE svg PUBLIC "-//W3C//DTD SVG 20010904//EN"
 "http://www.w3.org/TR/2001/REC-SVG-20010904/DTD/svg10.dtd">
<svg version="1.0" xmlns="http://www.w3.org/2000/svg"
 width="1920.000000pt" height="1080.000000pt" viewBox="0 0 1920.000000 1080.000000"
 preserveAspectRatio="xMidYMid meet">

<g transform="translate(0.000000,1080.000000) scale(0.100000,-0.100000)"
fill="#000000" stroke="none">
<path d="M0 5400 l0 -5400 9600 0 9600 0 0 5400 0 5400 -9600 0 -9600 0 0
-5400z m765 4905 c-38 -7 -87 -20 -108 -28 l-37 -16 2 -65 c2 -35 7 -62 12
-58 5 3 6 0 2 -7 -11 -16 28 -74 81 -121 l45 -40 28 20 c16 11 41 35 56 53 15
17 32 31 37 29 5 -2 7 4 4 12 -3 8 -2 16 3 18 16 5 33 119 22 143 -10 22 -69
43 -124 46 -13 1 0 5 27 10 31 5 51 4 53 -1 2 -6 12 -10 22 -10 42 0 50 -10
50 -66 0 -29 -9 -77 -20 -107 -20 -52 -87 -143 -98 -133 -3 3 -11 -3 -19 -14
-22 -32 -50 -24 -108 30 -63 60 -96 129 -103 216 l-5 61 44 16 c61 22 75 25
144 25 l60 0 -70 -13z m-13 -97 c-21 -21 -13 -38 18 -38 34 0 41 23 13 39 -16
9 -16 10 -1 11 20 0 38 -48 38 -101 l0 -39 -51 0 -52 0 6 59 c5 64 12 81 30
81 8 0 8 -3 -1 -12z m418 -18 c0 -5 -11 -10 -25 -10 -38 0 -35 -39 3 -41 l27
-2 -27 -4 c-22 -3 -28 -10 -28 -29 0 -13 -4 -24 -10 -24 -11 0 -14 103 -3 113
10 11 63 8 63 -3z m63 -24 c14 27 21 31 66 33 30 1 51 -2 51 -9 0 -5 -9 -10
-20 -10 -17 0 -20 -7 -22 -52 l-2 -53 -3 53 c-4 46 -6 52 -27 52 -25 0 -46
-34 -46 -75 0 -14 -4 -25 -10 -25 -5 0 -10 10 -10 23 -1 12 -7 33 -15 47 -8
14 -14 32 -14 40 0 8 8 0 18 -19 l19 -35 15 30z m232 24 c4 -6 -5 -10 -19 -10
-34 0 -34 -23 0 -38 38 -18 30 -56 -13 -60 -18 -2 -33 1 -33 5 0 5 12 9 27 8
37 0 40 21 4 40 -35 17 -40 39 -13 54 22 13 39 14 47 1z m118 -10 c13 -12 11
-68 -3 -85 -15 -18 -61 -20 -78 -3 -21 21 -15 75 10 92 21 15 53 13 71 -4z
m82 -91 c29 -6 29 -7 -7 -8 l-38 -1 2 63 1 62 6 -55 c6 -51 8 -55 36 -61z m55
55 c0 -31 5 -46 16 -51 23 -9 37 12 45 65 l6 47 2 -50 c1 -55 -11 -75 -44 -75
-12 0 -26 5 -33 12 -15 15 -17 112 -2 103 6 -3 10 -26 10 -51z m170 46 c0 -5
-7 -10 -15 -10 -11 0 -15 -12 -15 -50 0 -27 -4 -50 -10 -50 -5 0 -10 23 -10
50 0 38 -4 50 -15 50 -8 0 -15 5 -15 10 0 6 18 10 40 10 22 0 40 -4 40 -10z
m27 -82 c-2 -18 -4 -4 -4 32 0 36 2 50 4 33 2 -18 2 -48 0 -65z m111 76 c15
-10 22 -25 22 -48 0 -39 -15 -56 -50 -56 -35 0 -50 17 -50 56 0 29 27 64 50
64 3 0 16 -7 28 -16z m104 -45 l17 -24 0 38 c1 20 6 37 11 37 6 0 10 -25 10
-55 0 -30 -4 -55 -10 -55 -5 0 -23 21 -39 47 l-30 47 -4 -49 c-3 -45 -4 -44
-5 15 -1 71 0 71 50 -1z m123 51 c4 -6 -5 -10 -19 -10 -34 0 -34 -23 0 -38 38
-18 30 -56 -13 -60 -18 -2 -33 1 -33 5 0 5 12 9 27 8 37 0 40 21 4 40 -35 17
-40 39 -13 54 22 13 39 14 47 1z m16210 0 c-4 -6 -67 -10 -156 -10 -93 0 -149
4 -149 10 0 6 59 10 156 10 101 0 153 -3 149 -10z m-8710 -1560 c313 -27 613
-100 898 -220 42 -18 76 -34 74 -36 -1 -2 -52 13 -112 32 -418 133 -925 149
-1360 43 -171 -41 -372 -115 -530 -194 l-160 -80 1 -160 c3 -341 74 -652 215
-945 67 -140 65 -145 -11 -20 -157 260 -282 565 -349 853 -33 138 -73 399 -64
408 16 16 181 93 291 135 228 88 487 152 727 178 163 17 229 18 380 6z m320
-161 c276 -20 728 -114 763 -157 15 -20 17 -369 1 -510 -66 -613 -358 -1176
-804 -1549 -97 -82 -199 -155 -280 -203 -51 -30 -47 -25 50 51 453 356 756
890 830 1463 28 219 18 595 -17 618 -33 21 -274 110 -373 137 -266 75 -562
110 -777 91 -144 -12 -315 -41 -447 -76 -52 -13 -96 -23 -98 -20 -5 5 273 82
362 100 126 26 297 48 430 56 195 11 209 11 360 -1z m-1704 -429 c42 -347 172
-710 364 -1020 190 -305 519 -636 799 -803 l69 -41 41 23 c86 49 275 200 371
296 287 287 481 648 570 1060 27 126 33 114 9 -19 -40 -232 -120 -469 -231
-688 -139 -276 -335 -527 -573 -736 -47 -41 -85 -79 -85 -86 -1 -6 -7 -10 -14
-8 -7 1 -26 -9 -43 -23 -16 -14 -36 -25 -43 -25 -34 0 -281 157 -396 251 -241
199 -380 358 -531 613 -160 268 -267 583 -312 911 -19 142 -31 405 -20 441 8
27 9 26 11 -16 2 -25 8 -83 14 -130z m1341 -104 c59 -28 115 -83 143 -139 20
-42 27 -74 32 -155 l6 -101 36 -3 36 -3 3 -299 c2 -233 -1 -301 -10 -308 -22
-13 -712 -10 -726 4 -17 17 -17 579 0 596 7 7 27 12 45 12 l33 0 0 98 c0 90 3
104 31 160 54 108 151 165 269 159 36 -2 82 -12 102 -21z m915 -163 c-3 -10
-5 -2 -5 17 0 19 2 27 5 18 2 -10 2 -26 0 -35z m-10 -90 c-3 -10 -5 -2 -5 17
0 19 2 27 5 18 2 -10 2 -26 0 -35z m-6359 -2177 c148 -68 211 -209 212 -478
l0 -88 -134 0 -134 0 -4 128 c-6 176 -27 211 -129 212 -68 0 -102 -25 -119
-89 -7 -28 -10 -200 -8 -545 3 -494 3 -505 24 -533 11 -15 40 -35 62 -43 37
-13 47 -13 84 0 75 27 82 48 87 236 l3 164 136 0 135 0 -6 -172 c-6 -193 -21
-261 -76 -347 -34 -53 -78 -88 -156 -123 -43 -19 -67 -22 -170 -22 -100 0
-129 4 -176 22 -109 43 -180 130 -214 260 -14 55 -15 131 -13 610 3 531 4 549
24 604 44 115 110 182 217 220 42 15 75 18 172 15 108 -2 127 -6 183 -31z
m5076 -1 c128 -64 185 -172 201 -382 l6 -83 -134 0 -134 0 -7 81 c-7 88 -24
132 -57 150 -31 16 -106 13 -135 -6 -73 -48 -72 -208 3 -316 17 -24 103 -116
190 -204 150 -150 163 -166 206 -255 58 -118 73 -202 58 -322 -15 -115 -26
-148 -74 -220 -37 -55 -52 -68 -121 -103 l-78 -40 -122 1 c-150 0 -214 21
-287 94 -85 85 -119 186 -119 358 l0 102 134 0 134 0 4 -114 c3 -105 5 -117
27 -140 39 -41 91 -53 144 -32 64 24 81 61 75 164 -6 112 -38 161 -206 327
-244 238 -302 342 -302 541 0 234 78 362 255 421 27 8 79 12 160 10 109 -3
125 -6 179 -32z m1809 -3 c79 -39 133 -100 168 -189 19 -49 23 -83 27 -215 l4
-158 -136 0 -136 0 0 136 0 136 -34 34 c-42 42 -114 50 -164 17 -52 -33 -53
-42 -50 -608 l3 -523 24 -26 c57 -60 176 -53 208 12 4 9 10 91 13 182 l5 165
133 3 132 3 0 -160 c0 -225 -22 -308 -107 -402 -77 -85 -220 -124 -372 -101
-99 14 -166 47 -221 109 -46 51 -65 89 -86 168 -20 72 -20 1107 0 1180 35 134
115 221 239 261 28 9 82 13 162 11 114 -2 124 -4 188 -35z m-6324 6 c5 -13 48
-174 96 -358 48 -184 91 -338 94 -342 4 -4 49 154 101 352 l95 360 137 0 137
0 -9 -27 c-5 -16 -81 -272 -169 -570 l-161 -541 0 -281 0 -281 -140 0 -140 0
0 279 0 278 -170 573 c-93 314 -170 574 -170 576 0 2 65 4 145 4 142 0 146 -1
154 -22z m1372 -24 c81 -38 129 -94 159 -184 19 -55 22 -87 22 -200 0 -182
-20 -251 -98 -327 -32 -31 -48 -53 -39 -53 30 0 111 -93 136 -155 20 -52 23
-83 27 -230 4 -185 -4 -247 -44 -327 -49 -98 -138 -157 -264 -177 -36 -6 -170
-11 -297 -11 l-233 0 0 851 0 850 283 -3 282 -3 66 -31z m1089 -89 l0 -125
-225 0 -225 0 0 -230 0 -230 180 0 180 0 0 -125 0 -125 -180 0 -180 0 0 -240
0 -240 225 0 225 0 0 -130 0 -130 -370 0 -370 0 0 850 0 850 370 0 370 0 0
-125z m761 97 c100 -40 165 -125 189 -249 18 -90 9 -353 -15 -418 -22 -63 -65
-124 -103 -149 l-30 -20 39 -28 c95 -69 119 -154 119 -433 0 -185 7 -277 25
-347 l7 -28 -144 0 -145 0 -11 51 c-7 30 -12 137 -12 268 0 325 -16 360 -171
369 l-79 5 0 -347 0 -346 -140 0 -140 0 0 851 0 850 278 -3 c260 -3 280 -5
333 -26z m2369 -97 l0 -125 -225 0 -225 0 0 -230 0 -230 180 0 180 0 0 -125 0
-125 -180 0 -180 0 0 -240 0 -240 225 0 225 0 0 -130 0 -130 -370 0 -370 0 0
850 0 850 370 0 370 0 0 -125z m1350 -554 c0 -458 3 -688 11 -709 29 -85 186
-93 226 -12 10 19 13 183 13 713 l0 687 135 0 136 0 -3 -712 c-3 -703 -3 -714
-25 -770 -59 -156 -161 -226 -343 -236 -219 -11 -350 71 -412 258 -22 64 -22
78 -26 763 l-3 697 145 0 146 0 0 -679z m1275 657 c172 -56 235 -197 222 -498
-6 -162 -28 -224 -103 -297 l-53 -52 33 -21 c18 -11 45 -37 60 -59 52 -74 58
-115 66 -406 4 -154 12 -285 19 -305 6 -19 11 -36 11 -37 0 -2 -65 -3 -144 -3
l-143 0 -11 43 c-7 23 -13 152 -15 287 -3 212 -6 250 -21 281 -26 51 -66 71
-153 77 l-73 5 0 -347 0 -346 -140 0 -140 0 0 850 0 850 260 0 c239 0 265 -2
325 -22z m665 -828 l0 -850 -145 0 -145 0 0 850 0 850 145 0 145 0 0 -850z
m940 725 l0 -124 -137 -3 -138 -3 -3 -722 -2 -723 -140 0 -140 0 -2 723 -3
722 -137 3 -138 3 0 124 0 125 420 0 420 0 0 -125z m310 120 c0 -15 184 -701
189 -707 4 -4 49 154 101 352 l95 360 137 0 137 0 -9 -27 c-5 -16 -81 -272
-170 -570 l-160 -541 0 -281 0 -281 -140 0 -140 0 0 279 0 279 -154 519 c-85
285 -161 542 -169 571 l-16 52 150 0 c82 0 149 -2 149 -5z"/>
<path d="M866 10053 c-6 -14 -5 -15 5 -6 7 7 10 15 7 18 -3 3 -9 -2 -12 -12z"/>
<path d="M834 10008 l-19 -23 23 19 c21 18 27 26 19 26 -2 0 -12 -10 -23 -22z"/>
<path d="M760 10118 c0 -19 2 -20 10 -8 13 19 13 30 0 30 -5 0 -10 -10 -10
-22z"/>
<path d="M1514 10166 c-3 -8 -4 -27 -2 -43 2 -22 8 -28 27 -28 30 0 46 24 37
58 -5 20 -13 27 -32 27 -13 0 -27 -6 -30 -14z"/>
<path d="M1970 10164 c-21 -24 -1 -69 30 -69 18 0 27 8 34 27 11 31 -5 58 -34
58 -10 0 -23 -7 -30 -16z"/>
<path d="M9538 7876 c-52 -19 -83 -40 -111 -78 -36 -48 -47 -92 -47 -179 l0
-79 215 0 215 0 0 88 c0 74 -4 96 -25 139 -28 56 -77 95 -140 112 -50 14 -61
13 -107 -3z"/>
<path d="M9570 7353 c-52 -19 -68 -88 -30 -136 15 -18 20 -40 20 -81 0 -45 4
-57 20 -66 33 -18 60 19 60 81 0 36 6 58 20 76 28 36 25 70 -9 104 -28 28 -49
34 -81 22z"/>
<path d="M3913 5501 c-104 -36 -168 -97 -206 -199 -22 -56 -22 -68 -22 -627
l0 -570 25 -65 c33 -87 103 -159 183 -189 118 -43 265 -37 369 15 137 69 188
197 188 470 l0 114 -114 0 -114 0 -4 -153 c-3 -135 -6 -157 -26 -188 -27 -45
-58 -59 -128 -59 -40 0 -64 6 -84 20 -55 39 -55 40 -55 610 l0 525 22 36 c28
44 59 59 124 59 109 0 141 -48 147 -222 l4 -118 116 0 115 0 -6 133 c-8 183
-31 251 -107 329 -47 46 -68 60 -124 77 -88 27 -228 28 -303 2z"/>
<path d="M9080 5519 c-126 -14 -198 -54 -257 -143 -38 -56 -53 -105 -62 -200
-14 -140 16 -265 87 -371 20 -30 109 -128 198 -217 185 -188 216 -237 222
-349 5 -82 -10 -130 -49 -164 -26 -21 -41 -25 -93 -25 -110 0 -146 49 -146
200 l0 90 -116 0 -116 0 4 -117 c5 -139 27 -212 86 -282 97 -117 323 -155 486
-82 103 46 169 152 187 303 15 117 1 209 -46 305 -45 93 -63 115 -244 298
-118 120 -165 174 -185 217 -52 107 -45 242 16 293 24 20 41 25 84 25 105 0
144 -45 144 -169 l0 -71 121 0 121 0 -7 78 c-13 145 -34 209 -91 272 -41 45
-88 76 -136 91 -52 17 -148 25 -208 18z"/>
<path d="M10799 5504 c-101 -31 -192 -120 -219 -212 -26 -89 -32 -232 -28
-687 5 -517 6 -527 67 -627 41 -65 75 -94 154 -127 53 -22 77 -25 167 -25 123
1 197 24 262 82 89 80 115 163 125 385 l6 157 -121 0 -122 0 0 -150 c0 -164
-6 -190 -56 -229 -40 -32 -142 -30 -181 3 -51 43 -53 62 -53 607 0 473 2 507
19 546 24 52 63 73 134 73 40 0 61 -6 81 -21 47 -37 56 -68 56 -199 l0 -120
121 0 122 0 -7 130 c-8 149 -30 234 -76 299 -36 50 -106 96 -174 116 -63 19
-216 18 -277 -1z"/>
<path d="M4550 5501 c0 -6 74 -260 165 -566 l165 -555 0 -270 0 -270 120 0
120 0 0 271 0 271 159 537 c88 295 163 549 166 564 l7 27 -115 0 -115 0 -17
-62 c-9 -35 -56 -214 -104 -398 l-89 -335 -15 55 c-9 30 -52 195 -97 365 -45
171 -86 325 -91 343 l-11 32 -124 0 c-71 0 -124 -4 -124 -9z"/>
<path d="M5587 5503 c-4 -3 -7 -379 -7 -835 l0 -828 231 0 c261 0 333 11 420
63 59 35 111 102 131 170 9 28 13 108 13 232 0 160 -3 199 -19 244 -22 65 -74
124 -133 155 l-44 22 44 31 c86 60 120 131 132 268 8 99 -8 241 -33 298 -44
99 -129 159 -249 177 -76 11 -476 14 -486 3z m472 -249 c40 -33 51 -77 51
-204 -1 -182 -42 -229 -202 -230 l-78 0 0 230 0 230 99 0 c92 0 102 -2 130
-26z m1 -680 c64 -36 75 -76 75 -261 0 -148 -2 -164 -21 -190 -36 -49 -78 -63
-186 -63 l-98 0 0 271 0 271 98 -4 c74 -3 106 -8 132 -24z"/>
<path d="M5850 5056 l0 -216 73 0 c134 0 167 42 167 215 0 171 -24 203 -160
212 l-80 6 0 -217z"/>
<path d="M5850 4330 l0 -252 98 4 c157 7 167 21 167 243 0 164 -7 191 -58 229
-23 17 -46 22 -118 24 l-89 4 0 -252z"/>
<path d="M6560 4675 l0 -835 350 0 350 0 0 110 0 110 -225 0 -225 0 0 255 0
255 180 0 180 0 0 115 0 115 -180 0 -180 0 0 240 0 240 225 0 225 0 0 115 0
115 -350 0 -350 0 0 -835z"/>
<path d="M7450 4676 l0 -836 120 0 120 0 2 343 3 342 62 3 c85 4 135 -11 171
-52 43 -49 52 -108 52 -349 0 -117 5 -229 11 -249 l10 -38 126 0 c115 0 125 1
118 18 -15 35 -24 171 -25 357 0 192 -9 255 -43 320 -19 37 -62 78 -105 99
l-33 17 48 32 c58 39 105 114 123 195 8 39 11 113 8 218 -4 134 -8 168 -27
216 -30 77 -92 139 -167 168 -55 21 -78 23 -316 28 l-258 4 0 -836z m459 589
c54 -27 66 -72 66 -245 0 -131 -3 -161 -19 -193 -28 -57 -76 -77 -181 -77
l-85 0 0 265 0 265 95 0 c65 0 105 -5 124 -15z"/>
<path d="M7718 5264 c-5 -4 -8 -117 -8 -251 l0 -243 79 0 c147 0 175 45 168
275 -3 139 -16 183 -58 206 -26 13 -171 24 -181 13z"/>
<path d="M9690 4675 l0 -835 350 0 350 0 0 110 0 110 -225 0 -225 0 0 255 0
255 180 0 180 0 0 115 0 115 -180 0 -180 0 0 240 0 240 225 0 225 0 0 115 0
115 -350 0 -350 0 0 -835z"/>
<path d="M11497 5503 c-11 -11 -8 -1250 3 -1341 15 -118 42 -183 100 -242 65
-64 136 -92 255 -98 177 -9 297 52 362 183 47 94 48 110 48 825 l0 675 -117 3
-118 3 0 -683 c0 -631 -1 -686 -18 -717 -45 -89 -184 -93 -246 -8 -21 28 -21
39 -24 718 l-3 689 -118 0 c-65 0 -121 -3 -124 -7z"/>
<path d="M12470 4675 l0 -835 120 0 120 0 0 345 0 345 63 0 c118 0 183 -35
207 -112 9 -29 15 -126 19 -298 3 -140 10 -261 14 -267 6 -9 44 -13 132 -13
l125 0 -12 28 c-6 16 -14 136 -18 297 -8 298 -15 341 -71 408 -17 21 -49 47
-71 58 l-40 20 45 30 c95 63 128 142 134 329 8 216 -19 331 -99 410 -72 72
-161 90 -460 90 l-208 0 0 -835z m465 583 c47 -37 55 -72 55 -240 0 -169 -9
-202 -63 -242 -23 -17 -47 -22 -123 -24 l-94 -4 0 266 0 266 99 0 c86 0 102
-3 126 -22z"/>
<path d="M12738 5264 c-5 -4 -8 -117 -8 -251 l0 -243 76 0 c90 0 136 22 153
72 6 17 11 98 11 180 0 159 -10 207 -49 228 -26 13 -173 25 -183 14z"/>
<path d="M13430 4675 l0 -835 125 0 125 0 0 835 0 835 -125 0 -125 0 0 -835z"/>
<path d="M13820 5395 l0 -115 140 0 140 0 0 -720 0 -720 120 0 120 0 0 720 0
719 138 3 137 3 3 113 3 112 -401 0 -400 0 0 -115z"/>
<path d="M14680 5500 c0 -5 74 -260 165 -565 l165 -555 0 -270 0 -270 120 0
120 0 0 271 0 271 159 537 c88 295 163 548 166 564 l7 27 -115 0 -115 0 -17
-62 c-9 -35 -56 -214 -104 -398 -87 -329 -89 -334 -100 -295 -7 22 -54 200
-105 395 l-93 355 -127 3 c-81 2 -126 -1 -126 -8z"/>
</g>
</svg>
