<?xml version="1.0" standalone="no"?>
<!DOCTYPE svg PUBLIC "-//W3C//DTD SVG 20010904//EN"
 "http://www.w3.org/TR/2001/REC-SVG-20010904/DTD/svg10.dtd">
<svg version="1.0" xmlns="http://www.w3.org/2000/svg"
 width="1080.000000pt" height="1080.000000pt" viewBox="0 0 1080.000000 1080.000000"
 preserveAspectRatio="xMidYMid meet">

<g transform="translate(0.000000,1080.000000) scale(0.100000,-0.100000)"
fill="#000000" stroke="none">
<path d="M1188 9941 c-151 -49 -270 -166 -324 -320 l-24 -66 0 -4155 0 -4155
24 -66 c55 -157 180 -278 335 -323 50 -15 446 -16 4201 -16 3764 0 4151 1
4201 16 166 49 310 200 349 366 13 59 13 8297 0 8356 -39 166 -183 317 -349
366 -50 15 -436 16 -4205 15 -3979 0 -4153 -1 -4208 -18z m8363 -21 c121 -23
252 -118 317 -232 67 -116 62 235 62 -4288 0 -4515 4 -4172 -60 -4286 -66
-114 -198 -211 -319 -234 -74 -14 -8228 -14 -8302 0 -121 23 -261 126 -322
238 -61 112 -57 -209 -57 4282 0 4492 -4 4170 57 4282 59 108 200 215 313 237
65 13 8243 14 8311 1z"/>
<path d="M1645 9085 c0 -102 1 -105 23 -105 19 0 22 5 22 40 l0 40 40 0 c32 0
40 4 40 18 0 14 -7 17 -40 14 -39 -4 -40 -3 -40 27 0 31 1 31 51 31 43 0 50 3
45 16 -3 9 -6 18 -6 20 0 2 -30 4 -67 4 l-68 0 0 -105z"/>
<path d="M1850 9118 c23 -42 40 -87 40 -105 0 -28 4 -33 23 -33 20 0 23 4 20
28 -3 18 9 51 36 101 23 41 41 75 41 77 0 2 -10 4 -22 4 -18 -1 -29 -13 -49
-58 l-26 -57 -29 58 c-22 44 -33 57 -51 57 -22 0 -21 -2 17 -72z"/>
<path d="M2030 9170 c0 -16 6 -20 30 -20 l30 0 0 -85 c0 -81 1 -85 23 -85 21
0 22 3 19 85 l-3 85 36 0 c29 0 36 3 33 18 -3 14 -16 17 -86 20 -77 3 -82 2
-82 -18z"/>
<path d="M2332 9174 c-24 -17 -30 -65 -9 -82 6 -5 31 -16 54 -22 75 -23 59
-65 -22 -58 -38 3 -45 0 -45 -15 0 -16 8 -18 61 -15 53 3 65 7 80 28 29 39 16
66 -43 86 -78 26 -75 70 5 60 31 -3 37 -1 37 15 0 16 -7 19 -48 19 -27 0 -57
-7 -70 -16z"/>
<path d="M2532 9167 c-18 -19 -22 -35 -22 -85 0 -79 19 -102 85 -102 66 0 85
23 85 103 0 53 -4 67 -23 85 -33 31 -96 30 -125 -1z m89 -17 c15 -9 19 -22 19
-66 0 -48 -3 -56 -24 -65 -17 -8 -29 -8 -45 0 -17 10 -21 21 -21 66 0 41 4 56
18 64 22 13 29 13 53 1z"/>
<path d="M2738 9085 l-3 -105 61 0 c57 0 74 8 74 35 0 1 -20 0 -45 -3 l-45 -5
0 92 c0 83 -2 91 -19 91 -18 0 -20 -9 -23 -105z"/>
<path d="M2908 9108 c4 -102 22 -128 87 -128 67 0 85 27 85 128 0 75 -2 82
-20 82 -18 0 -20 -7 -20 -80 0 -75 -2 -81 -24 -91 -17 -8 -29 -8 -45 0 -19 10
-21 20 -21 91 0 76 -1 80 -22 80 -22 0 -23 -3 -20 -82z"/>
<path d="M3120 9170 c0 -16 6 -20 30 -20 l30 0 0 -85 c0 -81 1 -85 23 -85 21
0 22 3 19 85 l-3 85 36 0 c29 0 36 3 33 18 -3 14 -16 17 -86 20 -77 3 -82 2
-82 -18z"/>
<path d="M3330 9085 c0 -102 1 -105 23 -105 21 0 22 3 22 105 0 102 -1 105
-22 105 -22 0 -23 -3 -23 -105z"/>
<path d="M3455 9165 c-21 -20 -25 -34 -25 -83 0 -75 24 -102 91 -102 65 0 89
28 89 104 0 73 -28 106 -90 106 -30 0 -47 -6 -65 -25z m93 -21 c42 -29 22
-134 -26 -134 -51 0 -74 103 -30 134 12 9 25 16 28 16 3 0 16 -7 28 -16z"/>
<path d="M3660 9085 c0 -102 1 -105 23 -105 21 0 22 3 19 65 -2 36 0 65 5 65
5 0 31 -29 57 -65 66 -90 76 -87 76 24 0 49 3 96 6 105 5 12 0 16 -19 16 -24
0 -25 -1 -19 -65 3 -40 1 -65 -5 -65 -6 0 -32 29 -59 65 -27 36 -57 65 -66 65
-16 0 -18 -12 -18 -105z"/>
<path d="M3922 9174 c-24 -17 -30 -65 -9 -81 6 -6 30 -16 52 -23 52 -16 61
-25 45 -45 -10 -12 -27 -16 -62 -13 -40 2 -48 0 -48 -14 0 -28 108 -26 138 2
42 39 22 82 -45 100 -49 12 -60 25 -42 47 10 11 25 14 57 10 35 -4 42 -2 38
10 -3 8 -6 17 -6 19 0 12 -98 2 -118 -12z"/>
<path d="M2110 8055 l0 -355 95 0 95 0 0 355 0 355 -95 0 -95 0 0 -355z"/>
<path d="M3878 8313 l-3 -98 -97 -3 c-90 -2 -98 -4 -98 -22 0 -13 -7 -20 -20
-20 -13 0 -20 -7 -20 -19 0 -13 -8 -21 -22 -23 -23 -3 -23 -6 -26 -166 l-2
-162 25 -10 c14 -5 25 -16 25 -25 0 -8 7 -15 15 -15 9 0 20 -11 25 -25 l10
-25 192 2 193 3 3 353 2 352 -100 0 -99 0 -3 -97z m2 -333 c0 -164 -2 -190
-15 -190 -9 0 -20 -12 -25 -26 -7 -16 -16 -24 -28 -22 -15 3 -17 22 -20 192
-2 178 -1 188 17 193 10 3 21 13 24 24 3 11 14 19 26 19 21 0 21 -4 21 -190z"/>
<path d="M1615 8371 c-3 -11 -14 -23 -24 -26 -11 -3 -21 -15 -24 -25 -3 -11
-12 -20 -21 -20 -14 0 -16 -28 -16 -255 0 -248 1 -255 20 -255 13 0 20 -7 20
-20 0 -11 7 -20 15 -20 9 0 21 -11 27 -25 l11 -25 167 0 167 0 11 25 c6 14 19
25 27 25 13 0 15 12 13 73 l-3 72 -95 0 -95 0 -5 -74 c-5 -79 -22 -103 -40
-57 -6 16 -17 26 -30 26 -20 0 -20 6 -20 254 0 248 0 254 21 259 11 3 23 15
26 26 3 12 14 21 24 21 16 0 19 -8 19 -50 0 -44 3 -52 24 -59 13 -5 26 -19 29
-31 5 -19 11 -21 74 -18 l68 3 3 71 3 72 -31 10 c-16 6 -30 18 -30 26 0 14
-22 16 -164 16 -154 0 -165 -1 -171 -19z"/>
<path d="M4450 8375 c0 -9 -11 -21 -25 -27 -14 -6 -25 -19 -25 -30 0 -11 -7
-18 -20 -18 -18 0 -20 -7 -20 -85 0 -70 3 -85 15 -85 9 0 20 -11 25 -25 5 -14
17 -25 26 -25 9 0 18 -9 21 -20 5 -18 14 -20 75 -20 62 0 70 -2 75 -21 3 -11
17 -25 30 -30 23 -9 24 -12 21 -101 -3 -88 -4 -93 -26 -96 -14 -2 -27 -14 -33
-29 -17 -45 -34 -20 -39 58 l-5 74 -95 0 -95 0 -3 -72 c-2 -61 0 -73 13 -73 8
0 20 -11 25 -25 l10 -25 174 0 c167 0 174 1 179 21 3 11 15 23 26 26 12 3 21
14 21 24 0 12 7 19 20 19 19 0 20 7 20 100 0 93 -1 100 -20 100 -13 0 -20 7
-20 19 0 10 -9 21 -21 24 -11 3 -23 15 -26 26 -5 19 -13 21 -74 21 -54 0 -69
3 -69 14 0 8 -12 21 -27 28 -27 13 -28 17 -31 91 -3 73 -2 78 22 88 13 6 27
20 29 31 4 13 12 18 24 16 14 -2 19 -14 21 -56 2 -38 7 -52 18 -52 8 0 19 -11
24 -25 9 -25 13 -26 72 -23 l63 3 3 69 c3 75 -3 86 -49 86 -18 0 -28 6 -32 20
-5 19 -14 20 -151 20 -124 0 -146 -2 -146 -15z"/>
<path d="M4977 8344 c-4 -4 -7 -33 -7 -65 0 -52 -2 -58 -22 -61 -33 -4 -35
-34 -4 -42 l26 -6 0 -210 c0 -182 2 -210 15 -210 9 0 20 -11 25 -25 9 -25 10
-25 140 -25 129 0 131 0 140 24 6 17 18 26 37 28 24 3 28 8 31 39 4 49 -13 61
-85 57 l-58 -3 -3 -48 c-3 -50 -25 -74 -43 -46 -14 22 -11 403 3 417 7 7 31
12 55 12 31 0 43 4 43 15 0 15 -20 22 -75 27 -29 3 -30 5 -35 63 l-5 60 -85 3
c-47 1 -89 0 -93 -4z"/>
<path d="M2500 8195 c-5 -14 -16 -25 -25 -25 -8 0 -15 -7 -15 -15 0 -9 -11
-20 -25 -25 l-25 -10 0 -160 0 -160 25 -10 c14 -5 25 -16 25 -25 0 -8 7 -15
15 -15 9 0 20 -11 25 -25 l10 -25 145 0 145 0 10 25 c5 14 16 25 24 25 7 0 16
9 19 20 3 11 12 20 21 20 14 0 16 21 16 170 0 163 -1 170 -20 170 -13 0 -20 7
-20 20 0 13 -7 20 -20 20 -13 0 -20 7 -20 19 0 28 -18 31 -166 31 -134 0 -135
0 -144 -25z m200 -215 c0 -180 -1 -190 -19 -190 -12 0 -21 -9 -25 -26 -5 -17
-12 -24 -24 -22 -15 3 -17 23 -20 196 -2 187 -2 192 18 192 13 0 20 7 20 20 0
15 7 20 25 20 l25 0 0 -190z"/>
<path d="M5511 8196 c-5 -13 -19 -26 -30 -29 -12 -3 -21 -12 -21 -20 0 -8 -9
-17 -20 -20 -19 -5 -20 -14 -20 -171 0 -159 1 -166 20 -166 13 0 20 -7 20 -19
0 -12 9 -21 25 -25 16 -4 25 -13 25 -26 0 -19 7 -20 149 -20 142 0 149 1 154
21 3 11 15 23 26 26 12 3 21 14 21 24 0 12 7 19 20 19 19 0 20 7 20 166 0 157
-1 166 -20 171 -11 3 -20 14 -20 24 0 12 -7 19 -20 19 -13 0 -24 10 -30 25
l-10 25 -140 0 c-138 0 -141 0 -149 -24z m197 -214 l2 -182 -25 -10 c-14 -5
-25 -17 -25 -25 0 -21 -30 -31 -41 -14 -5 8 -9 94 -9 192 l0 177 25 10 c14 5
25 17 25 25 0 11 7 15 23 13 22 -3 22 -5 25 -186z"/>
<path d="M6017 8213 c-4 -3 -7 -120 -7 -260 l0 -253 95 0 95 0 2 213 c3 211 3
212 26 215 20 3 22 -1 22 -36 0 -27 5 -42 16 -46 28 -11 140 -6 152 6 7 7 12
34 12 60 0 42 -3 50 -24 57 -13 5 -26 19 -29 30 -4 18 -13 21 -64 21 -62 0
-76 -5 -86 -32 -3 -10 -13 -18 -21 -18 -7 0 -16 -9 -19 -20 -3 -12 -14 -20
-26 -20 -18 0 -21 6 -21 39 0 26 -5 41 -16 45 -21 8 -99 8 -107 -1z"/>
<path d="M6560 8196 c-5 -14 -19 -26 -32 -28 -22 -3 -23 -8 -23 -73 l0 -70 85
0 85 0 3 29 c2 18 11 30 23 33 15 4 19 14 19 44 0 38 1 39 35 39 l36 0 -3 -72
c-3 -71 -4 -73 -29 -76 -17 -2 -29 -11 -32 -23 -5 -17 -14 -19 -100 -19 -87 0
-95 -2 -100 -21 -3 -11 -15 -23 -26 -26 -19 -5 -21 -13 -21 -93 0 -80 2 -88
21 -93 11 -3 23 -15 26 -26 5 -20 12 -21 119 -21 113 0 115 0 124 25 5 14 14
25 20 25 6 0 15 -11 20 -25 9 -23 14 -25 80 -25 l70 0 0 235 c0 204 -2 235
-15 235 -9 0 -20 11 -25 25 l-10 25 -170 0 -170 0 -10 -24z m208 -333 c3 -67
1 -73 -16 -73 -13 0 -22 -9 -26 -26 -5 -17 -12 -24 -24 -22 -14 3 -17 17 -20
87 -4 107 -1 113 45 109 l38 -3 3 -72z"/>
<path d="M7173 8213 c-7 -2 -13 -13 -13 -24 0 -12 -7 -19 -20 -19 -11 0 -20
-7 -20 -15 0 -9 -11 -20 -25 -25 l-25 -10 0 -180 0 -180 25 -10 c15 -6 25 -17
25 -30 0 -19 6 -20 105 -20 104 0 106 0 115 26 20 51 35 21 38 -74 l3 -92 -36
0 c-29 0 -35 4 -35 21 0 12 -8 23 -19 26 -11 3 -21 14 -24 24 -5 18 -13 20
-99 17 l-93 -3 -3 -38 c-3 -32 0 -38 22 -47 14 -5 26 -16 26 -25 0 -13 25 -15
175 -15 168 0 175 1 175 20 0 13 7 20 20 20 13 0 20 7 20 20 0 13 9 22 25 26
l25 6 0 274 0 274 -24 9 c-13 5 -26 19 -29 30 -5 20 -11 21 -164 20 -87 0
-164 -3 -170 -6z m187 -233 c0 -164 -2 -190 -15 -190 -9 0 -20 -12 -25 -26 -7
-16 -16 -24 -28 -22 -15 3 -17 22 -20 192 -2 178 -1 188 17 193 10 3 21 13 24
24 3 11 14 19 26 19 21 0 21 -4 21 -190z"/>
<path d="M7763 8213 c-7 -2 -13 -13 -13 -24 0 -12 -7 -19 -20 -19 -13 0 -20
-7 -20 -19 0 -13 -8 -21 -22 -23 -23 -3 -23 -6 -26 -166 l-2 -162 25 -10 c14
-5 25 -16 25 -25 0 -8 7 -15 15 -15 9 0 20 -11 25 -25 l10 -25 145 0 145 0 10
25 c5 14 16 25 25 25 8 0 15 7 15 15 0 9 12 20 26 25 21 8 25 15 22 42 l-3 33
-95 0 -95 0 -3 -37 c-2 -25 -8 -38 -18 -38 -8 0 -19 -12 -24 -26 -7 -16 -16
-24 -28 -22 -15 3 -17 16 -17 98 l0 95 118 3 c96 2 117 5 117 18 0 8 11 19 25
24 23 9 25 14 25 75 0 61 -2 66 -25 75 -14 5 -25 16 -25 25 0 8 -7 15 -15 15
-9 0 -19 8 -22 18 -4 9 -11 20 -17 24 -12 8 -264 9 -283 1z m187 -138 l0 -95
-45 0 -45 0 0 75 c0 67 2 75 19 75 10 0 21 9 24 20 3 12 14 20 26 20 20 0 21
-5 21 -95z"/>
<path d="M3000 8005 l0 -205 25 -10 c14 -5 25 -16 25 -25 0 -8 7 -15 15 -15 9
0 20 -11 25 -25 l10 -25 145 0 145 0 10 25 c5 14 16 25 25 25 8 0 15 7 15 15
0 9 11 20 25 25 l25 10 0 205 0 205 -100 0 -100 0 0 -210 c0 -182 -2 -210 -15
-210 -9 0 -20 -12 -25 -26 -7 -16 -16 -24 -28 -22 -15 3 -17 24 -20 236 l-2
232 -100 0 -100 0 0 -205z"/>
<path d="M3748 7281 c-26 -26 -23 -83 5 -109 35 -33 133 -31 165 2 29 31 30
85 2 109 -29 24 -148 23 -172 -2z"/>
<path d="M1593 7260 c-3 -10 -13 -22 -23 -25 -10 -3 -20 -15 -23 -25 -3 -11
-12 -20 -21 -20 -13 0 -16 -14 -16 -85 0 -70 3 -85 15 -85 9 0 20 -11 25 -25
5 -14 16 -25 24 -25 7 0 16 -9 19 -20 5 -18 14 -20 76 -20 67 0 72 -2 81 -25
5 -14 16 -25 25 -25 12 0 15 -17 15 -100 0 -94 -1 -100 -20 -100 -13 0 -24
-10 -30 -26 -7 -16 -16 -24 -28 -22 -14 3 -17 16 -20 81 l-3 77 -94 0 -95 0 0
-75 c0 -61 3 -75 15 -75 9 0 20 -11 25 -25 l10 -25 175 0 c169 0 175 1 175 20
0 13 10 24 25 30 14 5 25 16 25 25 0 8 9 15 20 15 19 0 20 7 20 100 0 93 -1
100 -20 100 -11 0 -20 7 -20 15 0 9 -11 21 -25 27 -14 6 -25 19 -25 30 0 16
-9 18 -71 18 -62 0 -72 2 -76 19 -3 11 -15 21 -27 23 -19 3 -21 10 -24 89 -3
81 -1 87 18 92 12 3 24 15 27 26 3 12 14 21 24 21 16 0 19 -8 19 -50 0 -44 3
-52 24 -59 13 -5 26 -19 29 -31 5 -19 11 -21 64 -18 l58 3 0 75 0 75 -34 3
c-23 2 -35 9 -38 23 -5 18 -16 19 -150 19 -136 0 -145 -1 -150 -20z"/>
<path d="M2183 7103 c-7 -2 -13 -13 -13 -24 0 -12 -7 -19 -20 -19 -13 0 -20
-7 -20 -19 0 -13 -8 -21 -22 -23 -23 -3 -23 -6 -26 -166 l-2 -162 25 -10 c14
-5 25 -16 25 -25 0 -8 7 -15 15 -15 9 0 20 -11 25 -25 l10 -25 145 0 145 0 10
25 c5 14 16 25 25 25 8 0 15 7 15 15 0 9 12 20 26 25 21 8 25 15 22 42 l-3 33
-95 0 -95 0 -3 -37 c-2 -25 -8 -38 -18 -38 -8 0 -19 -12 -24 -26 -7 -16 -16
-24 -28 -22 -15 3 -17 16 -17 98 l0 95 118 3 c96 2 117 5 117 18 0 8 11 19 25
24 23 9 25 14 25 75 0 61 -2 66 -25 75 -14 5 -25 16 -25 25 0 8 -7 15 -15 15
-9 0 -19 8 -22 18 -4 9 -11 20 -17 24 -12 8 -264 9 -283 1z m187 -138 l0 -95
-45 0 -45 0 0 75 c0 67 2 75 19 75 10 0 21 9 24 20 3 12 14 20 26 20 20 0 21
-5 21 -95z"/>
<path d="M2672 7102 c-9 -7 -12 -65 -10 -258 l3 -249 95 0 95 0 3 213 c2 203
3 212 22 212 19 0 24 -11 32 -65 3 -17 12 -20 63 -23 99 -5 105 -2 105 68 0
54 -2 60 -20 60 -13 0 -24 10 -30 25 -9 22 -15 25 -64 25 -67 0 -86 -7 -86
-31 0 -12 -7 -19 -20 -19 -13 0 -20 -7 -20 -20 0 -15 -7 -20 -24 -20 -22 0
-25 5 -28 43 l-3 42 -50 3 c-27 1 -56 -2 -63 -6z"/>
<path d="M3157 7104 c-4 -4 -7 -110 -7 -236 0 -198 2 -228 15 -228 9 0 20 -11
25 -25 9 -25 10 -25 140 -25 123 0 130 1 130 20 0 10 9 24 20 30 11 6 20 17
20 25 0 8 9 15 20 15 13 0 20 7 20 19 0 11 9 22 19 26 11 3 23 15 26 25 3 10
16 20 28 22 21 3 22 7 25 162 2 121 -1 161 -10 168 -15 9 -149 11 -172 2 -14
-5 -16 -34 -16 -215 0 -181 -2 -209 -15 -209 -9 0 -20 -11 -25 -25 -6 -15 -17
-25 -30 -25 -11 0 -21 1 -22 3 -1 1 -5 108 -8 237 l-5 235 -85 3 c-47 1 -89 0
-93 -4z"/>
<path d="M3747 7104 c-4 -4 -7 -121 -7 -261 l0 -253 95 0 95 0 -2 258 -3 257
-85 3 c-47 1 -89 0 -93 -4z"/>
<path d="M4131 7086 c-5 -13 -19 -26 -30 -29 -12 -3 -21 -12 -21 -20 0 -8 -9
-17 -20 -20 -19 -5 -20 -14 -20 -171 0 -159 1 -166 20 -166 13 0 20 -7 20 -19
0 -12 9 -21 25 -25 16 -4 25 -13 25 -26 0 -19 7 -20 149 -20 142 0 149 1 154
21 3 11 15 23 26 26 12 3 21 14 21 24 0 13 7 19 21 19 18 0 20 5 17 43 l-3 42
-90 0 -90 0 -3 -38 c-3 -30 -9 -40 -28 -47 -13 -5 -24 -17 -24 -25 0 -21 -30
-31 -41 -14 -5 8 -9 94 -9 192 l0 177 25 10 c14 5 25 17 25 25 0 11 7 15 23
13 20 -3 22 -9 25 -75 l3 -73 94 0 95 0 0 51 c0 42 -3 52 -20 56 -11 3 -20 14
-20 24 0 12 -7 19 -20 19 -13 0 -24 10 -30 25 l-10 25 -140 0 c-138 0 -141 0
-149 -24z"/>
<path d="M4712 7098 c-7 -7 -12 -18 -12 -25 0 -7 -9 -13 -20 -13 -13 0 -20 -7
-20 -20 0 -13 -7 -20 -20 -20 -19 0 -20 -7 -20 -170 0 -163 1 -170 20 -170 13
0 20 -7 20 -20 0 -11 7 -20 15 -20 9 0 21 -11 27 -25 l11 -25 149 0 c142 0
148 1 148 20 0 13 10 24 25 30 14 5 25 16 25 25 0 8 9 15 21 15 17 0 20 5 17
38 l-3 37 -83 3 c-94 3 -112 -5 -112 -49 0 -19 -5 -29 -15 -29 -9 0 -20 -12
-25 -26 -7 -16 -16 -24 -28 -22 -15 3 -17 16 -17 98 l0 95 119 3 c106 2 119 5
123 21 3 11 13 21 24 24 16 4 19 15 19 72 0 58 -3 68 -20 72 -11 3 -20 12 -20
19 0 8 -11 19 -24 23 -13 5 -26 19 -29 30 -5 20 -12 21 -144 21 -95 0 -143 -4
-151 -12z m188 -134 l0 -95 -42 3 -43 3 -3 68 c-3 64 -2 68 23 77 14 5 25 16
25 25 0 8 9 15 20 15 19 0 20 -7 20 -96z"/>
<path d="M5233 7103 c-7 -2 -13 -13 -13 -23 0 -10 -9 -20 -20 -23 -18 -5 -20
-14 -20 -91 0 -83 1 -87 25 -96 14 -5 25 -16 25 -24 0 -12 19 -16 98 -18 92
-3 97 -4 100 -25 2 -15 10 -23 23 -23 16 0 19 -7 19 -50 0 -38 -4 -50 -15 -50
-9 0 -20 -12 -25 -26 -7 -16 -16 -24 -28 -22 -14 3 -18 17 -22 78 l-5 75 -95
0 -95 0 -3 -68 c-3 -64 -2 -68 23 -77 15 -6 25 -17 25 -30 0 -19 6 -20 190
-20 l190 0 10 25 c5 14 16 25 25 25 12 0 15 16 15 90 0 74 -3 90 -15 90 -9 0
-20 11 -25 25 -9 24 -13 25 -101 25 -81 0 -91 2 -96 19 -3 11 -13 21 -24 24
-16 4 -19 14 -19 56 0 43 3 51 19 51 10 0 21 9 24 20 3 12 14 20 26 20 19 0
21 -6 21 -50 0 -45 3 -52 25 -60 14 -5 25 -16 25 -25 0 -12 14 -15 70 -15 l70
0 0 75 c0 65 -2 75 -18 75 -9 0 -22 10 -27 23 -10 22 -14 22 -190 24 -99 1
-186 -1 -192 -4z"/>
<path d="M1487 6085 c-27 -56 -38 -155 -17 -155 6 0 10 16 10 35 0 34 1 35 40
35 39 0 40 -1 40 -35 0 -19 5 -35 10 -35 21 0 11 109 -15 160 -14 28 -29 50
-33 50 -4 0 -20 -25 -35 -55z m73 -52 c0 -13 -61 -19 -73 -7 -3 4 3 25 15 47
l20 41 19 -35 c10 -18 18 -40 19 -46z"/>
<path d="M1650 6130 c0 -5 5 -10 10 -10 6 0 10 -35 10 -85 0 -50 -4 -85 -10
-85 -5 0 -10 -4 -10 -10 0 -5 16 -10 35 -10 19 0 35 5 35 10 0 6 -7 10 -15 10
-12 0 -15 17 -15 95 0 88 -1 95 -20 95 -11 0 -20 -4 -20 -10z"/>
<path d="M1810 6130 c0 -5 5 -10 10 -10 6 0 10 -35 10 -85 0 -50 -4 -85 -10
-85 -5 0 -10 -4 -10 -10 0 -5 16 -10 35 -10 19 0 35 5 35 10 0 6 -7 10 -15 10
-12 0 -15 17 -15 95 0 88 -1 95 -20 95 -11 0 -20 -4 -20 -10z"/>
<path d="M2910 6037 l0 -104 37 -1 c54 -2 73 20 73 84 0 47 -3 56 -26 71 -21
13 -30 14 -45 5 -17 -11 -19 -9 -19 18 0 16 -4 30 -10 30 -6 0 -10 -41 -10
-103z m78 31 c18 -18 15 -93 -4 -109 -40 -33 -75 61 -38 102 20 22 26 23 42 7z"/>
<path d="M4450 6115 c0 -22 -3 -25 -26 -19 -41 10 -74 -28 -74 -86 0 -65 43
-102 79 -67 11 10 14 10 18 0 14 -38 23 -1 23 92 0 63 -4 105 -10 105 -5 0
-10 -11 -10 -25z m-18 -52 c26 -23 23 -65 -7 -93 -20 -19 -27 -21 -40 -10 -22
18 -20 96 3 109 23 14 23 14 44 -6z"/>
<path d="M5200 6130 c0 -5 5 -10 10 -10 6 0 10 5 10 10 0 6 -4 10 -10 10 -5 0
-10 -4 -10 -10z"/>
<path d="M4680 6103 c-10 -12 -11 -18 -2 -21 7 -2 12 -25 12 -61 0 -43 5 -62
18 -74 23 -21 36 -21 52 -2 16 19 5 32 -13 16 -23 -18 -39 11 -35 66 3 41 6
48 26 51 30 5 28 22 -3 22 -14 0 -25 5 -25 10 0 15 -13 12 -30 -7z"/>
<path d="M2108 6094 c-14 -13 -8 -46 18 -104 21 -47 24 -62 15 -79 -8 -14 -8
-21 -1 -21 17 0 80 137 80 175 0 19 -4 35 -10 35 -5 0 -10 -17 -10 -37 -1 -21
-9 -53 -19 -72 l-18 -35 -19 35 c-10 19 -20 51 -23 72 -3 22 -9 35 -13 31z"/>
<path d="M2282 6077 c-46 -48 -15 -147 45 -147 54 0 75 106 30 148 -30 28 -48
28 -75 -1z m62 -10 c23 -17 19 -95 -6 -111 -42 -26 -78 65 -41 106 19 21 24
22 47 5z"/>
<path d="M2428 6094 c-5 -4 -8 -33 -8 -64 0 -46 4 -60 23 -78 26 -25 47 -28
65 -10 9 9 12 9 12 0 0 -7 5 -12 10 -12 6 0 10 35 10 85 0 50 -4 85 -10 85 -6
0 -10 -26 -10 -58 0 -46 -4 -63 -20 -77 -19 -17 -21 -17 -40 0 -14 13 -20 33
-22 77 -2 33 -6 56 -10 52z"/>
<path d="M2590 6015 c0 -50 4 -85 10 -85 6 0 10 26 10 58 0 46 4 63 20 77 19
17 21 17 38 2 21 -19 32 -22 32 -7 0 5 -12 17 -26 27 -21 13 -30 14 -45 5 -12
-8 -19 -8 -19 -2 0 5 -4 10 -10 10 -6 0 -10 -35 -10 -85z"/>
<path d="M3070 6032 c0 -54 4 -72 18 -85 22 -20 43 -22 60 -5 9 9 12 9 12 0 0
-7 5 -12 10 -12 6 0 10 35 10 85 0 50 -4 85 -10 85 -6 0 -10 -26 -10 -58 0
-46 -4 -63 -20 -77 -33 -30 -50 -5 -50 71 0 36 -4 64 -10 64 -6 0 -10 -29 -10
-68z"/>
<path d="M3252 6084 c-40 -28 -24 -67 35 -83 31 -8 37 -28 11 -44 -13 -9 -22
-7 -37 8 -27 24 -40 11 -16 -15 23 -26 57 -26 81 1 26 29 14 47 -56 79 -20 9
-19 30 2 43 13 9 22 7 37 -8 12 -10 24 -15 29 -11 8 9 -34 46 -52 46 -6 0 -22
-7 -34 -16z"/>
<path d="M3410 6091 c0 -5 7 -11 15 -15 11 -4 15 -21 15 -61 0 -40 -4 -57 -15
-61 -27 -11 -16 -24 20 -24 36 0 47 13 20 24 -11 4 -15 22 -15 76 0 63 -2 70
-20 70 -11 0 -20 -4 -20 -9z"/>
<path d="M3550 6015 c0 -50 4 -85 10 -85 6 0 10 26 10 58 0 46 4 63 20 77 33
30 50 5 50 -71 0 -36 4 -64 10 -64 6 0 10 30 10 70 0 64 -2 71 -26 87 -21 13
-30 14 -45 5 -12 -8 -19 -8 -19 -2 0 5 -4 10 -10 10 -6 0 -10 -35 -10 -85z"/>
<path d="M3732 6077 c-29 -30 -31 -106 -4 -130 25 -23 55 -21 77 3 24 26 11
39 -16 15 -22 -21 -51 -12 -57 18 -3 12 7 17 45 19 42 3 48 6 51 26 4 27 -32
72 -58 72 -9 0 -26 -10 -38 -23z m62 -16 c24 -26 13 -41 -30 -41 -27 0 -34 4
-34 20 0 16 23 39 41 40 3 0 14 -9 23 -19z"/>
<path d="M3890 6075 l-23 -25 22 -24 c13 -14 33 -26 45 -28 25 -4 28 -27 4
-41 -13 -9 -22 -7 -37 8 -27 24 -40 11 -16 -15 24 -27 57 -25 83 3 19 20 20
26 9 42 -8 10 -29 23 -47 29 -41 13 -48 31 -20 46 18 9 25 8 41 -6 25 -23 37
-10 14 16 -24 27 -47 25 -75 -5z"/>
<path d="M4050 6075 l-23 -25 22 -24 c13 -14 33 -26 45 -28 25 -4 28 -27 4
-41 -13 -9 -22 -7 -37 8 -27 24 -40 11 -16 -15 24 -27 57 -25 83 3 19 20 20
26 9 42 -8 10 -29 23 -47 29 -41 13 -48 31 -20 46 18 9 25 8 41 -6 25 -23 37
-10 14 16 -24 27 -47 25 -75 -5z"/>
<path d="M4530 6075 c-27 -29 -20 -32 16 -9 23 16 26 15 44 -1 24 -22 17 -35
-19 -35 -30 0 -61 -27 -61 -52 0 -18 31 -48 51 -48 8 0 21 6 28 13 11 10 14
10 18 0 12 -32 23 -7 23 50 0 53 -4 67 -23 85 -30 28 -48 28 -77 -3z m80 -73
c0 -5 -11 -19 -25 -32 -24 -22 -27 -23 -42 -7 -13 13 -14 19 -3 31 13 17 70
22 70 8z"/>
<path d="M4850 6075 c-27 -29 -20 -32 16 -9 23 16 26 15 44 -1 24 -22 17 -35
-19 -35 -30 0 -61 -27 -61 -52 0 -18 31 -48 51 -48 8 0 21 6 28 13 11 10 14
10 18 0 12 -32 23 -7 23 50 0 53 -4 67 -23 85 -30 28 -48 28 -77 -3z m80 -73
c0 -5 -11 -19 -25 -32 -24 -22 -27 -23 -42 -7 -13 13 -14 19 -3 31 13 17 70
22 70 8z"/>
<path d="M5180 6090 c0 -5 5 -10 10 -10 6 0 10 -28 10 -65 0 -37 -4 -65 -10
-65 -5 0 -10 -4 -10 -10 0 -5 14 -10 30 -10 17 0 30 5 30 10 0 6 -4 10 -10 10
-6 0 -10 32 -10 75 0 68 -2 75 -20 75 -11 0 -20 -4 -20 -10z"/>
<path d="M5310 6015 c0 -50 4 -85 10 -85 6 0 10 26 10 59 0 50 4 62 22 75 20
14 24 14 40 -1 13 -12 18 -31 18 -75 0 -32 4 -58 10 -58 6 0 10 28 10 63 0 55
-3 67 -25 87 -23 22 -28 23 -47 11 -16 -10 -23 -10 -26 -2 -2 6 -8 11 -13 11
-5 0 -9 -38 -9 -85z"/>
<path d="M2280 5660 c0 -11 5 -20 10 -20 6 0 10 -32 10 -75 0 -43 -4 -75 -10
-75 -5 0 -10 -9 -10 -21 0 -18 5 -20 42 -17 31 2 44 8 46 21 2 10 -3 17 -12
17 -13 0 -16 15 -16 95 l0 95 -30 0 c-23 0 -30 -4 -30 -20z"/>
<path d="M1477 5612 c-20 -21 -27 -38 -27 -67 0 -45 40 -95 75 -95 61 0 92
122 42 168 -31 29 -58 28 -90 -6z m73 -67 c0 -40 -23 -63 -45 -45 -21 17 -19
77 2 89 25 14 43 -5 43 -44z"/>
<path d="M1614 5625 c-3 -6 -4 -47 -2 -91 3 -66 6 -79 21 -82 15 -3 17 5 17
56 0 44 5 63 18 75 28 26 42 3 42 -70 0 -56 2 -63 20 -63 18 0 20 7 20 73 0
63 -3 76 -22 94 -26 23 -106 29 -114 8z"/>
<path d="M1797 5612 c-20 -21 -27 -38 -27 -67 0 -45 40 -95 75 -95 58 0 89
118 44 166 -30 32 -59 30 -92 -4z m73 -43 c0 -12 -47 -11 -55 0 -9 15 28 31
42 19 7 -6 13 -14 13 -19z m-13 -66 c-16 -16 -18 -16 -34 0 -16 16 -15 17 17
17 32 0 33 -1 17 -17z"/>
<path d="M2094 5625 c-3 -6 -3 -58 -2 -116 3 -90 5 -104 21 -107 13 -3 17 3
17 22 0 22 5 26 28 26 45 0 72 37 72 96 0 65 -26 92 -88 92 -24 -1 -46 -6 -48
-13z m96 -80 c0 -40 -23 -63 -45 -45 -20 16 -19 59 2 82 22 24 43 6 43 -37z"/>
<path d="M2437 5612 c-20 -21 -24 -31 -15 -40 8 -8 17 -6 36 9 20 16 28 17 40
7 13 -11 11 -13 -14 -16 -30 -4 -74 -37 -74 -57 0 -6 12 -23 28 -37 20 -19 38
-26 70 -26 l42 -1 0 73 c0 63 -3 75 -23 94 -31 29 -58 28 -90 -6z m73 -91 c0
-5 -7 -14 -15 -21 -18 -15 -42 1 -31 19 8 13 46 15 46 2z"/>
<path d="M2602 5617 c-32 -34 -31 -115 1 -145 31 -29 58 -28 87 3 18 19 21 28
12 37 -9 9 -16 7 -31 -6 -30 -27 -51 -14 -51 32 0 52 17 68 45 42 20 -19 23
-19 35 -5 11 13 9 20 -10 40 -29 31 -60 32 -88 2z"/>
<path d="M2762 5617 c-32 -34 -31 -115 1 -145 50 -47 103 -11 106 72 3 82 -59
125 -107 73z m68 -48 c0 -5 -11 -9 -25 -9 -27 0 -32 9 -13 28 12 12 38 -1 38
-19z m-2 -65 c-9 -9 -24 -14 -32 -11 -27 11 -17 27 16 27 30 0 31 -1 16 -16z"/>
<path d="M6005 5458 c-11 -6 -23 -16 -27 -22 -4 -6 -8 -130 -8 -276 0 -249 -1
-263 -16 -240 -52 78 -153 153 -234 174 -14 4 4 -7 39 -24 80 -38 140 -86 179
-144 16 -25 31 -44 33 -42 2 3 5 -5 5 -17 1 -12 7 -40 13 -62 13 -51 14 -145
1 -145 -5 0 -10 13 -10 29 0 16 -5 42 -11 58 -7 15 -12 39 -11 53 0 14 -7 2
-17 -30 -10 -30 -30 -84 -45 -120 -52 -123 -68 -175 -75 -240 l-6 -65 -30 44
c-16 23 -34 68 -41 100 -7 31 -13 46 -13 33 -1 -19 -4 -21 -20 -12 -47 25
-101 -35 -101 -110 0 -39 21 -90 48 -114 26 -23 39 -110 23 -159 -6 -19 -23
-45 -38 -58 -31 -29 -53 -78 -53 -119 0 -31 -16 -40 -37 -19 -8 8 -13 3 -18
-20 -3 -17 -4 -39 -2 -48 3 -10 8 -28 12 -40 6 -21 4 -22 -24 -12 -17 6 -42
24 -54 41 l-24 30 -16 -35 c-10 -19 -17 -41 -17 -49 -1 -17 -29 32 -30 52 -1
40 -17 43 -56 12 -49 -39 -130 -75 -151 -68 -14 6 -14 8 -1 24 24 26 48 79 48
102 0 20 -1 20 -34 -5 -51 -39 -129 -65 -192 -65 l-56 0 32 26 c27 23 60 72
60 89 0 4 -19 -9 -41 -29 -43 -37 -115 -66 -158 -65 -24 0 -25 1 -7 12 76 46
151 142 175 222 23 74 21 72 37 45 27 -44 10 -7 -41 95 -46 93 -49 104 -53
190 -5 115 18 208 88 350 85 174 172 259 316 311 42 15 55 23 34 19 -56 -8
-155 -62 -213 -115 -130 -119 -237 -363 -237 -540 0 -87 11 -132 51 -213 26
-53 28 -63 19 -104 -23 -102 -91 -196 -179 -248 -28 -16 -51 -33 -51 -38 0
-18 134 13 190 45 l35 20 -37 -35 c-21 -19 -38 -37 -38 -41 0 -12 126 -6 173
8 25 7 59 23 75 35 39 27 43 27 31 -6 -24 -67 -34 -71 -177 -75 -165 -4 -181
-13 -200 -109 -11 -59 -17 -68 -71 -119 -32 -30 -62 -63 -65 -74 -4 -10 2 -42
13 -70 l19 -51 -45 -75 c-73 -122 -170 -328 -199 -425 -19 -63 -28 -121 -32
-192 -4 -89 -1 -113 22 -195 32 -109 92 -226 158 -309 l48 -59 -35 0 c-19 0
-35 -4 -35 -10 0 -7 722 -10 2145 -10 l2145 0 -1 88 c0 72 -23 191 -132 702
l-132 615 -523 3 c-452 2 -523 4 -528 17 -4 8 -14 15 -23 14 -10 0 -11 -2 -3
-6 6 -2 12 -9 12 -14 0 -15 -192 -7 -198 9 -3 9 18 12 84 12 113 0 104 9 -14
14 -71 3 -97 9 -119 24 -15 11 -57 29 -93 40 l-65 20 0 103 0 104 475 3 c432
2 476 4 488 19 9 13 12 187 12 789 l0 773 -22 15 c-20 14 -136 16 -1053 16
-749 -1 -1035 -4 -1050 -12z m2033 -80 c17 -17 17 -1429 0 -1446 -9 -9 -244
-12 -994 -12 -896 0 -984 1 -999 16 -14 15 -16 40 -12 198 3 99 5 186 5 191
-1 6 -3 238 -5 518 -2 346 0 514 7 527 11 20 24 20 998 20 755 0 991 -3 1000
-12z m-2062 -734 l7 -62 -31 -7 c-17 -3 -36 -13 -43 -21 -15 -18 0 -18 25 1
37 28 46 19 46 -47 0 -46 7 -78 25 -116 32 -69 32 -80 -7 -112 l-32 -27 3
-179 c2 -146 6 -182 18 -196 15 -17 51 -18 490 -18 l473 0 0 -110 0 -109 -42
-12 c-57 -15 -135 -55 -164 -84 -17 -17 -24 -35 -24 -63 l0 -39 92 -7 c116 -8
335 -8 461 1 l97 6 0 34 0 33 95 0 c94 0 95 0 95 -24 0 -28 16 -36 75 -36 126
0 138 -78 28 -166 -91 -72 -113 -97 -113 -126 l0 -28 -104 0 -104 0 -88 -112
c-48 -62 -91 -119 -97 -125 -7 -9 -5 -13 7 -13 9 0 16 5 16 11 0 7 25 45 56
85 l57 74 81 0 c79 -1 80 -1 58 -18 -62 -45 -91 -75 -102 -104 -18 -44 -17
-44 -38 -25 -16 15 -23 15 -63 3 -50 -16 -42 -20 14 -7 36 9 39 7 75 -35 22
-24 53 -70 70 -102 38 -71 114 -294 104 -304 -26 -25 -446 -172 -622 -217 -63
-16 -110 -30 -103 -30 17 -1 139 26 208 46 56 17 124 18 983 15 l922 -2 0 -70
0 -70 -1175 0 -1175 0 0 24 c0 22 5 24 78 30 42 4 93 11 112 16 l35 10 -40 -5
c-128 -17 -212 -17 -267 -1 -46 13 -66 26 -114 78 -105 114 -184 229 -277 403
-32 61 -55 99 -51 85 14 -54 140 -269 212 -365 126 -165 174 -205 260 -220 36
-6 42 -10 42 -31 l0 -24 -889 0 c-839 0 -890 1 -895 18 -17 55 -26 186 -26
407 0 138 -5 282 -10 320 -11 73 -40 188 -46 182 -2 -2 6 -39 17 -83 19 -70
22 -118 29 -419 4 -187 10 -347 13 -355 3 -8 8 -27 11 -42 6 -24 3 -28 -17
-28 -27 0 -80 59 -137 154 -182 299 -159 552 88 978 32 54 60 98 63 98 3 0 13
-27 22 -59 43 -153 90 -240 160 -291 22 -16 45 -30 50 -30 6 0 -8 13 -29 29
-82 58 -121 127 -172 296 -16 55 -37 117 -46 139 -9 21 -16 43 -16 48 0 6 29
40 65 77 56 58 66 75 75 119 13 73 25 90 68 102 48 13 232 13 232 0 0 -13 51
-13 83 -1 20 8 29 6 44 -11 30 -33 111 -69 166 -73 l52 -4 -48 9 c-26 4 -67
18 -91 29 -42 21 -99 71 -79 71 5 0 30 13 54 30 24 16 47 30 50 30 4 0 10 -15
13 -34 4 -19 15 -45 26 -58 l19 -23 1 30 c0 17 6 40 13 53 l13 23 20 -22 c18
-20 72 -49 93 -49 5 0 3 17 -5 38 -7 20 -13 47 -14 59 0 24 15 39 25 23 3 -5
13 -10 21 -10 10 0 14 12 14 39 0 54 15 89 55 128 38 37 51 88 40 159 -6 39
-4 43 12 37 10 -3 2 5 -17 18 -19 14 -43 40 -53 59 -34 65 -6 160 47 160 31 0
41 -10 64 -62 24 -56 67 -115 94 -129 19 -10 19 -9 3 22 -27 52 -16 126 42
269 27 69 53 134 58 145 7 18 8 17 16 -10 5 -16 12 -58 15 -91z m2770 -1746
l131 -613 -781 -3 c-750 -3 -1041 2 -986 18 45 13 385 142 392 149 18 17 -64
243 -127 353 -51 87 -53 100 -26 145 39 62 220 147 235 108 2 -5 7 3 11 18 11
42 -1 45 -56 14 -44 -24 -59 -27 -144 -27 l-96 0 23 30 22 30 210 2 c160 1
187 3 111 7 -98 6 -100 7 -103 31 -2 20 9 34 53 69 81 64 135 127 135 155 0
13 -9 34 -19 47 -16 20 -31 25 -88 29 -61 4 -68 7 -71 28 l-3 22 523 0 524 0
130 -612z m-1170 187 c-11 -8 -25 -15 -30 -15 -6 0 -2 7 8 15 11 8 25 15 30
15 6 0 2 -7 -8 -15z"/>
<path d="M6117 5283 c-4 -3 -7 -280 -7 -614 0 -672 -6 -619 65 -619 24 0 38 6
45 19 11 21 15 1177 4 1205 -4 12 -20 16 -53 16 -26 0 -51 -3 -54 -7z m101
-602 c2 -443 -1 -597 -10 -608 -7 -9 -25 -13 -47 -11 l-36 3 -3 608 -2 608 47
-3 48 -3 3 -594z"/>
<path d="M6142 5171 c-8 -5 -12 -21 -10 -37 2 -25 8 -29 36 -32 31 -3 32 -2
32 31 0 42 -26 59 -58 38z m48 -36 c0 -20 -5 -25 -25 -25 -20 0 -25 5 -25 25
0 20 5 25 25 25 20 0 25 -5 25 -25z"/>
<path d="M6134 5066 c-3 -8 -4 -25 -2 -38 2 -18 9 -23 33 -23 28 0 30 3 30 35
0 31 -3 35 -28 38 -17 2 -29 -2 -33 -12z m56 -26 c0 -23 -4 -30 -20 -30 -23 0
-35 22 -26 45 3 8 15 15 26 15 16 0 20 -7 20 -30z"/>
<path d="M6137 4973 c-12 -12 -7 -50 8 -63 8 -6 23 -9 35 -5 15 5 20 15 20 41
0 31 -3 34 -28 34 -16 0 -32 -3 -35 -7z m53 -28 c0 -20 -5 -25 -25 -25 -20 0
-25 5 -25 25 0 20 5 25 25 25 20 0 25 -5 25 -25z"/>
<path d="M6134 4876 c-3 -8 -4 -25 -2 -38 2 -18 9 -23 33 -23 28 0 30 3 30 35
0 31 -3 35 -28 38 -17 2 -29 -2 -33 -12z m54 -29 c3 -22 -1 -27 -18 -27 -23 0
-35 22 -26 46 10 25 41 12 44 -19z"/>
<path d="M6134 4776 c-3 -8 -4 -25 -2 -38 2 -18 9 -23 33 -23 27 0 30 3 33 38
3 35 2 37 -28 37 -17 0 -33 -6 -36 -14z m56 -21 c0 -20 -5 -25 -25 -25 -20 0
-25 5 -25 25 0 20 5 25 25 25 20 0 25 -5 25 -25z"/>
<path d="M6134 4686 c-3 -8 -4 -25 -2 -38 2 -18 9 -23 33 -23 27 0 30 3 33 38
3 35 2 37 -28 37 -17 0 -33 -6 -36 -14z m56 -26 c0 -23 -4 -30 -20 -30 -23 0
-35 22 -26 45 3 8 15 15 26 15 16 0 20 -7 20 -30z"/>
<path d="M6142 4601 c-8 -5 -12 -21 -10 -37 2 -25 8 -29 36 -32 31 -3 32 -2
32 31 0 42 -26 59 -58 38z m48 -36 c0 -20 -5 -25 -25 -25 -20 0 -25 5 -25 25
0 20 5 25 25 25 20 0 25 -5 25 -25z"/>
<path d="M6134 4496 c-3 -8 -4 -25 -2 -38 2 -18 9 -23 33 -23 28 0 30 3 30 35
0 31 -3 35 -28 38 -17 2 -29 -2 -33 -12z m56 -26 c0 -23 -4 -30 -20 -30 -23 0
-35 22 -26 45 3 8 15 15 26 15 16 0 20 -7 20 -30z"/>
<path d="M6137 4403 c-12 -12 -7 -50 8 -63 8 -6 23 -9 35 -5 15 5 20 15 20 41
0 31 -3 34 -28 34 -16 0 -32 -3 -35 -7z m53 -28 c0 -20 -5 -25 -25 -25 -20 0
-25 5 -25 25 0 20 5 25 25 25 20 0 25 -5 25 -25z"/>
<path d="M6134 4306 c-3 -8 -4 -25 -2 -38 2 -18 9 -23 33 -23 28 0 30 3 30 35
0 31 -3 35 -28 38 -17 2 -29 -2 -33 -12z m54 -29 c3 -22 -1 -27 -18 -27 -23 0
-35 22 -26 46 10 25 41 12 44 -19z"/>
<path d="M6400 4660 l0 -600 350 0 350 0 0 600 0 600 -350 0 -350 0 0 -600z
m690 275 c0 -265 -2 -315 -14 -315 -8 0 -26 -15 -40 -32 -14 -18 -33 -41 -42
-52 -12 -13 -13 -17 -3 -14 8 2 27 23 42 46 55 81 57 71 57 -228 l0 -270 -235
0 -235 0 -2 23 c-7 105 34 162 137 192 63 18 88 45 110 120 15 55 59 104 93
106 10 0 12 3 5 5 -19 8 -72 -24 -86 -54 -8 -15 -20 -45 -27 -67 -17 -54 -56
-93 -99 -101 -83 -14 -145 -90 -145 -176 l0 -48 -98 0 -98 0 0 590 0 590 340
0 340 0 0 -315z"/>
<path d="M6520 5025 l0 -55 230 0 230 0 0 55 0 55 -230 0 -230 0 0 -55z"/>
<path d="M6520 4860 c0 -6 87 -10 240 -10 153 0 240 4 240 10 0 6 -87 10 -240
10 -153 0 -240 -4 -240 -10z"/>
<path d="M6558 4753 c23 -2 61 -2 85 0 23 2 4 4 -43 4 -47 0 -66 -2 -42 -4z"/>
<path d="M6553 4653 c20 -2 54 -2 75 0 20 2 3 4 -38 4 -41 0 -58 -2 -37 -4z"/>
<path d="M7462 5208 c-13 -13 -18 -351 -6 -382 5 -14 32 -16 198 -16 136 0
196 4 204 12 8 8 12 66 12 193 0 127 -4 185 -12 193 -8 8 -67 12 -198 12 -131
0 -190 -4 -198 -12z m387 -12 c8 -9 11 -69 9 -192 l-3 -179 -195 0 -195 0 -3
180 c-1 98 0 185 2 192 8 20 369 19 385 -1z"/>
<path d="M7615 5144 c-100 -34 -131 -150 -59 -225 91 -95 244 -34 244 98 0 94
-95 158 -185 127z m35 -18 c0 -8 16 -20 35 -26 42 -14 65 -44 65 -85 0 -86
-115 -124 -164 -53 -32 45 -12 118 38 138 15 6 16 9 5 9 -9 1 -28 -11 -43 -25
-50 -51 -28 -142 39 -164 44 -15 80 -4 111 33 17 20 28 27 35 20 17 -17 -17
-59 -63 -78 -116 -46 -221 73 -163 185 24 46 105 81 105 46z"/>
<path d="M7570 4700 c-19 -19 -20 -33 -20 -323 0 -258 2 -306 16 -325 14 -21
21 -22 168 -22 105 0 156 4 164 12 9 9 12 95 12 325 0 300 -1 314 -20 333 -18
18 -33 20 -160 20 -127 0 -142 -2 -160 -20z m318 -12 c7 -7 12 -20 12 -30 0
-17 -13 -18 -170 -18 -175 0 -181 1 -160 41 10 17 23 19 158 19 102 0 152 -4
160 -12z m12 -138 l0 -80 -170 0 -170 0 0 73 c0 41 3 77 7 80 3 4 80 7 170 7
l163 0 0 -80z m0 -185 l0 -85 -170 0 -170 0 0 85 0 85 170 0 170 0 0 -85z m0
-175 l0 -80 -170 0 -170 0 0 73 c0 41 3 77 7 80 3 4 80 7 170 7 l163 0 0 -80z
m-2 -122 c-3 -23 -6 -23 -158 -26 -137 -2 -156 -1 -167 15 -7 9 -13 20 -13 25
0 4 77 8 171 8 l170 0 -3 -22z"/>
<path d="M7613 4593 c-8 -3 -13 -23 -13 -49 0 -38 3 -44 25 -50 14 -3 36 -3
50 0 22 6 25 12 25 50 0 31 -5 46 -16 50 -18 7 -53 7 -71 -1z m77 -48 c0 -34
-1 -35 -40 -35 -39 0 -40 1 -40 35 0 34 1 35 40 35 39 0 40 -1 40 -35z"/>
<path d="M7727 4584 c-4 -4 -7 -14 -7 -21 0 -11 16 -13 73 -11 56 2 72 6 72
18 0 12 -15 16 -65 18 -36 2 -69 0 -73 -4z m133 -14 c0 -6 -28 -10 -65 -10
-37 0 -65 4 -65 10 0 6 28 10 65 10 37 0 65 -4 65 -10z"/>
<path d="M7613 4413 c-8 -3 -13 -23 -13 -49 0 -38 3 -44 25 -50 14 -3 36 -3
50 0 22 6 25 12 25 50 0 31 -5 46 -16 50 -18 7 -53 7 -71 -1z m77 -48 c0 -34
-1 -35 -40 -35 -39 0 -40 1 -40 35 0 34 1 35 40 35 39 0 40 -1 40 -35z"/>
<path d="M7732 4408 c-21 -21 7 -38 63 -38 62 0 85 7 85 25 0 7 -7 16 -16 19
-27 10 -120 6 -132 -6z m106 -15 c-21 -2 -55 -2 -75 0 -21 2 -4 4 37 4 41 0
58 -2 38 -4z"/>
<path d="M7604 4217 c-3 -9 -4 -30 -2 -49 3 -32 4 -33 48 -33 l45 0 0 45 0 45
-43 3 c-30 2 -44 -1 -48 -11z m86 -37 l0 -40 -40 0 -40 0 0 40 0 40 40 0 40 0
0 -40z"/>
<path d="M7737 4223 c-4 -3 -7 -12 -7 -20 0 -10 19 -13 75 -13 57 0 75 3 75
14 0 8 -7 17 -16 20 -21 8 -119 8 -127 -1z m128 -13 c4 -6 -18 -10 -59 -10
-37 0 -66 4 -66 10 0 6 26 10 59 10 33 0 63 -4 66 -10z"/>
<path d="M5915 4477 c-9 -22 -2 -62 10 -60 6 1 11 14 13 29 4 32 -14 56 -23
31z"/>
<path d="M5684 4429 c20 -16 26 -30 27 -62 l2 -42 7 40 c4 22 8 35 9 29 2 -16
30 -50 31 -37 0 16 -74 93 -90 93 -7 0 -1 -9 14 -21z"/>
<path d="M5738 4253 c7 -3 16 -2 19 1 4 3 -2 6 -13 5 -11 0 -14 -3 -6 -6z"/>
<path d="M5950 4170 c0 -30 -4 -40 -16 -40 -20 0 -56 19 -71 39 -7 9 -13 11
-13 5 0 -16 32 -42 63 -49 21 -6 27 -13 27 -34 0 -33 -35 -110 -58 -127 -26
-21 -94 -16 -179 11 -42 13 -79 23 -81 21 -2 -2 26 -14 62 -26 l65 -21 -16
-36 c-17 -42 -21 -112 -10 -165 7 -36 7 -37 -25 -41 -28 -3 -27 -4 11 -5 37
-2 42 0 36 16 -28 68 -28 124 1 192 15 35 15 35 69 32 51 -4 58 -1 83 26 16
17 33 47 40 69 14 46 27 173 18 173 -3 0 -6 -18 -6 -40z"/>
<path d="M5773 3753 c9 -2 25 -2 35 0 9 3 1 5 -18 5 -19 0 -27 -2 -17 -5z"/>
<path d="M5863 3735 c59 -20 87 -52 87 -95 0 -32 5 -41 40 -64 44 -29 56 -58
47 -113 -11 -65 -67 -116 -177 -162 -24 -10 -23 -10 5 -4 102 21 174 93 183
183 4 48 6 50 31 43 40 -9 74 -23 91 -36 11 -9 83 -11 275 -7 l260 6 -267 2
c-157 1 -269 6 -273 12 -3 5 -31 17 -63 27 -31 9 -72 30 -90 45 -18 15 -37 28
-42 28 -6 0 -10 17 -10 38 0 21 -7 47 -15 58 -16 24 -74 54 -102 54 -10 -1 -1
-7 20 -15z"/>
<path d="M5768 3713 c7 -3 16 -2 19 1 4 3 -2 6 -13 5 -11 0 -14 -3 -6 -6z"/>
<path d="M5523 3693 c26 -2 68 -2 95 0 26 2 4 3 -48 3 -52 0 -74 -1 -47 -3z"/>
<path d="M4850 3606 c0 -37 125 -166 187 -193 56 -25 238 -22 378 5 106 21
381 105 399 122 5 5 -52 -11 -126 -35 -210 -68 -346 -95 -484 -97 -164 -1
-223 26 -311 146 -24 32 -43 55 -43 52z"/>
<path d="M6281 3383 c88 -91 166 -207 239 -354 52 -104 192 -339 202 -339 4 0
-1 13 -10 29 -9 16 -14 32 -12 35 3 3 94 28 203 57 108 29 195 54 193 57 -4 3
-155 -35 -347 -88 l-66 -18 -47 80 c-27 44 -79 138 -117 209 -37 71 -90 162
-116 201 -50 76 -178 218 -196 218 -5 0 28 -39 74 -87z"/>
<path d="M5760 3250 c-116 -82 -277 -188 -317 -209 -90 -45 -189 -65 -335 -65
-86 -1 -128 -4 -115 -10 12 -4 76 -6 142 -2 140 6 237 30 339 84 71 37 368
242 350 242 -5 0 -34 -18 -64 -40z"/>
<path d="M7118 2873 c7 -3 16 -2 19 1 4 3 -2 6 -13 5 -11 0 -14 -3 -6 -6z"/>
<path d="M7880 3130 c-24 -5 -4 -8 68 -9 56 0 102 -3 102 -5 0 -3 -4 -16 -10
-31 l-10 -26 -147 2 c-134 1 -147 -1 -154 -17 -9 -24 -34 -46 -84 -73 -25 -14
-31 -19 -15 -15 14 3 42 17 62 30 l38 24 6 -25 c8 -31 -9 -53 -55 -72 -18 -8
-31 -16 -28 -19 7 -8 84 33 90 48 4 9 10 8 21 -6 23 -28 21 -32 -30 -66 -25
-18 -43 -34 -40 -37 3 -3 18 5 33 17 l28 22 3 -27 c2 -14 -3 -36 -11 -48 -19
-28 -103 -78 -203 -122 -44 -19 -72 -35 -64 -35 9 0 65 25 127 55 114 56 163
98 163 139 0 13 5 37 11 53 9 26 7 36 -15 68 -15 21 -26 48 -26 61 l0 24 140
0 c77 0 140 -1 140 -3 0 -2 -33 -93 -74 -203 l-74 -199 -198 -5 -199 -6 201
-2 200 -2 96 255 c52 140 93 257 90 260 -8 7 -140 4 -182 -5z"/>
<path d="M7650 3093 c0 -12 3 -14 8 -7 4 7 16 14 27 17 15 4 14 5 -7 6 -21 1
-28 -4 -28 -16z"/>
<path d="M7530 2970 c-12 -8 -11 -10 8 -10 12 0 22 5 22 10 0 13 -11 13 -30 0z"/>
<path d="M5465 5130 c-39 -4 -25 -7 65 -12 63 -3 126 -9 140 -12 14 -3 7 0
-15 8 -50 16 -125 23 -190 16z"/>
<path d="M1480 1545 l0 -105 58 0 c44 0 63 5 75 18 23 26 22 79 -2 94 -17 10
-17 13 -4 26 8 8 13 26 11 41 -3 25 -6 26 -70 29 l-68 3 0 -106z m90 60 c0 -7
-7 -18 -15 -25 -13 -11 -15 -7 -15 25 0 32 2 36 15 25 8 -7 15 -18 15 -25z m0
-100 c0 -18 -7 -38 -15 -45 -13 -11 -15 -5 -15 45 0 50 2 56 15 45 8 -7 15
-27 15 -45z"/>
<path d="M1682 1630 c-15 -24 -16 -144 -2 -171 14 -26 90 -27 113 -1 25 27 24
153 -1 175 -27 24 -94 22 -110 -3z m62 -6 c3 -9 6 -44 6 -79 0 -67 -6 -95 -21
-95 -5 0 -9 43 -9 95 0 88 9 118 24 79z"/>
<path d="M1862 1630 c-15 -24 -16 -144 -2 -171 14 -26 90 -27 113 -1 25 27 24
153 -1 175 -27 24 -94 22 -110 -3z m62 -6 c3 -9 6 -44 6 -79 0 -67 -6 -95 -21
-95 -5 0 -9 43 -9 95 0 88 9 118 24 79z"/>
<path d="M2020 1545 l0 -105 30 0 c30 0 30 0 30 56 0 49 2 55 15 44 9 -8 15
-30 15 -56 0 -42 1 -44 30 -44 29 0 30 2 30 45 0 40 -3 47 -27 57 l-28 12 28
4 c26 3 28 6 25 45 -3 37 -6 42 -30 45 -25 3 -27 0 -30 -39 -4 -60 -28 -64
-28 -5 0 44 -1 46 -30 46 l-30 0 0 -105z"/>
<path d="M2250 1606 c0 -36 5 -49 25 -64 19 -15 25 -29 25 -61 0 -39 2 -41 30
-41 29 0 30 2 30 43 0 33 5 46 25 61 20 15 25 28 25 62 0 42 -1 44 -30 44 -29
0 -30 -1 -30 -47 0 -27 -4 -54 -9 -62 -16 -26 -31 0 -31 55 0 53 0 54 -30 54
-29 0 -30 -2 -30 -44z"/>
<path d="M2457 1632 c-25 -27 -24 -153 1 -175 25 -23 85 -22 105 1 25 27 24
153 -1 175 -25 23 -85 22 -105 -1z m73 -93 c0 -43 -5 -70 -13 -78 -8 -6 -17
-8 -20 -4 -9 9 -9 168 0 177 17 16 33 -31 33 -95z"/>
<path d="M2620 1564 c0 -109 8 -124 64 -124 65 0 76 18 76 123 l0 87 -30 0
-30 0 0 -84 c0 -86 -5 -116 -21 -116 -5 0 -9 45 -9 100 l0 100 -25 0 c-25 0
-25 -1 -25 -86z"/>
<path d="M2800 1545 l0 -105 25 0 c23 0 25 4 25 46 0 59 24 55 28 -4 3 -39 5
-42 33 -42 29 0 30 2 27 37 -2 28 -9 41 -28 50 l-24 12 27 10 c21 8 27 17 27
39 0 43 -28 62 -88 62 l-52 0 0 -105z m76 70 c7 -30 -2 -75 -16 -75 -6 0 -10
23 -10 50 0 53 15 67 26 25z"/>
<path d="M3030 1545 l0 -105 30 0 c29 0 30 2 30 45 0 41 2 45 25 45 16 0 25 6
25 15 0 9 -9 15 -25 15 -23 0 -25 4 -25 43 0 40 1 41 13 17 7 -14 23 -26 35
-28 19 -3 22 1 22 27 l0 31 -65 0 -65 0 0 -105z"/>
<path d="M3190 1545 l0 -105 25 0 c23 0 25 4 25 45 0 25 4 45 8 45 18 0 32
-26 32 -57 0 -29 3 -33 25 -33 23 0 25 4 25 41 0 32 -4 42 -20 46 -11 3 -20 9
-20 13 0 4 9 10 20 13 14 4 20 14 20 35 0 43 -27 62 -88 62 l-52 0 0 -105z
m90 47 c0 -22 -20 -53 -31 -47 -11 7 -12 78 -2 89 9 9 33 -22 33 -42z"/>
<path d="M3370 1545 l0 -106 63 3 c59 3 62 4 62 28 0 20 -5 25 -25 25 -18 0
-26 -6 -28 -22 -6 -39 -22 -25 -22 17 0 36 3 40 25 40 16 0 25 6 25 15 0 9 -9
15 -25 15 -22 0 -25 4 -25 40 0 42 16 56 22 18 2 -17 10 -23 28 -23 20 0 25 5
25 25 0 24 -3 25 -62 28 l-63 3 0 -106z"/>
<path d="M3530 1545 l0 -105 65 0 65 0 0 31 c0 26 -3 30 -22 27 -12 -2 -28
-13 -34 -25 -14 -29 -24 -19 -24 23 0 27 4 33 25 36 14 2 26 8 26 13 0 6 -12
11 -26 13 -21 3 -25 9 -25 36 0 42 10 52 24 23 6 -12 22 -23 34 -25 19 -3 22
1 22 27 l0 31 -65 0 -65 0 0 -105z"/>
<path d="M3737 1643 c-4 -3 -7 -17 -7 -30 0 -32 34 -27 38 5 2 12 8 20 13 17
5 -4 9 -49 9 -101 0 -94 0 -94 25 -94 25 0 25 0 25 93 0 99 6 121 24 85 18
-34 36 -34 36 1 l0 31 -78 0 c-43 0 -82 -3 -85 -7z"/>
<path d="M3930 1545 l0 -105 25 0 c23 0 25 4 25 46 0 59 24 55 28 -4 3 -39 5
-42 33 -42 29 0 30 2 27 37 -2 28 -9 41 -28 50 l-24 12 27 10 c21 8 27 17 27
39 0 43 -28 62 -88 62 l-52 0 0 -105z m76 70 c7 -30 -2 -75 -16 -75 -6 0 -10
23 -10 50 0 53 15 67 26 25z"/>
<path d="M4110 1545 l0 -105 25 0 25 0 0 105 0 105 -25 0 -25 0 0 -105z"/>
<path d="M4227 1619 c-24 -28 -27 -39 -27 -105 0 -72 1 -74 25 -74 22 0 25 4
25 34 0 21 6 36 15 40 12 4 15 -3 15 -34 0 -38 2 -40 30 -40 l30 0 0 93 c0
103 -7 117 -55 117 -22 0 -38 -9 -58 -31z m49 -75 c-3 -8 -10 -14 -16 -14 -14
0 -13 83 3 99 10 10 13 4 15 -30 2 -23 1 -48 -2 -55z"/>
<path d="M4380 1545 l0 -105 54 0 c57 0 83 17 72 46 -9 24 -50 14 -54 -13 -2
-13 -8 -23 -13 -23 -5 0 -9 45 -9 100 l0 100 -25 0 -25 0 0 -105z"/>
<path d="M4590 1547 l0 -107 25 0 c24 0 25 3 25 58 0 64 6 78 27 61 8 -7 13
-32 13 -65 0 -51 1 -54 25 -54 l25 0 0 105 0 105 -25 0 c-22 0 -25 -4 -25 -34
0 -19 5 -38 10 -41 6 -3 10 -11 10 -18 0 -6 -25 13 -55 43 l-55 54 0 -107z"/>
<path d="M4787 1632 c-25 -27 -24 -153 1 -175 25 -23 85 -22 105 1 25 27 24
153 -1 175 -25 23 -85 22 -105 -1z m73 -93 c0 -43 -5 -70 -13 -78 -8 -6 -17
-8 -20 -4 -9 9 -9 168 0 177 17 16 33 -31 33 -95z"/>
<path d="M4952 1548 l3 -103 33 -3 c21 -2 41 3 52 13 15 14 18 14 30 0 19 -23
38 -18 76 17 33 31 34 35 34 105 l0 73 -30 0 -30 0 0 -84 c0 -86 -5 -116 -21
-116 -5 0 -9 45 -9 101 l0 100 -27 -3 c-28 -3 -28 -3 -33 -97 -3 -63 -9 -96
-17 -99 -10 -3 -13 21 -13 97 l0 101 -25 0 -26 0 3 -102z"/>
</g>
</svg>
